StartChar: custom_3_0_0_0_0
Encoding: 9256 -1 9011
Width: 70
Flags: H
LayerCount: 2
Fore
SplineSet
17 25 m 1
 15 25 l 1
 15 27 l 1
 17 27 l 1
 17 25 l 1
17 29 m 1
 15 29 l 1
 15 31 l 1
 17 31 l 1
 17 29 l 1
23 25 m 1
 21 25 l 1
 21 27 l 1
 23 27 l 1
 23 25 l 1
17 33 m 1
 15 33 l 1
 15 35 l 1
 17 35 l 1
 17 33 l 1
17 37 m 1
 15 37 l 1
 15 39 l 1
 17 39 l 1
 17 37 l 1
23 33 m 1
 21 33 l 1
 21 35 l 1
 23 35 l 1
 23 33 l 1
23 37 m 1
 21 37 l 1
 21 39 l 1
 23 39 l 1
 23 37 l 1
26 25 m 1
 24 25 l 1
 24 27 l 1
 25 27 l 1
 25 26 l 1
 26 26 l 1
 26 25 l 1
28 25 m 1
 27 25 l 1
 27 26 l 1
 26 26 l 1
 26 27 l 1
 28 27 l 1
 28 25 l 1
31 25 m 1
 29 25 l 1
 29 27 l 1
 31 27 l 1
 31 25 l 1
31 29 m 1
 29 29 l 1
 29 31 l 1
 31 31 l 1
 31 29 l 1
41 25 m 1
 39 25 l 1
 39 27 l 1
 41 27 l 1
 41 25 l 1
25 33 m 1
 24 33 l 1
 24 35 l 1
 26 35 l 1
 26 34 l 1
 25 34 l 1
 25 33 l 1
28 33 m 1
 26 33 l 1
 26 34 l 1
 27 34 l 1
 27 35 l 1
 28 35 l 1
 28 33 l 1
31 33 m 1
 29 33 l 1
 29 35 l 1
 31 35 l 1
 31 33 l 1
36 31 m 1
 34 31 l 1
 34 33 l 1
 36 33 l 1
 36 31 l 1
41 33 m 1
 39 33 l 1
 39 35 l 1
 41 35 l 1
 41 33 l 1
36 35 m 1
 34 35 l 1
 34 37 l 1
 36 37 l 1
 36 35 l 1
44 25 m 1
 42 25 l 1
 42 27 l 1
 43 27 l 1
 43 26 l 1
 44 26 l 1
 44 25 l 1
46 25 m 1
 45 25 l 1
 45 26 l 1
 44 26 l 1
 44 27 l 1
 46 27 l 1
 46 25 l 1
49 25 m 1
 47 25 l 1
 47 27 l 1
 49 27 l 1
 49 25 l 1
49 29 m 1
 47 29 l 1
 47 31 l 1
 49 31 l 1
 49 29 l 1
55 25 m 1
 53 25 l 1
 53 27 l 1
 55 27 l 1
 55 25 l 1
55 29 m 1
 53 29 l 1
 53 31 l 1
 55 31 l 1
 55 29 l 1
43 33 m 1
 42 33 l 1
 42 35 l 1
 44 35 l 1
 44 34 l 1
 43 34 l 1
 43 33 l 1
46 33 m 1
 44 33 l 1
 44 34 l 1
 45 34 l 1
 45 35 l 1
 46 35 l 1
 46 33 l 1
49 33 m 1
 47 33 l 1
 47 35 l 1
 49 35 l 1
 49 33 l 1
49 37 m 1
 47 37 l 1
 47 39 l 1
 49 39 l 1
 49 37 l 1
55 33 m 1
 53 33 l 1
 53 35 l 1
 55 35 l 1
 55 33 l 1
55 37 m 1
 53 37 l 1
 53 39 l 1
 55 39 l 1
 55 37 l 1
58 25 m 1
 56 25 l 1
 56 27 l 1
 57 27 l 1
 57 26 l 1
 58 26 l 1
 58 25 l 1
60 25 m 1
 59 25 l 1
 59 26 l 1
 58 26 l 1
 58 27 l 1
 60 27 l 1
 60 25 l 1
63 25 m 1
 61 25 l 1
 61 27 l 1
 63 27 l 1
 63 25 l 1
63 29 m 1
 61 29 l 1
 61 31 l 1
 63 31 l 1
 63 29 l 1
63 33 m 1
 61 33 l 1
 61 35 l 1
 63 35 l 1
 63 33 l 1
63 37 m 1
 61 37 l 1
 61 39 l 1
 63 39 l 1
 63 37 l 1
17 41 m 1
 15 41 l 1
 15 43 l 1
 17 43 l 1
 17 41 l 1
23 41 m 1
 21 41 l 1
 21 43 l 1
 23 43 l 1
 23 41 l 1
26 41 m 1
 24 41 l 1
 24 43 l 1
 25 43 l 1
 25 42 l 1
 26 42 l 1
 26 41 l 1
28 41 m 1
 27 41 l 1
 27 42 l 1
 26 42 l 1
 26 43 l 1
 28 43 l 1
 28 41 l 1
31 41 m 1
 29 41 l 1
 29 43 l 1
 31 43 l 1
 31 41 l 1
41 41 m 1
 39 41 l 1
 39 43 l 1
 41 43 l 1
 41 41 l 1
44 41 m 1
 42 41 l 1
 42 43 l 1
 43 43 l 1
 43 42 l 1
 44 42 l 1
 44 41 l 1
46 41 m 1
 45 41 l 1
 45 42 l 1
 44 42 l 1
 44 43 l 1
 46 43 l 1
 46 41 l 1
49 41 m 1
 47 41 l 1
 47 43 l 1
 49 43 l 1
 49 41 l 1
55 41 m 1
 53 41 l 1
 53 43 l 1
 55 43 l 1
 55 41 l 1
58 41 m 1
 56 41 l 1
 56 43 l 1
 57 43 l 1
 57 42 l 1
 58 42 l 1
 58 41 l 1
60 41 m 1
 59 41 l 1
 59 42 l 1
 58 42 l 1
 58 43 l 1
 60 43 l 1
 60 41 l 1
63 41 m 1
 61 41 l 1
 61 43 l 1
 63 43 l 1
 63 41 l 1
EndSplineSet
Ligature2: "'liga' Standard Ligatures in Latin lookup 0-1" three zero zero zero zero
LCarets2: 1 0
EndChar

StartChar: custom_3_0_0_0_1
Encoding: 9257 -1 9012
Width: 70
Flags: H
LayerCount: 2
Fore
SplineSet
17 25 m 1
 15 25 l 1
 15 27 l 1
 17 27 l 1
 17 25 l 1
17 29 m 1
 15 29 l 1
 15 31 l 1
 17 31 l 1
 17 29 l 1
23 25 m 1
 21 25 l 1
 21 27 l 1
 23 27 l 1
 23 25 l 1
17 33 m 1
 15 33 l 1
 15 35 l 1
 17 35 l 1
 17 33 l 1
17 37 m 1
 15 37 l 1
 15 39 l 1
 17 39 l 1
 17 37 l 1
23 33 m 1
 21 33 l 1
 21 35 l 1
 23 35 l 1
 23 33 l 1
23 37 m 1
 21 37 l 1
 21 39 l 1
 23 39 l 1
 23 37 l 1
26 25 m 1
 24 25 l 1
 24 27 l 1
 25 27 l 1
 25 26 l 1
 26 26 l 1
 26 25 l 1
28 25 m 1
 27 25 l 1
 27 26 l 1
 26 26 l 1
 26 27 l 1
 28 27 l 1
 28 25 l 1
31 25 m 1
 29 25 l 1
 29 27 l 1
 31 27 l 1
 31 25 l 1
31 29 m 1
 29 29 l 1
 29 31 l 1
 31 31 l 1
 31 29 l 1
41 25 m 1
 39 25 l 1
 39 27 l 1
 41 27 l 1
 41 25 l 1
25 33 m 1
 24 33 l 1
 24 35 l 1
 26 35 l 1
 26 34 l 1
 25 34 l 1
 25 33 l 1
28 33 m 1
 26 33 l 1
 26 34 l 1
 27 34 l 1
 27 35 l 1
 28 35 l 1
 28 33 l 1
31 33 m 1
 29 33 l 1
 29 35 l 1
 31 35 l 1
 31 33 l 1
36 31 m 1
 34 31 l 1
 34 33 l 1
 36 33 l 1
 36 31 l 1
41 33 m 1
 39 33 l 1
 39 35 l 1
 41 35 l 1
 41 33 l 1
36 35 m 1
 34 35 l 1
 34 37 l 1
 36 37 l 1
 36 35 l 1
44 25 m 1
 42 25 l 1
 42 27 l 1
 43 27 l 1
 43 26 l 1
 44 26 l 1
 44 25 l 1
46 25 m 1
 45 25 l 1
 45 26 l 1
 44 26 l 1
 44 27 l 1
 46 27 l 1
 46 25 l 1
49 25 m 1
 47 25 l 1
 47 27 l 1
 49 27 l 1
 49 25 l 1
49 29 m 1
 47 29 l 1
 47 31 l 1
 49 31 l 1
 49 29 l 1
55 25 m 1
 53 25 l 1
 53 27 l 1
 55 27 l 1
 55 25 l 1
55 29 m 1
 53 29 l 1
 53 31 l 1
 55 31 l 1
 55 29 l 1
43 33 m 1
 42 33 l 1
 42 35 l 1
 44 35 l 1
 44 34 l 1
 43 34 l 1
 43 33 l 1
46 33 m 1
 44 33 l 1
 44 34 l 1
 45 34 l 1
 45 35 l 1
 46 35 l 1
 46 33 l 1
49 33 m 1
 47 33 l 1
 47 35 l 1
 49 35 l 1
 49 33 l 1
49 37 m 1
 47 37 l 1
 47 39 l 1
 49 39 l 1
 49 37 l 1
55 33 m 1
 53 33 l 1
 53 35 l 1
 55 35 l 1
 55 33 l 1
55 37 m 1
 53 37 l 1
 53 39 l 1
 55 39 l 1
 55 37 l 1
58 25 m 1
 56 25 l 1
 56 27 l 1
 57 27 l 1
 57 26 l 1
 58 26 l 1
 58 25 l 1
60 25 m 1
 59 25 l 1
 59 26 l 1
 58 26 l 1
 58 27 l 1
 60 27 l 1
 60 25 l 1
63 25 m 1
 61 25 l 1
 61 27 l 1
 63 27 l 1
 63 25 l 1
63 29 m 1
 61 29 l 1
 61 31 l 1
 63 31 l 1
 63 29 l 1
63 33 m 1
 61 33 l 1
 61 35 l 1
 63 35 l 1
 63 33 l 1
63 37 m 1
 61 37 l 1
 61 39 l 1
 63 39 l 1
 63 37 l 1
17 41 m 1
 15 41 l 1
 15 43 l 1
 17 43 l 1
 17 41 l 1
23 41 m 1
 21 41 l 1
 21 43 l 1
 23 43 l 1
 23 41 l 1
26 41 m 1
 24 41 l 1
 24 43 l 1
 25 43 l 1
 25 42 l 1
 26 42 l 1
 26 41 l 1
28 41 m 1
 27 41 l 1
 27 42 l 1
 26 42 l 1
 26 43 l 1
 28 43 l 1
 28 41 l 1
31 41 m 1
 29 41 l 1
 29 43 l 1
 31 43 l 1
 31 41 l 1
41 41 m 1
 39 41 l 1
 39 43 l 1
 41 43 l 1
 41 41 l 1
44 41 m 1
 42 41 l 1
 42 43 l 1
 43 43 l 1
 43 42 l 1
 44 42 l 1
 44 41 l 1
46 41 m 1
 45 41 l 1
 45 42 l 1
 44 42 l 1
 44 43 l 1
 46 43 l 1
 46 41 l 1
49 41 m 1
 47 41 l 1
 47 43 l 1
 49 43 l 1
 49 41 l 1
55 41 m 1
 53 41 l 1
 53 43 l 1
 55 43 l 1
 55 41 l 1
58 41 m 1
 56 41 l 1
 56 43 l 1
 57 43 l 1
 57 42 l 1
 58 42 l 1
 58 41 l 1
60 41 m 1
 59 41 l 1
 59 42 l 1
 58 42 l 1
 58 43 l 1
 60 43 l 1
 60 41 l 1
63 41 m 1
 61 41 l 1
 61 43 l 1
 63 43 l 1
 63 41 l 1
EndSplineSet
Ligature2: "'liga' Standard Ligatures in Latin lookup 0-1" three zero zero zero one
LCarets2: 1 0
EndChar

StartChar: custom_3_0_0_0_2
Encoding: 9258 -1 9013
Width: 70
Flags: H
LayerCount: 2
Fore
SplineSet
17 25 m 1
 15 25 l 1
 15 27 l 1
 17 27 l 1
 17 25 l 1
17 29 m 1
 15 29 l 1
 15 31 l 1
 17 31 l 1
 17 29 l 1
23 25 m 1
 21 25 l 1
 21 27 l 1
 23 27 l 1
 23 25 l 1
17 33 m 1
 15 33 l 1
 15 35 l 1
 17 35 l 1
 17 33 l 1
17 37 m 1
 15 37 l 1
 15 39 l 1
 17 39 l 1
 17 37 l 1
23 33 m 1
 21 33 l 1
 21 35 l 1
 23 35 l 1
 23 33 l 1
23 37 m 1
 21 37 l 1
 21 39 l 1
 23 39 l 1
 23 37 l 1
26 25 m 1
 24 25 l 1
 24 27 l 1
 25 27 l 1
 25 26 l 1
 26 26 l 1
 26 25 l 1
28 25 m 1
 27 25 l 1
 27 26 l 1
 26 26 l 1
 26 27 l 1
 28 27 l 1
 28 25 l 1
31 25 m 1
 29 25 l 1
 29 27 l 1
 31 27 l 1
 31 25 l 1
31 29 m 1
 29 29 l 1
 29 31 l 1
 31 31 l 1
 31 29 l 1
41 25 m 1
 39 25 l 1
 39 27 l 1
 41 27 l 1
 41 25 l 1
25 33 m 1
 24 33 l 1
 24 35 l 1
 26 35 l 1
 26 34 l 1
 25 34 l 1
 25 33 l 1
28 33 m 1
 26 33 l 1
 26 34 l 1
 27 34 l 1
 27 35 l 1
 28 35 l 1
 28 33 l 1
31 33 m 1
 29 33 l 1
 29 35 l 1
 31 35 l 1
 31 33 l 1
36 31 m 1
 34 31 l 1
 34 33 l 1
 36 33 l 1
 36 31 l 1
41 33 m 1
 39 33 l 1
 39 35 l 1
 41 35 l 1
 41 33 l 1
36 35 m 1
 34 35 l 1
 34 37 l 1
 36 37 l 1
 36 35 l 1
44 25 m 1
 42 25 l 1
 42 27 l 1
 43 27 l 1
 43 26 l 1
 44 26 l 1
 44 25 l 1
46 25 m 1
 45 25 l 1
 45 26 l 1
 44 26 l 1
 44 27 l 1
 46 27 l 1
 46 25 l 1
49 25 m 1
 47 25 l 1
 47 27 l 1
 49 27 l 1
 49 25 l 1
49 29 m 1
 47 29 l 1
 47 31 l 1
 49 31 l 1
 49 29 l 1
55 25 m 1
 53 25 l 1
 53 27 l 1
 55 27 l 1
 55 25 l 1
55 29 m 1
 53 29 l 1
 53 31 l 1
 55 31 l 1
 55 29 l 1
43 33 m 1
 42 33 l 1
 42 35 l 1
 44 35 l 1
 44 34 l 1
 43 34 l 1
 43 33 l 1
46 33 m 1
 44 33 l 1
 44 34 l 1
 45 34 l 1
 45 35 l 1
 46 35 l 1
 46 33 l 1
49 33 m 1
 47 33 l 1
 47 35 l 1
 49 35 l 1
 49 33 l 1
49 37 m 1
 47 37 l 1
 47 39 l 1
 49 39 l 1
 49 37 l 1
55 33 m 1
 53 33 l 1
 53 35 l 1
 55 35 l 1
 55 33 l 1
55 37 m 1
 53 37 l 1
 53 39 l 1
 55 39 l 1
 55 37 l 1
58 25 m 1
 56 25 l 1
 56 27 l 1
 57 27 l 1
 57 26 l 1
 58 26 l 1
 58 25 l 1
60 25 m 1
 59 25 l 1
 59 26 l 1
 58 26 l 1
 58 27 l 1
 60 27 l 1
 60 25 l 1
63 25 m 1
 61 25 l 1
 61 27 l 1
 63 27 l 1
 63 25 l 1
63 29 m 1
 61 29 l 1
 61 31 l 1
 63 31 l 1
 63 29 l 1
63 33 m 1
 61 33 l 1
 61 35 l 1
 63 35 l 1
 63 33 l 1
63 37 m 1
 61 37 l 1
 61 39 l 1
 63 39 l 1
 63 37 l 1
17 41 m 1
 15 41 l 1
 15 43 l 1
 17 43 l 1
 17 41 l 1
23 41 m 1
 21 41 l 1
 21 43 l 1
 23 43 l 1
 23 41 l 1
26 41 m 1
 24 41 l 1
 24 43 l 1
 25 43 l 1
 25 42 l 1
 26 42 l 1
 26 41 l 1
28 41 m 1
 27 41 l 1
 27 42 l 1
 26 42 l 1
 26 43 l 1
 28 43 l 1
 28 41 l 1
31 41 m 1
 29 41 l 1
 29 43 l 1
 31 43 l 1
 31 41 l 1
41 41 m 1
 39 41 l 1
 39 43 l 1
 41 43 l 1
 41 41 l 1
44 41 m 1
 42 41 l 1
 42 43 l 1
 43 43 l 1
 43 42 l 1
 44 42 l 1
 44 41 l 1
46 41 m 1
 45 41 l 1
 45 42 l 1
 44 42 l 1
 44 43 l 1
 46 43 l 1
 46 41 l 1
49 41 m 1
 47 41 l 1
 47 43 l 1
 49 43 l 1
 49 41 l 1
55 41 m 1
 53 41 l 1
 53 43 l 1
 55 43 l 1
 55 41 l 1
58 41 m 1
 56 41 l 1
 56 43 l 1
 57 43 l 1
 57 42 l 1
 58 42 l 1
 58 41 l 1
60 41 m 1
 59 41 l 1
 59 42 l 1
 58 42 l 1
 58 43 l 1
 60 43 l 1
 60 41 l 1
63 41 m 1
 61 41 l 1
 61 43 l 1
 63 43 l 1
 63 41 l 1
EndSplineSet
Ligature2: "'liga' Standard Ligatures in Latin lookup 0-1" three zero zero zero two
LCarets2: 1 0
EndChar

StartChar: custom_3_0_0_0_3
Encoding: 9259 -1 9014
Width: 70
Flags: H
LayerCount: 2
Fore
SplineSet
17 25 m 1
 15 25 l 1
 15 27 l 1
 17 27 l 1
 17 25 l 1
17 29 m 1
 15 29 l 1
 15 31 l 1
 17 31 l 1
 17 29 l 1
23 25 m 1
 21 25 l 1
 21 27 l 1
 23 27 l 1
 23 25 l 1
17 33 m 1
 15 33 l 1
 15 35 l 1
 17 35 l 1
 17 33 l 1
17 37 m 1
 15 37 l 1
 15 39 l 1
 17 39 l 1
 17 37 l 1
23 33 m 1
 21 33 l 1
 21 35 l 1
 23 35 l 1
 23 33 l 1
23 37 m 1
 21 37 l 1
 21 39 l 1
 23 39 l 1
 23 37 l 1
26 25 m 1
 24 25 l 1
 24 27 l 1
 25 27 l 1
 25 26 l 1
 26 26 l 1
 26 25 l 1
28 25 m 1
 27 25 l 1
 27 26 l 1
 26 26 l 1
 26 27 l 1
 28 27 l 1
 28 25 l 1
31 25 m 1
 29 25 l 1
 29 27 l 1
 31 27 l 1
 31 25 l 1
31 29 m 1
 29 29 l 1
 29 31 l 1
 31 31 l 1
 31 29 l 1
41 25 m 1
 39 25 l 1
 39 27 l 1
 41 27 l 1
 41 25 l 1
25 33 m 1
 24 33 l 1
 24 35 l 1
 26 35 l 1
 26 34 l 1
 25 34 l 1
 25 33 l 1
28 33 m 1
 26 33 l 1
 26 34 l 1
 27 34 l 1
 27 35 l 1
 28 35 l 1
 28 33 l 1
31 33 m 1
 29 33 l 1
 29 35 l 1
 31 35 l 1
 31 33 l 1
36 31 m 1
 34 31 l 1
 34 33 l 1
 36 33 l 1
 36 31 l 1
41 33 m 1
 39 33 l 1
 39 35 l 1
 41 35 l 1
 41 33 l 1
36 35 m 1
 34 35 l 1
 34 37 l 1
 36 37 l 1
 36 35 l 1
44 25 m 1
 42 25 l 1
 42 27 l 1
 43 27 l 1
 43 26 l 1
 44 26 l 1
 44 25 l 1
46 25 m 1
 45 25 l 1
 45 26 l 1
 44 26 l 1
 44 27 l 1
 46 27 l 1
 46 25 l 1
49 25 m 1
 47 25 l 1
 47 27 l 1
 49 27 l 1
 49 25 l 1
49 29 m 1
 47 29 l 1
 47 31 l 1
 49 31 l 1
 49 29 l 1
55 25 m 1
 53 25 l 1
 53 27 l 1
 55 27 l 1
 55 25 l 1
55 29 m 1
 53 29 l 1
 53 31 l 1
 55 31 l 1
 55 29 l 1
43 33 m 1
 42 33 l 1
 42 35 l 1
 44 35 l 1
 44 34 l 1
 43 34 l 1
 43 33 l 1
46 33 m 1
 44 33 l 1
 44 34 l 1
 45 34 l 1
 45 35 l 1
 46 35 l 1
 46 33 l 1
49 33 m 1
 47 33 l 1
 47 35 l 1
 49 35 l 1
 49 33 l 1
49 37 m 1
 47 37 l 1
 47 39 l 1
 49 39 l 1
 49 37 l 1
55 33 m 1
 53 33 l 1
 53 35 l 1
 55 35 l 1
 55 33 l 1
55 37 m 1
 53 37 l 1
 53 39 l 1
 55 39 l 1
 55 37 l 1
58 25 m 1
 56 25 l 1
 56 27 l 1
 57 27 l 1
 57 26 l 1
 58 26 l 1
 58 25 l 1
60 25 m 1
 59 25 l 1
 59 26 l 1
 58 26 l 1
 58 27 l 1
 60 27 l 1
 60 25 l 1
63 25 m 1
 61 25 l 1
 61 27 l 1
 63 27 l 1
 63 25 l 1
63 29 m 1
 61 29 l 1
 61 31 l 1
 63 31 l 1
 63 29 l 1
63 33 m 1
 61 33 l 1
 61 35 l 1
 63 35 l 1
 63 33 l 1
63 37 m 1
 61 37 l 1
 61 39 l 1
 63 39 l 1
 63 37 l 1
17 41 m 1
 15 41 l 1
 15 43 l 1
 17 43 l 1
 17 41 l 1
23 41 m 1
 21 41 l 1
 21 43 l 1
 23 43 l 1
 23 41 l 1
26 41 m 1
 24 41 l 1
 24 43 l 1
 25 43 l 1
 25 42 l 1
 26 42 l 1
 26 41 l 1
28 41 m 1
 27 41 l 1
 27 42 l 1
 26 42 l 1
 26 43 l 1
 28 43 l 1
 28 41 l 1
31 41 m 1
 29 41 l 1
 29 43 l 1
 31 43 l 1
 31 41 l 1
41 41 m 1
 39 41 l 1
 39 43 l 1
 41 43 l 1
 41 41 l 1
44 41 m 1
 42 41 l 1
 42 43 l 1
 43 43 l 1
 43 42 l 1
 44 42 l 1
 44 41 l 1
46 41 m 1
 45 41 l 1
 45 42 l 1
 44 42 l 1
 44 43 l 1
 46 43 l 1
 46 41 l 1
49 41 m 1
 47 41 l 1
 47 43 l 1
 49 43 l 1
 49 41 l 1
55 41 m 1
 53 41 l 1
 53 43 l 1
 55 43 l 1
 55 41 l 1
58 41 m 1
 56 41 l 1
 56 43 l 1
 57 43 l 1
 57 42 l 1
 58 42 l 1
 58 41 l 1
60 41 m 1
 59 41 l 1
 59 42 l 1
 58 42 l 1
 58 43 l 1
 60 43 l 1
 60 41 l 1
63 41 m 1
 61 41 l 1
 61 43 l 1
 63 43 l 1
 63 41 l 1
EndSplineSet
Ligature2: "'liga' Standard Ligatures in Latin lookup 0-1" three zero zero zero three
LCarets2: 1 0
EndChar

StartChar: custom_3_0_0_0_4
Encoding: 9260 -1 9015
Width: 70
Flags: H
LayerCount: 2
Fore
SplineSet
17 25 m 1
 15 25 l 1
 15 27 l 1
 17 27 l 1
 17 25 l 1
17 29 m 1
 15 29 l 1
 15 31 l 1
 17 31 l 1
 17 29 l 1
23 25 m 1
 21 25 l 1
 21 27 l 1
 23 27 l 1
 23 25 l 1
17 33 m 1
 15 33 l 1
 15 35 l 1
 17 35 l 1
 17 33 l 1
17 37 m 1
 15 37 l 1
 15 39 l 1
 17 39 l 1
 17 37 l 1
23 33 m 1
 21 33 l 1
 21 35 l 1
 23 35 l 1
 23 33 l 1
23 37 m 1
 21 37 l 1
 21 39 l 1
 23 39 l 1
 23 37 l 1
26 25 m 1
 24 25 l 1
 24 27 l 1
 25 27 l 1
 25 26 l 1
 26 26 l 1
 26 25 l 1
28 25 m 1
 27 25 l 1
 27 26 l 1
 26 26 l 1
 26 27 l 1
 28 27 l 1
 28 25 l 1
31 25 m 1
 29 25 l 1
 29 27 l 1
 31 27 l 1
 31 25 l 1
31 29 m 1
 29 29 l 1
 29 31 l 1
 31 31 l 1
 31 29 l 1
41 25 m 1
 39 25 l 1
 39 27 l 1
 41 27 l 1
 41 25 l 1
25 33 m 1
 24 33 l 1
 24 35 l 1
 26 35 l 1
 26 34 l 1
 25 34 l 1
 25 33 l 1
28 33 m 1
 26 33 l 1
 26 34 l 1
 27 34 l 1
 27 35 l 1
 28 35 l 1
 28 33 l 1
31 33 m 1
 29 33 l 1
 29 35 l 1
 31 35 l 1
 31 33 l 1
36 31 m 1
 34 31 l 1
 34 33 l 1
 36 33 l 1
 36 31 l 1
41 33 m 1
 39 33 l 1
 39 35 l 1
 41 35 l 1
 41 33 l 1
36 35 m 1
 34 35 l 1
 34 37 l 1
 36 37 l 1
 36 35 l 1
44 25 m 1
 42 25 l 1
 42 27 l 1
 43 27 l 1
 43 26 l 1
 44 26 l 1
 44 25 l 1
46 25 m 1
 45 25 l 1
 45 26 l 1
 44 26 l 1
 44 27 l 1
 46 27 l 1
 46 25 l 1
49 25 m 1
 47 25 l 1
 47 27 l 1
 49 27 l 1
 49 25 l 1
49 29 m 1
 47 29 l 1
 47 31 l 1
 49 31 l 1
 49 29 l 1
55 25 m 1
 53 25 l 1
 53 27 l 1
 55 27 l 1
 55 25 l 1
55 29 m 1
 53 29 l 1
 53 31 l 1
 55 31 l 1
 55 29 l 1
43 33 m 1
 42 33 l 1
 42 35 l 1
 44 35 l 1
 44 34 l 1
 43 34 l 1
 43 33 l 1
46 33 m 1
 44 33 l 1
 44 34 l 1
 45 34 l 1
 45 35 l 1
 46 35 l 1
 46 33 l 1
49 33 m 1
 47 33 l 1
 47 35 l 1
 49 35 l 1
 49 33 l 1
49 37 m 1
 47 37 l 1
 47 39 l 1
 49 39 l 1
 49 37 l 1
55 33 m 1
 53 33 l 1
 53 35 l 1
 55 35 l 1
 55 33 l 1
55 37 m 1
 53 37 l 1
 53 39 l 1
 55 39 l 1
 55 37 l 1
58 25 m 1
 56 25 l 1
 56 27 l 1
 57 27 l 1
 57 26 l 1
 58 26 l 1
 58 25 l 1
60 25 m 1
 59 25 l 1
 59 26 l 1
 58 26 l 1
 58 27 l 1
 60 27 l 1
 60 25 l 1
63 25 m 1
 61 25 l 1
 61 27 l 1
 63 27 l 1
 63 25 l 1
63 29 m 1
 61 29 l 1
 61 31 l 1
 63 31 l 1
 63 29 l 1
63 33 m 1
 61 33 l 1
 61 35 l 1
 63 35 l 1
 63 33 l 1
63 37 m 1
 61 37 l 1
 61 39 l 1
 63 39 l 1
 63 37 l 1
17 41 m 1
 15 41 l 1
 15 43 l 1
 17 43 l 1
 17 41 l 1
23 41 m 1
 21 41 l 1
 21 43 l 1
 23 43 l 1
 23 41 l 1
26 41 m 1
 24 41 l 1
 24 43 l 1
 25 43 l 1
 25 42 l 1
 26 42 l 1
 26 41 l 1
28 41 m 1
 27 41 l 1
 27 42 l 1
 26 42 l 1
 26 43 l 1
 28 43 l 1
 28 41 l 1
31 41 m 1
 29 41 l 1
 29 43 l 1
 31 43 l 1
 31 41 l 1
41 41 m 1
 39 41 l 1
 39 43 l 1
 41 43 l 1
 41 41 l 1
44 41 m 1
 42 41 l 1
 42 43 l 1
 43 43 l 1
 43 42 l 1
 44 42 l 1
 44 41 l 1
46 41 m 1
 45 41 l 1
 45 42 l 1
 44 42 l 1
 44 43 l 1
 46 43 l 1
 46 41 l 1
49 41 m 1
 47 41 l 1
 47 43 l 1
 49 43 l 1
 49 41 l 1
55 41 m 1
 53 41 l 1
 53 43 l 1
 55 43 l 1
 55 41 l 1
58 41 m 1
 56 41 l 1
 56 43 l 1
 57 43 l 1
 57 42 l 1
 58 42 l 1
 58 41 l 1
60 41 m 1
 59 41 l 1
 59 42 l 1
 58 42 l 1
 58 43 l 1
 60 43 l 1
 60 41 l 1
63 41 m 1
 61 41 l 1
 61 43 l 1
 63 43 l 1
 63 41 l 1
EndSplineSet
Ligature2: "'liga' Standard Ligatures in Latin lookup 0-1" three zero zero zero four
LCarets2: 1 0
EndChar

StartChar: custom_3_0_0_0_5
Encoding: 9261 -1 9016
Width: 70
Flags: H
LayerCount: 2
Fore
SplineSet
17 25 m 1
 15 25 l 1
 15 27 l 1
 17 27 l 1
 17 25 l 1
17 29 m 1
 15 29 l 1
 15 31 l 1
 17 31 l 1
 17 29 l 1
23 25 m 1
 21 25 l 1
 21 27 l 1
 23 27 l 1
 23 25 l 1
17 33 m 1
 15 33 l 1
 15 35 l 1
 17 35 l 1
 17 33 l 1
17 37 m 1
 15 37 l 1
 15 39 l 1
 17 39 l 1
 17 37 l 1
23 33 m 1
 21 33 l 1
 21 35 l 1
 23 35 l 1
 23 33 l 1
23 37 m 1
 21 37 l 1
 21 39 l 1
 23 39 l 1
 23 37 l 1
26 25 m 1
 24 25 l 1
 24 27 l 1
 25 27 l 1
 25 26 l 1
 26 26 l 1
 26 25 l 1
28 25 m 1
 27 25 l 1
 27 26 l 1
 26 26 l 1
 26 27 l 1
 28 27 l 1
 28 25 l 1
31 25 m 1
 29 25 l 1
 29 27 l 1
 31 27 l 1
 31 25 l 1
31 29 m 1
 29 29 l 1
 29 31 l 1
 31 31 l 1
 31 29 l 1
41 25 m 1
 39 25 l 1
 39 27 l 1
 41 27 l 1
 41 25 l 1
25 33 m 1
 24 33 l 1
 24 35 l 1
 26 35 l 1
 26 34 l 1
 25 34 l 1
 25 33 l 1
28 33 m 1
 26 33 l 1
 26 34 l 1
 27 34 l 1
 27 35 l 1
 28 35 l 1
 28 33 l 1
31 33 m 1
 29 33 l 1
 29 35 l 1
 31 35 l 1
 31 33 l 1
36 31 m 1
 34 31 l 1
 34 33 l 1
 36 33 l 1
 36 31 l 1
41 33 m 1
 39 33 l 1
 39 35 l 1
 41 35 l 1
 41 33 l 1
36 35 m 1
 34 35 l 1
 34 37 l 1
 36 37 l 1
 36 35 l 1
44 25 m 1
 42 25 l 1
 42 27 l 1
 43 27 l 1
 43 26 l 1
 44 26 l 1
 44 25 l 1
46 25 m 1
 45 25 l 1
 45 26 l 1
 44 26 l 1
 44 27 l 1
 46 27 l 1
 46 25 l 1
49 25 m 1
 47 25 l 1
 47 27 l 1
 49 27 l 1
 49 25 l 1
49 29 m 1
 47 29 l 1
 47 31 l 1
 49 31 l 1
 49 29 l 1
55 25 m 1
 53 25 l 1
 53 27 l 1
 55 27 l 1
 55 25 l 1
55 29 m 1
 53 29 l 1
 53 31 l 1
 55 31 l 1
 55 29 l 1
43 33 m 1
 42 33 l 1
 42 35 l 1
 44 35 l 1
 44 34 l 1
 43 34 l 1
 43 33 l 1
46 33 m 1
 44 33 l 1
 44 34 l 1
 45 34 l 1
 45 35 l 1
 46 35 l 1
 46 33 l 1
49 33 m 1
 47 33 l 1
 47 35 l 1
 49 35 l 1
 49 33 l 1
49 37 m 1
 47 37 l 1
 47 39 l 1
 49 39 l 1
 49 37 l 1
55 33 m 1
 53 33 l 1
 53 35 l 1
 55 35 l 1
 55 33 l 1
55 37 m 1
 53 37 l 1
 53 39 l 1
 55 39 l 1
 55 37 l 1
58 25 m 1
 56 25 l 1
 56 27 l 1
 57 27 l 1
 57 26 l 1
 58 26 l 1
 58 25 l 1
60 25 m 1
 59 25 l 1
 59 26 l 1
 58 26 l 1
 58 27 l 1
 60 27 l 1
 60 25 l 1
63 25 m 1
 61 25 l 1
 61 27 l 1
 63 27 l 1
 63 25 l 1
63 29 m 1
 61 29 l 1
 61 31 l 1
 63 31 l 1
 63 29 l 1
63 33 m 1
 61 33 l 1
 61 35 l 1
 63 35 l 1
 63 33 l 1
63 37 m 1
 61 37 l 1
 61 39 l 1
 63 39 l 1
 63 37 l 1
17 41 m 1
 15 41 l 1
 15 43 l 1
 17 43 l 1
 17 41 l 1
23 41 m 1
 21 41 l 1
 21 43 l 1
 23 43 l 1
 23 41 l 1
26 41 m 1
 24 41 l 1
 24 43 l 1
 25 43 l 1
 25 42 l 1
 26 42 l 1
 26 41 l 1
28 41 m 1
 27 41 l 1
 27 42 l 1
 26 42 l 1
 26 43 l 1
 28 43 l 1
 28 41 l 1
31 41 m 1
 29 41 l 1
 29 43 l 1
 31 43 l 1
 31 41 l 1
41 41 m 1
 39 41 l 1
 39 43 l 1
 41 43 l 1
 41 41 l 1
44 41 m 1
 42 41 l 1
 42 43 l 1
 43 43 l 1
 43 42 l 1
 44 42 l 1
 44 41 l 1
46 41 m 1
 45 41 l 1
 45 42 l 1
 44 42 l 1
 44 43 l 1
 46 43 l 1
 46 41 l 1
49 41 m 1
 47 41 l 1
 47 43 l 1
 49 43 l 1
 49 41 l 1
55 41 m 1
 53 41 l 1
 53 43 l 1
 55 43 l 1
 55 41 l 1
58 41 m 1
 56 41 l 1
 56 43 l 1
 57 43 l 1
 57 42 l 1
 58 42 l 1
 58 41 l 1
60 41 m 1
 59 41 l 1
 59 42 l 1
 58 42 l 1
 58 43 l 1
 60 43 l 1
 60 41 l 1
63 41 m 1
 61 41 l 1
 61 43 l 1
 63 43 l 1
 63 41 l 1
EndSplineSet
Ligature2: "'liga' Standard Ligatures in Latin lookup 0-1" three zero zero zero five
LCarets2: 1 0
EndChar

StartChar: custom_3_0_0_0_6
Encoding: 9262 -1 9017
Width: 70
Flags: H
LayerCount: 2
Fore
SplineSet
17 25 m 1
 15 25 l 1
 15 27 l 1
 17 27 l 1
 17 25 l 1
17 29 m 1
 15 29 l 1
 15 31 l 1
 17 31 l 1
 17 29 l 1
23 25 m 1
 21 25 l 1
 21 27 l 1
 23 27 l 1
 23 25 l 1
17 33 m 1
 15 33 l 1
 15 35 l 1
 17 35 l 1
 17 33 l 1
17 37 m 1
 15 37 l 1
 15 39 l 1
 17 39 l 1
 17 37 l 1
23 33 m 1
 21 33 l 1
 21 35 l 1
 23 35 l 1
 23 33 l 1
23 37 m 1
 21 37 l 1
 21 39 l 1
 23 39 l 1
 23 37 l 1
26 25 m 1
 24 25 l 1
 24 27 l 1
 25 27 l 1
 25 26 l 1
 26 26 l 1
 26 25 l 1
28 25 m 1
 27 25 l 1
 27 26 l 1
 26 26 l 1
 26 27 l 1
 28 27 l 1
 28 25 l 1
31 25 m 1
 29 25 l 1
 29 27 l 1
 31 27 l 1
 31 25 l 1
31 29 m 1
 29 29 l 1
 29 31 l 1
 31 31 l 1
 31 29 l 1
41 25 m 1
 39 25 l 1
 39 27 l 1
 41 27 l 1
 41 25 l 1
25 33 m 1
 24 33 l 1
 24 35 l 1
 26 35 l 1
 26 34 l 1
 25 34 l 1
 25 33 l 1
28 33 m 1
 26 33 l 1
 26 34 l 1
 27 34 l 1
 27 35 l 1
 28 35 l 1
 28 33 l 1
31 33 m 1
 29 33 l 1
 29 35 l 1
 31 35 l 1
 31 33 l 1
36 31 m 1
 34 31 l 1
 34 33 l 1
 36 33 l 1
 36 31 l 1
41 33 m 1
 39 33 l 1
 39 35 l 1
 41 35 l 1
 41 33 l 1
36 35 m 1
 34 35 l 1
 34 37 l 1
 36 37 l 1
 36 35 l 1
44 25 m 1
 42 25 l 1
 42 27 l 1
 43 27 l 1
 43 26 l 1
 44 26 l 1
 44 25 l 1
46 25 m 1
 45 25 l 1
 45 26 l 1
 44 26 l 1
 44 27 l 1
 46 27 l 1
 46 25 l 1
49 25 m 1
 47 25 l 1
 47 27 l 1
 49 27 l 1
 49 25 l 1
49 29 m 1
 47 29 l 1
 47 31 l 1
 49 31 l 1
 49 29 l 1
55 25 m 1
 53 25 l 1
 53 27 l 1
 55 27 l 1
 55 25 l 1
55 29 m 1
 53 29 l 1
 53 31 l 1
 55 31 l 1
 55 29 l 1
43 33 m 1
 42 33 l 1
 42 35 l 1
 44 35 l 1
 44 34 l 1
 43 34 l 1
 43 33 l 1
46 33 m 1
 44 33 l 1
 44 34 l 1
 45 34 l 1
 45 35 l 1
 46 35 l 1
 46 33 l 1
49 33 m 1
 47 33 l 1
 47 35 l 1
 49 35 l 1
 49 33 l 1
49 37 m 1
 47 37 l 1
 47 39 l 1
 49 39 l 1
 49 37 l 1
55 33 m 1
 53 33 l 1
 53 35 l 1
 55 35 l 1
 55 33 l 1
55 37 m 1
 53 37 l 1
 53 39 l 1
 55 39 l 1
 55 37 l 1
58 25 m 1
 56 25 l 1
 56 27 l 1
 57 27 l 1
 57 26 l 1
 58 26 l 1
 58 25 l 1
60 25 m 1
 59 25 l 1
 59 26 l 1
 58 26 l 1
 58 27 l 1
 60 27 l 1
 60 25 l 1
63 25 m 1
 61 25 l 1
 61 27 l 1
 63 27 l 1
 63 25 l 1
63 29 m 1
 61 29 l 1
 61 31 l 1
 63 31 l 1
 63 29 l 1
63 33 m 1
 61 33 l 1
 61 35 l 1
 63 35 l 1
 63 33 l 1
63 37 m 1
 61 37 l 1
 61 39 l 1
 63 39 l 1
 63 37 l 1
17 41 m 1
 15 41 l 1
 15 43 l 1
 17 43 l 1
 17 41 l 1
23 41 m 1
 21 41 l 1
 21 43 l 1
 23 43 l 1
 23 41 l 1
26 41 m 1
 24 41 l 1
 24 43 l 1
 25 43 l 1
 25 42 l 1
 26 42 l 1
 26 41 l 1
28 41 m 1
 27 41 l 1
 27 42 l 1
 26 42 l 1
 26 43 l 1
 28 43 l 1
 28 41 l 1
31 41 m 1
 29 41 l 1
 29 43 l 1
 31 43 l 1
 31 41 l 1
41 41 m 1
 39 41 l 1
 39 43 l 1
 41 43 l 1
 41 41 l 1
44 41 m 1
 42 41 l 1
 42 43 l 1
 43 43 l 1
 43 42 l 1
 44 42 l 1
 44 41 l 1
46 41 m 1
 45 41 l 1
 45 42 l 1
 44 42 l 1
 44 43 l 1
 46 43 l 1
 46 41 l 1
49 41 m 1
 47 41 l 1
 47 43 l 1
 49 43 l 1
 49 41 l 1
55 41 m 1
 53 41 l 1
 53 43 l 1
 55 43 l 1
 55 41 l 1
58 41 m 1
 56 41 l 1
 56 43 l 1
 57 43 l 1
 57 42 l 1
 58 42 l 1
 58 41 l 1
60 41 m 1
 59 41 l 1
 59 42 l 1
 58 42 l 1
 58 43 l 1
 60 43 l 1
 60 41 l 1
63 41 m 1
 61 41 l 1
 61 43 l 1
 63 43 l 1
 63 41 l 1
EndSplineSet
Ligature2: "'liga' Standard Ligatures in Latin lookup 0-1" three zero zero zero six
LCarets2: 1 0
EndChar

StartChar: custom_3_0_0_0_7
Encoding: 9263 -1 9018
Width: 70
Flags: H
LayerCount: 2
Fore
SplineSet
17 25 m 1
 15 25 l 1
 15 27 l 1
 17 27 l 1
 17 25 l 1
17 29 m 1
 15 29 l 1
 15 31 l 1
 17 31 l 1
 17 29 l 1
23 25 m 1
 21 25 l 1
 21 27 l 1
 23 27 l 1
 23 25 l 1
17 33 m 1
 15 33 l 1
 15 35 l 1
 17 35 l 1
 17 33 l 1
17 37 m 1
 15 37 l 1
 15 39 l 1
 17 39 l 1
 17 37 l 1
23 33 m 1
 21 33 l 1
 21 35 l 1
 23 35 l 1
 23 33 l 1
23 37 m 1
 21 37 l 1
 21 39 l 1
 23 39 l 1
 23 37 l 1
26 25 m 1
 24 25 l 1
 24 27 l 1
 25 27 l 1
 25 26 l 1
 26 26 l 1
 26 25 l 1
28 25 m 1
 27 25 l 1
 27 26 l 1
 26 26 l 1
 26 27 l 1
 28 27 l 1
 28 25 l 1
31 25 m 1
 29 25 l 1
 29 27 l 1
 31 27 l 1
 31 25 l 1
31 29 m 1
 29 29 l 1
 29 31 l 1
 31 31 l 1
 31 29 l 1
41 25 m 1
 39 25 l 1
 39 27 l 1
 41 27 l 1
 41 25 l 1
25 33 m 1
 24 33 l 1
 24 35 l 1
 26 35 l 1
 26 34 l 1
 25 34 l 1
 25 33 l 1
28 33 m 1
 26 33 l 1
 26 34 l 1
 27 34 l 1
 27 35 l 1
 28 35 l 1
 28 33 l 1
31 33 m 1
 29 33 l 1
 29 35 l 1
 31 35 l 1
 31 33 l 1
36 31 m 1
 34 31 l 1
 34 33 l 1
 36 33 l 1
 36 31 l 1
41 33 m 1
 39 33 l 1
 39 35 l 1
 41 35 l 1
 41 33 l 1
36 35 m 1
 34 35 l 1
 34 37 l 1
 36 37 l 1
 36 35 l 1
44 25 m 1
 42 25 l 1
 42 27 l 1
 43 27 l 1
 43 26 l 1
 44 26 l 1
 44 25 l 1
46 25 m 1
 45 25 l 1
 45 26 l 1
 44 26 l 1
 44 27 l 1
 46 27 l 1
 46 25 l 1
49 25 m 1
 47 25 l 1
 47 27 l 1
 49 27 l 1
 49 25 l 1
49 29 m 1
 47 29 l 1
 47 31 l 1
 49 31 l 1
 49 29 l 1
55 25 m 1
 53 25 l 1
 53 27 l 1
 55 27 l 1
 55 25 l 1
55 29 m 1
 53 29 l 1
 53 31 l 1
 55 31 l 1
 55 29 l 1
43 33 m 1
 42 33 l 1
 42 35 l 1
 44 35 l 1
 44 34 l 1
 43 34 l 1
 43 33 l 1
46 33 m 1
 44 33 l 1
 44 34 l 1
 45 34 l 1
 45 35 l 1
 46 35 l 1
 46 33 l 1
49 33 m 1
 47 33 l 1
 47 35 l 1
 49 35 l 1
 49 33 l 1
49 37 m 1
 47 37 l 1
 47 39 l 1
 49 39 l 1
 49 37 l 1
55 33 m 1
 53 33 l 1
 53 35 l 1
 55 35 l 1
 55 33 l 1
55 37 m 1
 53 37 l 1
 53 39 l 1
 55 39 l 1
 55 37 l 1
58 25 m 1
 56 25 l 1
 56 27 l 1
 57 27 l 1
 57 26 l 1
 58 26 l 1
 58 25 l 1
60 25 m 1
 59 25 l 1
 59 26 l 1
 58 26 l 1
 58 27 l 1
 60 27 l 1
 60 25 l 1
63 25 m 1
 61 25 l 1
 61 27 l 1
 63 27 l 1
 63 25 l 1
63 29 m 1
 61 29 l 1
 61 31 l 1
 63 31 l 1
 63 29 l 1
63 33 m 1
 61 33 l 1
 61 35 l 1
 63 35 l 1
 63 33 l 1
63 37 m 1
 61 37 l 1
 61 39 l 1
 63 39 l 1
 63 37 l 1
17 41 m 1
 15 41 l 1
 15 43 l 1
 17 43 l 1
 17 41 l 1
23 41 m 1
 21 41 l 1
 21 43 l 1
 23 43 l 1
 23 41 l 1
26 41 m 1
 24 41 l 1
 24 43 l 1
 25 43 l 1
 25 42 l 1
 26 42 l 1
 26 41 l 1
28 41 m 1
 27 41 l 1
 27 42 l 1
 26 42 l 1
 26 43 l 1
 28 43 l 1
 28 41 l 1
31 41 m 1
 29 41 l 1
 29 43 l 1
 31 43 l 1
 31 41 l 1
41 41 m 1
 39 41 l 1
 39 43 l 1
 41 43 l 1
 41 41 l 1
44 41 m 1
 42 41 l 1
 42 43 l 1
 43 43 l 1
 43 42 l 1
 44 42 l 1
 44 41 l 1
46 41 m 1
 45 41 l 1
 45 42 l 1
 44 42 l 1
 44 43 l 1
 46 43 l 1
 46 41 l 1
49 41 m 1
 47 41 l 1
 47 43 l 1
 49 43 l 1
 49 41 l 1
55 41 m 1
 53 41 l 1
 53 43 l 1
 55 43 l 1
 55 41 l 1
58 41 m 1
 56 41 l 1
 56 43 l 1
 57 43 l 1
 57 42 l 1
 58 42 l 1
 58 41 l 1
60 41 m 1
 59 41 l 1
 59 42 l 1
 58 42 l 1
 58 43 l 1
 60 43 l 1
 60 41 l 1
63 41 m 1
 61 41 l 1
 61 43 l 1
 63 43 l 1
 63 41 l 1
EndSplineSet
Ligature2: "'liga' Standard Ligatures in Latin lookup 0-1" three zero zero zero seven
LCarets2: 1 0
EndChar

StartChar: custom_3_0_0_0_8
Encoding: 9264 -1 9019
Width: 70
Flags: H
LayerCount: 2
Fore
SplineSet
17 25 m 1
 15 25 l 1
 15 27 l 1
 17 27 l 1
 17 25 l 1
17 29 m 1
 15 29 l 1
 15 31 l 1
 17 31 l 1
 17 29 l 1
23 25 m 1
 21 25 l 1
 21 27 l 1
 23 27 l 1
 23 25 l 1
17 33 m 1
 15 33 l 1
 15 35 l 1
 17 35 l 1
 17 33 l 1
17 37 m 1
 15 37 l 1
 15 39 l 1
 17 39 l 1
 17 37 l 1
23 33 m 1
 21 33 l 1
 21 35 l 1
 23 35 l 1
 23 33 l 1
23 37 m 1
 21 37 l 1
 21 39 l 1
 23 39 l 1
 23 37 l 1
26 25 m 1
 24 25 l 1
 24 27 l 1
 25 27 l 1
 25 26 l 1
 26 26 l 1
 26 25 l 1
28 25 m 1
 27 25 l 1
 27 26 l 1
 26 26 l 1
 26 27 l 1
 28 27 l 1
 28 25 l 1
31 25 m 1
 29 25 l 1
 29 27 l 1
 31 27 l 1
 31 25 l 1
31 29 m 1
 29 29 l 1
 29 31 l 1
 31 31 l 1
 31 29 l 1
41 25 m 1
 39 25 l 1
 39 27 l 1
 41 27 l 1
 41 25 l 1
25 33 m 1
 24 33 l 1
 24 35 l 1
 26 35 l 1
 26 34 l 1
 25 34 l 1
 25 33 l 1
28 33 m 1
 26 33 l 1
 26 34 l 1
 27 34 l 1
 27 35 l 1
 28 35 l 1
 28 33 l 1
31 33 m 1
 29 33 l 1
 29 35 l 1
 31 35 l 1
 31 33 l 1
36 31 m 1
 34 31 l 1
 34 33 l 1
 36 33 l 1
 36 31 l 1
41 33 m 1
 39 33 l 1
 39 35 l 1
 41 35 l 1
 41 33 l 1
36 35 m 1
 34 35 l 1
 34 37 l 1
 36 37 l 1
 36 35 l 1
44 25 m 1
 42 25 l 1
 42 27 l 1
 43 27 l 1
 43 26 l 1
 44 26 l 1
 44 25 l 1
46 25 m 1
 45 25 l 1
 45 26 l 1
 44 26 l 1
 44 27 l 1
 46 27 l 1
 46 25 l 1
49 25 m 1
 47 25 l 1
 47 27 l 1
 49 27 l 1
 49 25 l 1
49 29 m 1
 47 29 l 1
 47 31 l 1
 49 31 l 1
 49 29 l 1
55 25 m 1
 53 25 l 1
 53 27 l 1
 55 27 l 1
 55 25 l 1
55 29 m 1
 53 29 l 1
 53 31 l 1
 55 31 l 1
 55 29 l 1
43 33 m 1
 42 33 l 1
 42 35 l 1
 44 35 l 1
 44 34 l 1
 43 34 l 1
 43 33 l 1
46 33 m 1
 44 33 l 1
 44 34 l 1
 45 34 l 1
 45 35 l 1
 46 35 l 1
 46 33 l 1
49 33 m 1
 47 33 l 1
 47 35 l 1
 49 35 l 1
 49 33 l 1
49 37 m 1
 47 37 l 1
 47 39 l 1
 49 39 l 1
 49 37 l 1
55 33 m 1
 53 33 l 1
 53 35 l 1
 55 35 l 1
 55 33 l 1
55 37 m 1
 53 37 l 1
 53 39 l 1
 55 39 l 1
 55 37 l 1
58 25 m 1
 56 25 l 1
 56 27 l 1
 57 27 l 1
 57 26 l 1
 58 26 l 1
 58 25 l 1
60 25 m 1
 59 25 l 1
 59 26 l 1
 58 26 l 1
 58 27 l 1
 60 27 l 1
 60 25 l 1
63 25 m 1
 61 25 l 1
 61 27 l 1
 63 27 l 1
 63 25 l 1
63 29 m 1
 61 29 l 1
 61 31 l 1
 63 31 l 1
 63 29 l 1
63 33 m 1
 61 33 l 1
 61 35 l 1
 63 35 l 1
 63 33 l 1
63 37 m 1
 61 37 l 1
 61 39 l 1
 63 39 l 1
 63 37 l 1
17 41 m 1
 15 41 l 1
 15 43 l 1
 17 43 l 1
 17 41 l 1
23 41 m 1
 21 41 l 1
 21 43 l 1
 23 43 l 1
 23 41 l 1
26 41 m 1
 24 41 l 1
 24 43 l 1
 25 43 l 1
 25 42 l 1
 26 42 l 1
 26 41 l 1
28 41 m 1
 27 41 l 1
 27 42 l 1
 26 42 l 1
 26 43 l 1
 28 43 l 1
 28 41 l 1
31 41 m 1
 29 41 l 1
 29 43 l 1
 31 43 l 1
 31 41 l 1
41 41 m 1
 39 41 l 1
 39 43 l 1
 41 43 l 1
 41 41 l 1
44 41 m 1
 42 41 l 1
 42 43 l 1
 43 43 l 1
 43 42 l 1
 44 42 l 1
 44 41 l 1
46 41 m 1
 45 41 l 1
 45 42 l 1
 44 42 l 1
 44 43 l 1
 46 43 l 1
 46 41 l 1
49 41 m 1
 47 41 l 1
 47 43 l 1
 49 43 l 1
 49 41 l 1
55 41 m 1
 53 41 l 1
 53 43 l 1
 55 43 l 1
 55 41 l 1
58 41 m 1
 56 41 l 1
 56 43 l 1
 57 43 l 1
 57 42 l 1
 58 42 l 1
 58 41 l 1
60 41 m 1
 59 41 l 1
 59 42 l 1
 58 42 l 1
 58 43 l 1
 60 43 l 1
 60 41 l 1
63 41 m 1
 61 41 l 1
 61 43 l 1
 63 43 l 1
 63 41 l 1
EndSplineSet
Ligature2: "'liga' Standard Ligatures in Latin lookup 0-1" three zero zero zero eight
LCarets2: 1 0
EndChar

StartChar: custom_3_0_0_0_9
Encoding: 9265 -1 9020
Width: 70
Flags: H
LayerCount: 2
Fore
SplineSet
17 25 m 1
 15 25 l 1
 15 27 l 1
 17 27 l 1
 17 25 l 1
17 29 m 1
 15 29 l 1
 15 31 l 1
 17 31 l 1
 17 29 l 1
23 25 m 1
 21 25 l 1
 21 27 l 1
 23 27 l 1
 23 25 l 1
17 33 m 1
 15 33 l 1
 15 35 l 1
 17 35 l 1
 17 33 l 1
17 37 m 1
 15 37 l 1
 15 39 l 1
 17 39 l 1
 17 37 l 1
23 33 m 1
 21 33 l 1
 21 35 l 1
 23 35 l 1
 23 33 l 1
23 37 m 1
 21 37 l 1
 21 39 l 1
 23 39 l 1
 23 37 l 1
26 25 m 1
 24 25 l 1
 24 27 l 1
 25 27 l 1
 25 26 l 1
 26 26 l 1
 26 25 l 1
28 25 m 1
 27 25 l 1
 27 26 l 1
 26 26 l 1
 26 27 l 1
 28 27 l 1
 28 25 l 1
31 25 m 1
 29 25 l 1
 29 27 l 1
 31 27 l 1
 31 25 l 1
31 29 m 1
 29 29 l 1
 29 31 l 1
 31 31 l 1
 31 29 l 1
41 25 m 1
 39 25 l 1
 39 27 l 1
 41 27 l 1
 41 25 l 1
25 33 m 1
 24 33 l 1
 24 35 l 1
 26 35 l 1
 26 34 l 1
 25 34 l 1
 25 33 l 1
28 33 m 1
 26 33 l 1
 26 34 l 1
 27 34 l 1
 27 35 l 1
 28 35 l 1
 28 33 l 1
31 33 m 1
 29 33 l 1
 29 35 l 1
 31 35 l 1
 31 33 l 1
36 31 m 1
 34 31 l 1
 34 33 l 1
 36 33 l 1
 36 31 l 1
41 33 m 1
 39 33 l 1
 39 35 l 1
 41 35 l 1
 41 33 l 1
36 35 m 1
 34 35 l 1
 34 37 l 1
 36 37 l 1
 36 35 l 1
44 25 m 1
 42 25 l 1
 42 27 l 1
 43 27 l 1
 43 26 l 1
 44 26 l 1
 44 25 l 1
46 25 m 1
 45 25 l 1
 45 26 l 1
 44 26 l 1
 44 27 l 1
 46 27 l 1
 46 25 l 1
49 25 m 1
 47 25 l 1
 47 27 l 1
 49 27 l 1
 49 25 l 1
49 29 m 1
 47 29 l 1
 47 31 l 1
 49 31 l 1
 49 29 l 1
55 25 m 1
 53 25 l 1
 53 27 l 1
 55 27 l 1
 55 25 l 1
55 29 m 1
 53 29 l 1
 53 31 l 1
 55 31 l 1
 55 29 l 1
43 33 m 1
 42 33 l 1
 42 35 l 1
 44 35 l 1
 44 34 l 1
 43 34 l 1
 43 33 l 1
46 33 m 1
 44 33 l 1
 44 34 l 1
 45 34 l 1
 45 35 l 1
 46 35 l 1
 46 33 l 1
49 33 m 1
 47 33 l 1
 47 35 l 1
 49 35 l 1
 49 33 l 1
49 37 m 1
 47 37 l 1
 47 39 l 1
 49 39 l 1
 49 37 l 1
55 33 m 1
 53 33 l 1
 53 35 l 1
 55 35 l 1
 55 33 l 1
55 37 m 1
 53 37 l 1
 53 39 l 1
 55 39 l 1
 55 37 l 1
58 25 m 1
 56 25 l 1
 56 27 l 1
 57 27 l 1
 57 26 l 1
 58 26 l 1
 58 25 l 1
60 25 m 1
 59 25 l 1
 59 26 l 1
 58 26 l 1
 58 27 l 1
 60 27 l 1
 60 25 l 1
63 25 m 1
 61 25 l 1
 61 27 l 1
 63 27 l 1
 63 25 l 1
63 29 m 1
 61 29 l 1
 61 31 l 1
 63 31 l 1
 63 29 l 1
63 33 m 1
 61 33 l 1
 61 35 l 1
 63 35 l 1
 63 33 l 1
63 37 m 1
 61 37 l 1
 61 39 l 1
 63 39 l 1
 63 37 l 1
17 41 m 1
 15 41 l 1
 15 43 l 1
 17 43 l 1
 17 41 l 1
23 41 m 1
 21 41 l 1
 21 43 l 1
 23 43 l 1
 23 41 l 1
26 41 m 1
 24 41 l 1
 24 43 l 1
 25 43 l 1
 25 42 l 1
 26 42 l 1
 26 41 l 1
28 41 m 1
 27 41 l 1
 27 42 l 1
 26 42 l 1
 26 43 l 1
 28 43 l 1
 28 41 l 1
31 41 m 1
 29 41 l 1
 29 43 l 1
 31 43 l 1
 31 41 l 1
41 41 m 1
 39 41 l 1
 39 43 l 1
 41 43 l 1
 41 41 l 1
44 41 m 1
 42 41 l 1
 42 43 l 1
 43 43 l 1
 43 42 l 1
 44 42 l 1
 44 41 l 1
46 41 m 1
 45 41 l 1
 45 42 l 1
 44 42 l 1
 44 43 l 1
 46 43 l 1
 46 41 l 1
49 41 m 1
 47 41 l 1
 47 43 l 1
 49 43 l 1
 49 41 l 1
55 41 m 1
 53 41 l 1
 53 43 l 1
 55 43 l 1
 55 41 l 1
58 41 m 1
 56 41 l 1
 56 43 l 1
 57 43 l 1
 57 42 l 1
 58 42 l 1
 58 41 l 1
60 41 m 1
 59 41 l 1
 59 42 l 1
 58 42 l 1
 58 43 l 1
 60 43 l 1
 60 41 l 1
63 41 m 1
 61 41 l 1
 61 43 l 1
 63 43 l 1
 63 41 l 1
EndSplineSet
Ligature2: "'liga' Standard Ligatures in Latin lookup 0-1" three zero zero zero nine
LCarets2: 1 0
EndChar

StartChar: custom_3_0_0_1_0
Encoding: 9266 -1 9021
Width: 70
Flags: H
LayerCount: 2
Fore
SplineSet
17 25 m 1
 15 25 l 1
 15 27 l 1
 17 27 l 1
 17 25 l 1
17 29 m 1
 15 29 l 1
 15 31 l 1
 17 31 l 1
 17 29 l 1
23 25 m 1
 21 25 l 1
 21 27 l 1
 23 27 l 1
 23 25 l 1
17 33 m 1
 15 33 l 1
 15 35 l 1
 17 35 l 1
 17 33 l 1
17 37 m 1
 15 37 l 1
 15 39 l 1
 17 39 l 1
 17 37 l 1
23 33 m 1
 21 33 l 1
 21 35 l 1
 23 35 l 1
 23 33 l 1
23 37 m 1
 21 37 l 1
 21 39 l 1
 23 39 l 1
 23 37 l 1
26 25 m 1
 24 25 l 1
 24 27 l 1
 25 27 l 1
 25 26 l 1
 26 26 l 1
 26 25 l 1
28 25 m 1
 27 25 l 1
 27 26 l 1
 26 26 l 1
 26 27 l 1
 28 27 l 1
 28 25 l 1
31 25 m 1
 29 25 l 1
 29 27 l 1
 31 27 l 1
 31 25 l 1
31 29 m 1
 29 29 l 1
 29 31 l 1
 31 31 l 1
 31 29 l 1
41 25 m 1
 39 25 l 1
 39 27 l 1
 41 27 l 1
 41 25 l 1
25 33 m 1
 24 33 l 1
 24 35 l 1
 26 35 l 1
 26 34 l 1
 25 34 l 1
 25 33 l 1
28 33 m 1
 26 33 l 1
 26 34 l 1
 27 34 l 1
 27 35 l 1
 28 35 l 1
 28 33 l 1
31 33 m 1
 29 33 l 1
 29 35 l 1
 31 35 l 1
 31 33 l 1
36 31 m 1
 34 31 l 1
 34 33 l 1
 36 33 l 1
 36 31 l 1
41 33 m 1
 39 33 l 1
 39 35 l 1
 41 35 l 1
 41 33 l 1
36 35 m 1
 34 35 l 1
 34 37 l 1
 36 37 l 1
 36 35 l 1
44 25 m 1
 42 25 l 1
 42 27 l 1
 43 27 l 1
 43 26 l 1
 44 26 l 1
 44 25 l 1
46 25 m 1
 45 25 l 1
 45 26 l 1
 44 26 l 1
 44 27 l 1
 46 27 l 1
 46 25 l 1
49 25 m 1
 47 25 l 1
 47 27 l 1
 49 27 l 1
 49 25 l 1
49 29 m 1
 47 29 l 1
 47 31 l 1
 49 31 l 1
 49 29 l 1
55 25 m 1
 53 25 l 1
 53 27 l 1
 55 27 l 1
 55 25 l 1
55 29 m 1
 53 29 l 1
 53 31 l 1
 55 31 l 1
 55 29 l 1
43 33 m 1
 42 33 l 1
 42 35 l 1
 44 35 l 1
 44 34 l 1
 43 34 l 1
 43 33 l 1
46 33 m 1
 44 33 l 1
 44 34 l 1
 45 34 l 1
 45 35 l 1
 46 35 l 1
 46 33 l 1
49 33 m 1
 47 33 l 1
 47 35 l 1
 49 35 l 1
 49 33 l 1
49 37 m 1
 47 37 l 1
 47 39 l 1
 49 39 l 1
 49 37 l 1
55 33 m 1
 53 33 l 1
 53 35 l 1
 55 35 l 1
 55 33 l 1
55 37 m 1
 53 37 l 1
 53 39 l 1
 55 39 l 1
 55 37 l 1
58 25 m 1
 56 25 l 1
 56 27 l 1
 57 27 l 1
 57 26 l 1
 58 26 l 1
 58 25 l 1
60 25 m 1
 59 25 l 1
 59 26 l 1
 58 26 l 1
 58 27 l 1
 60 27 l 1
 60 25 l 1
63 25 m 1
 61 25 l 1
 61 27 l 1
 63 27 l 1
 63 25 l 1
63 29 m 1
 61 29 l 1
 61 31 l 1
 63 31 l 1
 63 29 l 1
63 33 m 1
 61 33 l 1
 61 35 l 1
 63 35 l 1
 63 33 l 1
63 37 m 1
 61 37 l 1
 61 39 l 1
 63 39 l 1
 63 37 l 1
17 41 m 1
 15 41 l 1
 15 43 l 1
 17 43 l 1
 17 41 l 1
23 41 m 1
 21 41 l 1
 21 43 l 1
 23 43 l 1
 23 41 l 1
26 41 m 1
 24 41 l 1
 24 43 l 1
 25 43 l 1
 25 42 l 1
 26 42 l 1
 26 41 l 1
28 41 m 1
 27 41 l 1
 27 42 l 1
 26 42 l 1
 26 43 l 1
 28 43 l 1
 28 41 l 1
31 41 m 1
 29 41 l 1
 29 43 l 1
 31 43 l 1
 31 41 l 1
41 41 m 1
 39 41 l 1
 39 43 l 1
 41 43 l 1
 41 41 l 1
44 41 m 1
 42 41 l 1
 42 43 l 1
 43 43 l 1
 43 42 l 1
 44 42 l 1
 44 41 l 1
46 41 m 1
 45 41 l 1
 45 42 l 1
 44 42 l 1
 44 43 l 1
 46 43 l 1
 46 41 l 1
49 41 m 1
 47 41 l 1
 47 43 l 1
 49 43 l 1
 49 41 l 1
55 41 m 1
 53 41 l 1
 53 43 l 1
 55 43 l 1
 55 41 l 1
58 41 m 1
 56 41 l 1
 56 43 l 1
 57 43 l 1
 57 42 l 1
 58 42 l 1
 58 41 l 1
60 41 m 1
 59 41 l 1
 59 42 l 1
 58 42 l 1
 58 43 l 1
 60 43 l 1
 60 41 l 1
63 41 m 1
 61 41 l 1
 61 43 l 1
 63 43 l 1
 63 41 l 1
EndSplineSet
Ligature2: "'liga' Standard Ligatures in Latin lookup 0-1" three zero zero one zero
LCarets2: 1 0
EndChar

StartChar: custom_3_0_0_1_1
Encoding: 9267 -1 9022
Width: 70
Flags: H
LayerCount: 2
Fore
SplineSet
17 25 m 1
 15 25 l 1
 15 27 l 1
 17 27 l 1
 17 25 l 1
17 29 m 1
 15 29 l 1
 15 31 l 1
 17 31 l 1
 17 29 l 1
23 25 m 1
 21 25 l 1
 21 27 l 1
 23 27 l 1
 23 25 l 1
17 33 m 1
 15 33 l 1
 15 35 l 1
 17 35 l 1
 17 33 l 1
17 37 m 1
 15 37 l 1
 15 39 l 1
 17 39 l 1
 17 37 l 1
23 33 m 1
 21 33 l 1
 21 35 l 1
 23 35 l 1
 23 33 l 1
23 37 m 1
 21 37 l 1
 21 39 l 1
 23 39 l 1
 23 37 l 1
26 25 m 1
 24 25 l 1
 24 27 l 1
 25 27 l 1
 25 26 l 1
 26 26 l 1
 26 25 l 1
28 25 m 1
 27 25 l 1
 27 26 l 1
 26 26 l 1
 26 27 l 1
 28 27 l 1
 28 25 l 1
31 25 m 1
 29 25 l 1
 29 27 l 1
 31 27 l 1
 31 25 l 1
31 29 m 1
 29 29 l 1
 29 31 l 1
 31 31 l 1
 31 29 l 1
41 25 m 1
 39 25 l 1
 39 27 l 1
 41 27 l 1
 41 25 l 1
25 33 m 1
 24 33 l 1
 24 35 l 1
 26 35 l 1
 26 34 l 1
 25 34 l 1
 25 33 l 1
28 33 m 1
 26 33 l 1
 26 34 l 1
 27 34 l 1
 27 35 l 1
 28 35 l 1
 28 33 l 1
31 33 m 1
 29 33 l 1
 29 35 l 1
 31 35 l 1
 31 33 l 1
36 31 m 1
 34 31 l 1
 34 33 l 1
 36 33 l 1
 36 31 l 1
41 33 m 1
 39 33 l 1
 39 35 l 1
 41 35 l 1
 41 33 l 1
36 35 m 1
 34 35 l 1
 34 37 l 1
 36 37 l 1
 36 35 l 1
44 25 m 1
 42 25 l 1
 42 27 l 1
 43 27 l 1
 43 26 l 1
 44 26 l 1
 44 25 l 1
46 25 m 1
 45 25 l 1
 45 26 l 1
 44 26 l 1
 44 27 l 1
 46 27 l 1
 46 25 l 1
49 25 m 1
 47 25 l 1
 47 27 l 1
 49 27 l 1
 49 25 l 1
49 29 m 1
 47 29 l 1
 47 31 l 1
 49 31 l 1
 49 29 l 1
55 25 m 1
 53 25 l 1
 53 27 l 1
 55 27 l 1
 55 25 l 1
55 29 m 1
 53 29 l 1
 53 31 l 1
 55 31 l 1
 55 29 l 1
43 33 m 1
 42 33 l 1
 42 35 l 1
 44 35 l 1
 44 34 l 1
 43 34 l 1
 43 33 l 1
46 33 m 1
 44 33 l 1
 44 34 l 1
 45 34 l 1
 45 35 l 1
 46 35 l 1
 46 33 l 1
49 33 m 1
 47 33 l 1
 47 35 l 1
 49 35 l 1
 49 33 l 1
49 37 m 1
 47 37 l 1
 47 39 l 1
 49 39 l 1
 49 37 l 1
55 33 m 1
 53 33 l 1
 53 35 l 1
 55 35 l 1
 55 33 l 1
55 37 m 1
 53 37 l 1
 53 39 l 1
 55 39 l 1
 55 37 l 1
58 25 m 1
 56 25 l 1
 56 27 l 1
 57 27 l 1
 57 26 l 1
 58 26 l 1
 58 25 l 1
60 25 m 1
 59 25 l 1
 59 26 l 1
 58 26 l 1
 58 27 l 1
 60 27 l 1
 60 25 l 1
63 25 m 1
 61 25 l 1
 61 27 l 1
 63 27 l 1
 63 25 l 1
63 29 m 1
 61 29 l 1
 61 31 l 1
 63 31 l 1
 63 29 l 1
63 33 m 1
 61 33 l 1
 61 35 l 1
 63 35 l 1
 63 33 l 1
63 37 m 1
 61 37 l 1
 61 39 l 1
 63 39 l 1
 63 37 l 1
17 41 m 1
 15 41 l 1
 15 43 l 1
 17 43 l 1
 17 41 l 1
23 41 m 1
 21 41 l 1
 21 43 l 1
 23 43 l 1
 23 41 l 1
26 41 m 1
 24 41 l 1
 24 43 l 1
 25 43 l 1
 25 42 l 1
 26 42 l 1
 26 41 l 1
28 41 m 1
 27 41 l 1
 27 42 l 1
 26 42 l 1
 26 43 l 1
 28 43 l 1
 28 41 l 1
31 41 m 1
 29 41 l 1
 29 43 l 1
 31 43 l 1
 31 41 l 1
41 41 m 1
 39 41 l 1
 39 43 l 1
 41 43 l 1
 41 41 l 1
44 41 m 1
 42 41 l 1
 42 43 l 1
 43 43 l 1
 43 42 l 1
 44 42 l 1
 44 41 l 1
46 41 m 1
 45 41 l 1
 45 42 l 1
 44 42 l 1
 44 43 l 1
 46 43 l 1
 46 41 l 1
49 41 m 1
 47 41 l 1
 47 43 l 1
 49 43 l 1
 49 41 l 1
55 41 m 1
 53 41 l 1
 53 43 l 1
 55 43 l 1
 55 41 l 1
58 41 m 1
 56 41 l 1
 56 43 l 1
 57 43 l 1
 57 42 l 1
 58 42 l 1
 58 41 l 1
60 41 m 1
 59 41 l 1
 59 42 l 1
 58 42 l 1
 58 43 l 1
 60 43 l 1
 60 41 l 1
63 41 m 1
 61 41 l 1
 61 43 l 1
 63 43 l 1
 63 41 l 1
EndSplineSet
Ligature2: "'liga' Standard Ligatures in Latin lookup 0-1" three zero zero one one
LCarets2: 1 0
EndChar

StartChar: custom_3_0_0_1_2
Encoding: 9268 -1 9023
Width: 70
Flags: H
LayerCount: 2
Fore
SplineSet
17 25 m 1
 15 25 l 1
 15 27 l 1
 17 27 l 1
 17 25 l 1
17 29 m 1
 15 29 l 1
 15 31 l 1
 17 31 l 1
 17 29 l 1
23 25 m 1
 21 25 l 1
 21 27 l 1
 23 27 l 1
 23 25 l 1
17 33 m 1
 15 33 l 1
 15 35 l 1
 17 35 l 1
 17 33 l 1
17 37 m 1
 15 37 l 1
 15 39 l 1
 17 39 l 1
 17 37 l 1
23 33 m 1
 21 33 l 1
 21 35 l 1
 23 35 l 1
 23 33 l 1
23 37 m 1
 21 37 l 1
 21 39 l 1
 23 39 l 1
 23 37 l 1
26 25 m 1
 24 25 l 1
 24 27 l 1
 25 27 l 1
 25 26 l 1
 26 26 l 1
 26 25 l 1
28 25 m 1
 27 25 l 1
 27 26 l 1
 26 26 l 1
 26 27 l 1
 28 27 l 1
 28 25 l 1
31 25 m 1
 29 25 l 1
 29 27 l 1
 31 27 l 1
 31 25 l 1
31 29 m 1
 29 29 l 1
 29 31 l 1
 31 31 l 1
 31 29 l 1
41 25 m 1
 39 25 l 1
 39 27 l 1
 41 27 l 1
 41 25 l 1
25 33 m 1
 24 33 l 1
 24 35 l 1
 26 35 l 1
 26 34 l 1
 25 34 l 1
 25 33 l 1
28 33 m 1
 26 33 l 1
 26 34 l 1
 27 34 l 1
 27 35 l 1
 28 35 l 1
 28 33 l 1
31 33 m 1
 29 33 l 1
 29 35 l 1
 31 35 l 1
 31 33 l 1
36 31 m 1
 34 31 l 1
 34 33 l 1
 36 33 l 1
 36 31 l 1
41 33 m 1
 39 33 l 1
 39 35 l 1
 41 35 l 1
 41 33 l 1
36 35 m 1
 34 35 l 1
 34 37 l 1
 36 37 l 1
 36 35 l 1
44 25 m 1
 42 25 l 1
 42 27 l 1
 43 27 l 1
 43 26 l 1
 44 26 l 1
 44 25 l 1
46 25 m 1
 45 25 l 1
 45 26 l 1
 44 26 l 1
 44 27 l 1
 46 27 l 1
 46 25 l 1
49 25 m 1
 47 25 l 1
 47 27 l 1
 49 27 l 1
 49 25 l 1
49 29 m 1
 47 29 l 1
 47 31 l 1
 49 31 l 1
 49 29 l 1
55 25 m 1
 53 25 l 1
 53 27 l 1
 55 27 l 1
 55 25 l 1
55 29 m 1
 53 29 l 1
 53 31 l 1
 55 31 l 1
 55 29 l 1
43 33 m 1
 42 33 l 1
 42 35 l 1
 44 35 l 1
 44 34 l 1
 43 34 l 1
 43 33 l 1
46 33 m 1
 44 33 l 1
 44 34 l 1
 45 34 l 1
 45 35 l 1
 46 35 l 1
 46 33 l 1
49 33 m 1
 47 33 l 1
 47 35 l 1
 49 35 l 1
 49 33 l 1
49 37 m 1
 47 37 l 1
 47 39 l 1
 49 39 l 1
 49 37 l 1
55 33 m 1
 53 33 l 1
 53 35 l 1
 55 35 l 1
 55 33 l 1
55 37 m 1
 53 37 l 1
 53 39 l 1
 55 39 l 1
 55 37 l 1
58 25 m 1
 56 25 l 1
 56 27 l 1
 57 27 l 1
 57 26 l 1
 58 26 l 1
 58 25 l 1
60 25 m 1
 59 25 l 1
 59 26 l 1
 58 26 l 1
 58 27 l 1
 60 27 l 1
 60 25 l 1
63 25 m 1
 61 25 l 1
 61 27 l 1
 63 27 l 1
 63 25 l 1
63 29 m 1
 61 29 l 1
 61 31 l 1
 63 31 l 1
 63 29 l 1
63 33 m 1
 61 33 l 1
 61 35 l 1
 63 35 l 1
 63 33 l 1
63 37 m 1
 61 37 l 1
 61 39 l 1
 63 39 l 1
 63 37 l 1
17 41 m 1
 15 41 l 1
 15 43 l 1
 17 43 l 1
 17 41 l 1
23 41 m 1
 21 41 l 1
 21 43 l 1
 23 43 l 1
 23 41 l 1
26 41 m 1
 24 41 l 1
 24 43 l 1
 25 43 l 1
 25 42 l 1
 26 42 l 1
 26 41 l 1
28 41 m 1
 27 41 l 1
 27 42 l 1
 26 42 l 1
 26 43 l 1
 28 43 l 1
 28 41 l 1
31 41 m 1
 29 41 l 1
 29 43 l 1
 31 43 l 1
 31 41 l 1
41 41 m 1
 39 41 l 1
 39 43 l 1
 41 43 l 1
 41 41 l 1
44 41 m 1
 42 41 l 1
 42 43 l 1
 43 43 l 1
 43 42 l 1
 44 42 l 1
 44 41 l 1
46 41 m 1
 45 41 l 1
 45 42 l 1
 44 42 l 1
 44 43 l 1
 46 43 l 1
 46 41 l 1
49 41 m 1
 47 41 l 1
 47 43 l 1
 49 43 l 1
 49 41 l 1
55 41 m 1
 53 41 l 1
 53 43 l 1
 55 43 l 1
 55 41 l 1
58 41 m 1
 56 41 l 1
 56 43 l 1
 57 43 l 1
 57 42 l 1
 58 42 l 1
 58 41 l 1
60 41 m 1
 59 41 l 1
 59 42 l 1
 58 42 l 1
 58 43 l 1
 60 43 l 1
 60 41 l 1
63 41 m 1
 61 41 l 1
 61 43 l 1
 63 43 l 1
 63 41 l 1
EndSplineSet
Ligature2: "'liga' Standard Ligatures in Latin lookup 0-1" three zero zero one two
LCarets2: 1 0
EndChar

StartChar: custom_3_0_0_1_3
Encoding: 9269 -1 9024
Width: 70
Flags: H
LayerCount: 2
Fore
SplineSet
17 25 m 1
 15 25 l 1
 15 27 l 1
 17 27 l 1
 17 25 l 1
17 29 m 1
 15 29 l 1
 15 31 l 1
 17 31 l 1
 17 29 l 1
23 25 m 1
 21 25 l 1
 21 27 l 1
 23 27 l 1
 23 25 l 1
17 33 m 1
 15 33 l 1
 15 35 l 1
 17 35 l 1
 17 33 l 1
17 37 m 1
 15 37 l 1
 15 39 l 1
 17 39 l 1
 17 37 l 1
23 33 m 1
 21 33 l 1
 21 35 l 1
 23 35 l 1
 23 33 l 1
23 37 m 1
 21 37 l 1
 21 39 l 1
 23 39 l 1
 23 37 l 1
26 25 m 1
 24 25 l 1
 24 27 l 1
 25 27 l 1
 25 26 l 1
 26 26 l 1
 26 25 l 1
28 25 m 1
 27 25 l 1
 27 26 l 1
 26 26 l 1
 26 27 l 1
 28 27 l 1
 28 25 l 1
31 25 m 1
 29 25 l 1
 29 27 l 1
 31 27 l 1
 31 25 l 1
31 29 m 1
 29 29 l 1
 29 31 l 1
 31 31 l 1
 31 29 l 1
41 25 m 1
 39 25 l 1
 39 27 l 1
 41 27 l 1
 41 25 l 1
25 33 m 1
 24 33 l 1
 24 35 l 1
 26 35 l 1
 26 34 l 1
 25 34 l 1
 25 33 l 1
28 33 m 1
 26 33 l 1
 26 34 l 1
 27 34 l 1
 27 35 l 1
 28 35 l 1
 28 33 l 1
31 33 m 1
 29 33 l 1
 29 35 l 1
 31 35 l 1
 31 33 l 1
36 31 m 1
 34 31 l 1
 34 33 l 1
 36 33 l 1
 36 31 l 1
41 33 m 1
 39 33 l 1
 39 35 l 1
 41 35 l 1
 41 33 l 1
36 35 m 1
 34 35 l 1
 34 37 l 1
 36 37 l 1
 36 35 l 1
44 25 m 1
 42 25 l 1
 42 27 l 1
 43 27 l 1
 43 26 l 1
 44 26 l 1
 44 25 l 1
46 25 m 1
 45 25 l 1
 45 26 l 1
 44 26 l 1
 44 27 l 1
 46 27 l 1
 46 25 l 1
49 25 m 1
 47 25 l 1
 47 27 l 1
 49 27 l 1
 49 25 l 1
49 29 m 1
 47 29 l 1
 47 31 l 1
 49 31 l 1
 49 29 l 1
55 25 m 1
 53 25 l 1
 53 27 l 1
 55 27 l 1
 55 25 l 1
55 29 m 1
 53 29 l 1
 53 31 l 1
 55 31 l 1
 55 29 l 1
43 33 m 1
 42 33 l 1
 42 35 l 1
 44 35 l 1
 44 34 l 1
 43 34 l 1
 43 33 l 1
46 33 m 1
 44 33 l 1
 44 34 l 1
 45 34 l 1
 45 35 l 1
 46 35 l 1
 46 33 l 1
49 33 m 1
 47 33 l 1
 47 35 l 1
 49 35 l 1
 49 33 l 1
49 37 m 1
 47 37 l 1
 47 39 l 1
 49 39 l 1
 49 37 l 1
55 33 m 1
 53 33 l 1
 53 35 l 1
 55 35 l 1
 55 33 l 1
55 37 m 1
 53 37 l 1
 53 39 l 1
 55 39 l 1
 55 37 l 1
58 25 m 1
 56 25 l 1
 56 27 l 1
 57 27 l 1
 57 26 l 1
 58 26 l 1
 58 25 l 1
60 25 m 1
 59 25 l 1
 59 26 l 1
 58 26 l 1
 58 27 l 1
 60 27 l 1
 60 25 l 1
63 25 m 1
 61 25 l 1
 61 27 l 1
 63 27 l 1
 63 25 l 1
63 29 m 1
 61 29 l 1
 61 31 l 1
 63 31 l 1
 63 29 l 1
63 33 m 1
 61 33 l 1
 61 35 l 1
 63 35 l 1
 63 33 l 1
63 37 m 1
 61 37 l 1
 61 39 l 1
 63 39 l 1
 63 37 l 1
17 41 m 1
 15 41 l 1
 15 43 l 1
 17 43 l 1
 17 41 l 1
23 41 m 1
 21 41 l 1
 21 43 l 1
 23 43 l 1
 23 41 l 1
26 41 m 1
 24 41 l 1
 24 43 l 1
 25 43 l 1
 25 42 l 1
 26 42 l 1
 26 41 l 1
28 41 m 1
 27 41 l 1
 27 42 l 1
 26 42 l 1
 26 43 l 1
 28 43 l 1
 28 41 l 1
31 41 m 1
 29 41 l 1
 29 43 l 1
 31 43 l 1
 31 41 l 1
41 41 m 1
 39 41 l 1
 39 43 l 1
 41 43 l 1
 41 41 l 1
44 41 m 1
 42 41 l 1
 42 43 l 1
 43 43 l 1
 43 42 l 1
 44 42 l 1
 44 41 l 1
46 41 m 1
 45 41 l 1
 45 42 l 1
 44 42 l 1
 44 43 l 1
 46 43 l 1
 46 41 l 1
49 41 m 1
 47 41 l 1
 47 43 l 1
 49 43 l 1
 49 41 l 1
55 41 m 1
 53 41 l 1
 53 43 l 1
 55 43 l 1
 55 41 l 1
58 41 m 1
 56 41 l 1
 56 43 l 1
 57 43 l 1
 57 42 l 1
 58 42 l 1
 58 41 l 1
60 41 m 1
 59 41 l 1
 59 42 l 1
 58 42 l 1
 58 43 l 1
 60 43 l 1
 60 41 l 1
63 41 m 1
 61 41 l 1
 61 43 l 1
 63 43 l 1
 63 41 l 1
EndSplineSet
Ligature2: "'liga' Standard Ligatures in Latin lookup 0-1" three zero zero one three
LCarets2: 1 0
EndChar

StartChar: custom_3_0_0_1_4
Encoding: 9270 -1 9025
Width: 70
Flags: H
LayerCount: 2
Fore
SplineSet
17 25 m 1
 15 25 l 1
 15 27 l 1
 17 27 l 1
 17 25 l 1
17 29 m 1
 15 29 l 1
 15 31 l 1
 17 31 l 1
 17 29 l 1
23 25 m 1
 21 25 l 1
 21 27 l 1
 23 27 l 1
 23 25 l 1
17 33 m 1
 15 33 l 1
 15 35 l 1
 17 35 l 1
 17 33 l 1
17 37 m 1
 15 37 l 1
 15 39 l 1
 17 39 l 1
 17 37 l 1
23 33 m 1
 21 33 l 1
 21 35 l 1
 23 35 l 1
 23 33 l 1
23 37 m 1
 21 37 l 1
 21 39 l 1
 23 39 l 1
 23 37 l 1
26 25 m 1
 24 25 l 1
 24 27 l 1
 25 27 l 1
 25 26 l 1
 26 26 l 1
 26 25 l 1
28 25 m 1
 27 25 l 1
 27 26 l 1
 26 26 l 1
 26 27 l 1
 28 27 l 1
 28 25 l 1
31 25 m 1
 29 25 l 1
 29 27 l 1
 31 27 l 1
 31 25 l 1
31 29 m 1
 29 29 l 1
 29 31 l 1
 31 31 l 1
 31 29 l 1
41 25 m 1
 39 25 l 1
 39 27 l 1
 41 27 l 1
 41 25 l 1
25 33 m 1
 24 33 l 1
 24 35 l 1
 26 35 l 1
 26 34 l 1
 25 34 l 1
 25 33 l 1
28 33 m 1
 26 33 l 1
 26 34 l 1
 27 34 l 1
 27 35 l 1
 28 35 l 1
 28 33 l 1
31 33 m 1
 29 33 l 1
 29 35 l 1
 31 35 l 1
 31 33 l 1
36 31 m 1
 34 31 l 1
 34 33 l 1
 36 33 l 1
 36 31 l 1
41 33 m 1
 39 33 l 1
 39 35 l 1
 41 35 l 1
 41 33 l 1
36 35 m 1
 34 35 l 1
 34 37 l 1
 36 37 l 1
 36 35 l 1
44 25 m 1
 42 25 l 1
 42 27 l 1
 43 27 l 1
 43 26 l 1
 44 26 l 1
 44 25 l 1
46 25 m 1
 45 25 l 1
 45 26 l 1
 44 26 l 1
 44 27 l 1
 46 27 l 1
 46 25 l 1
49 25 m 1
 47 25 l 1
 47 27 l 1
 49 27 l 1
 49 25 l 1
49 29 m 1
 47 29 l 1
 47 31 l 1
 49 31 l 1
 49 29 l 1
55 25 m 1
 53 25 l 1
 53 27 l 1
 55 27 l 1
 55 25 l 1
55 29 m 1
 53 29 l 1
 53 31 l 1
 55 31 l 1
 55 29 l 1
43 33 m 1
 42 33 l 1
 42 35 l 1
 44 35 l 1
 44 34 l 1
 43 34 l 1
 43 33 l 1
46 33 m 1
 44 33 l 1
 44 34 l 1
 45 34 l 1
 45 35 l 1
 46 35 l 1
 46 33 l 1
49 33 m 1
 47 33 l 1
 47 35 l 1
 49 35 l 1
 49 33 l 1
49 37 m 1
 47 37 l 1
 47 39 l 1
 49 39 l 1
 49 37 l 1
55 33 m 1
 53 33 l 1
 53 35 l 1
 55 35 l 1
 55 33 l 1
55 37 m 1
 53 37 l 1
 53 39 l 1
 55 39 l 1
 55 37 l 1
58 25 m 1
 56 25 l 1
 56 27 l 1
 57 27 l 1
 57 26 l 1
 58 26 l 1
 58 25 l 1
60 25 m 1
 59 25 l 1
 59 26 l 1
 58 26 l 1
 58 27 l 1
 60 27 l 1
 60 25 l 1
63 25 m 1
 61 25 l 1
 61 27 l 1
 63 27 l 1
 63 25 l 1
63 29 m 1
 61 29 l 1
 61 31 l 1
 63 31 l 1
 63 29 l 1
63 33 m 1
 61 33 l 1
 61 35 l 1
 63 35 l 1
 63 33 l 1
63 37 m 1
 61 37 l 1
 61 39 l 1
 63 39 l 1
 63 37 l 1
17 41 m 1
 15 41 l 1
 15 43 l 1
 17 43 l 1
 17 41 l 1
23 41 m 1
 21 41 l 1
 21 43 l 1
 23 43 l 1
 23 41 l 1
26 41 m 1
 24 41 l 1
 24 43 l 1
 25 43 l 1
 25 42 l 1
 26 42 l 1
 26 41 l 1
28 41 m 1
 27 41 l 1
 27 42 l 1
 26 42 l 1
 26 43 l 1
 28 43 l 1
 28 41 l 1
31 41 m 1
 29 41 l 1
 29 43 l 1
 31 43 l 1
 31 41 l 1
41 41 m 1
 39 41 l 1
 39 43 l 1
 41 43 l 1
 41 41 l 1
44 41 m 1
 42 41 l 1
 42 43 l 1
 43 43 l 1
 43 42 l 1
 44 42 l 1
 44 41 l 1
46 41 m 1
 45 41 l 1
 45 42 l 1
 44 42 l 1
 44 43 l 1
 46 43 l 1
 46 41 l 1
49 41 m 1
 47 41 l 1
 47 43 l 1
 49 43 l 1
 49 41 l 1
55 41 m 1
 53 41 l 1
 53 43 l 1
 55 43 l 1
 55 41 l 1
58 41 m 1
 56 41 l 1
 56 43 l 1
 57 43 l 1
 57 42 l 1
 58 42 l 1
 58 41 l 1
60 41 m 1
 59 41 l 1
 59 42 l 1
 58 42 l 1
 58 43 l 1
 60 43 l 1
 60 41 l 1
63 41 m 1
 61 41 l 1
 61 43 l 1
 63 43 l 1
 63 41 l 1
EndSplineSet
Ligature2: "'liga' Standard Ligatures in Latin lookup 0-1" three zero zero one four
LCarets2: 1 0
EndChar

StartChar: custom_3_0_0_1_5
Encoding: 9271 -1 9026
Width: 70
Flags: H
LayerCount: 2
Fore
SplineSet
17 25 m 1
 15 25 l 1
 15 27 l 1
 17 27 l 1
 17 25 l 1
17 29 m 1
 15 29 l 1
 15 31 l 1
 17 31 l 1
 17 29 l 1
23 25 m 1
 21 25 l 1
 21 27 l 1
 23 27 l 1
 23 25 l 1
17 33 m 1
 15 33 l 1
 15 35 l 1
 17 35 l 1
 17 33 l 1
17 37 m 1
 15 37 l 1
 15 39 l 1
 17 39 l 1
 17 37 l 1
23 33 m 1
 21 33 l 1
 21 35 l 1
 23 35 l 1
 23 33 l 1
23 37 m 1
 21 37 l 1
 21 39 l 1
 23 39 l 1
 23 37 l 1
26 25 m 1
 24 25 l 1
 24 27 l 1
 25 27 l 1
 25 26 l 1
 26 26 l 1
 26 25 l 1
28 25 m 1
 27 25 l 1
 27 26 l 1
 26 26 l 1
 26 27 l 1
 28 27 l 1
 28 25 l 1
31 25 m 1
 29 25 l 1
 29 27 l 1
 31 27 l 1
 31 25 l 1
31 29 m 1
 29 29 l 1
 29 31 l 1
 31 31 l 1
 31 29 l 1
41 25 m 1
 39 25 l 1
 39 27 l 1
 41 27 l 1
 41 25 l 1
25 33 m 1
 24 33 l 1
 24 35 l 1
 26 35 l 1
 26 34 l 1
 25 34 l 1
 25 33 l 1
28 33 m 1
 26 33 l 1
 26 34 l 1
 27 34 l 1
 27 35 l 1
 28 35 l 1
 28 33 l 1
31 33 m 1
 29 33 l 1
 29 35 l 1
 31 35 l 1
 31 33 l 1
36 31 m 1
 34 31 l 1
 34 33 l 1
 36 33 l 1
 36 31 l 1
41 33 m 1
 39 33 l 1
 39 35 l 1
 41 35 l 1
 41 33 l 1
36 35 m 1
 34 35 l 1
 34 37 l 1
 36 37 l 1
 36 35 l 1
44 25 m 1
 42 25 l 1
 42 27 l 1
 43 27 l 1
 43 26 l 1
 44 26 l 1
 44 25 l 1
46 25 m 1
 45 25 l 1
 45 26 l 1
 44 26 l 1
 44 27 l 1
 46 27 l 1
 46 25 l 1
49 25 m 1
 47 25 l 1
 47 27 l 1
 49 27 l 1
 49 25 l 1
49 29 m 1
 47 29 l 1
 47 31 l 1
 49 31 l 1
 49 29 l 1
55 25 m 1
 53 25 l 1
 53 27 l 1
 55 27 l 1
 55 25 l 1
55 29 m 1
 53 29 l 1
 53 31 l 1
 55 31 l 1
 55 29 l 1
43 33 m 1
 42 33 l 1
 42 35 l 1
 44 35 l 1
 44 34 l 1
 43 34 l 1
 43 33 l 1
46 33 m 1
 44 33 l 1
 44 34 l 1
 45 34 l 1
 45 35 l 1
 46 35 l 1
 46 33 l 1
49 33 m 1
 47 33 l 1
 47 35 l 1
 49 35 l 1
 49 33 l 1
49 37 m 1
 47 37 l 1
 47 39 l 1
 49 39 l 1
 49 37 l 1
55 33 m 1
 53 33 l 1
 53 35 l 1
 55 35 l 1
 55 33 l 1
55 37 m 1
 53 37 l 1
 53 39 l 1
 55 39 l 1
 55 37 l 1
58 25 m 1
 56 25 l 1
 56 27 l 1
 57 27 l 1
 57 26 l 1
 58 26 l 1
 58 25 l 1
60 25 m 1
 59 25 l 1
 59 26 l 1
 58 26 l 1
 58 27 l 1
 60 27 l 1
 60 25 l 1
63 25 m 1
 61 25 l 1
 61 27 l 1
 63 27 l 1
 63 25 l 1
63 29 m 1
 61 29 l 1
 61 31 l 1
 63 31 l 1
 63 29 l 1
63 33 m 1
 61 33 l 1
 61 35 l 1
 63 35 l 1
 63 33 l 1
63 37 m 1
 61 37 l 1
 61 39 l 1
 63 39 l 1
 63 37 l 1
17 41 m 1
 15 41 l 1
 15 43 l 1
 17 43 l 1
 17 41 l 1
23 41 m 1
 21 41 l 1
 21 43 l 1
 23 43 l 1
 23 41 l 1
26 41 m 1
 24 41 l 1
 24 43 l 1
 25 43 l 1
 25 42 l 1
 26 42 l 1
 26 41 l 1
28 41 m 1
 27 41 l 1
 27 42 l 1
 26 42 l 1
 26 43 l 1
 28 43 l 1
 28 41 l 1
31 41 m 1
 29 41 l 1
 29 43 l 1
 31 43 l 1
 31 41 l 1
41 41 m 1
 39 41 l 1
 39 43 l 1
 41 43 l 1
 41 41 l 1
44 41 m 1
 42 41 l 1
 42 43 l 1
 43 43 l 1
 43 42 l 1
 44 42 l 1
 44 41 l 1
46 41 m 1
 45 41 l 1
 45 42 l 1
 44 42 l 1
 44 43 l 1
 46 43 l 1
 46 41 l 1
49 41 m 1
 47 41 l 1
 47 43 l 1
 49 43 l 1
 49 41 l 1
55 41 m 1
 53 41 l 1
 53 43 l 1
 55 43 l 1
 55 41 l 1
58 41 m 1
 56 41 l 1
 56 43 l 1
 57 43 l 1
 57 42 l 1
 58 42 l 1
 58 41 l 1
60 41 m 1
 59 41 l 1
 59 42 l 1
 58 42 l 1
 58 43 l 1
 60 43 l 1
 60 41 l 1
63 41 m 1
 61 41 l 1
 61 43 l 1
 63 43 l 1
 63 41 l 1
EndSplineSet
Ligature2: "'liga' Standard Ligatures in Latin lookup 0-1" three zero zero one five
LCarets2: 1 0
EndChar

StartChar: custom_3_0_0_1_6
Encoding: 9272 -1 9027
Width: 70
Flags: H
LayerCount: 2
Fore
SplineSet
17 25 m 1
 15 25 l 1
 15 27 l 1
 17 27 l 1
 17 25 l 1
17 29 m 1
 15 29 l 1
 15 31 l 1
 17 31 l 1
 17 29 l 1
23 25 m 1
 21 25 l 1
 21 27 l 1
 23 27 l 1
 23 25 l 1
17 33 m 1
 15 33 l 1
 15 35 l 1
 17 35 l 1
 17 33 l 1
17 37 m 1
 15 37 l 1
 15 39 l 1
 17 39 l 1
 17 37 l 1
23 33 m 1
 21 33 l 1
 21 35 l 1
 23 35 l 1
 23 33 l 1
23 37 m 1
 21 37 l 1
 21 39 l 1
 23 39 l 1
 23 37 l 1
26 25 m 1
 24 25 l 1
 24 27 l 1
 25 27 l 1
 25 26 l 1
 26 26 l 1
 26 25 l 1
28 25 m 1
 27 25 l 1
 27 26 l 1
 26 26 l 1
 26 27 l 1
 28 27 l 1
 28 25 l 1
31 25 m 1
 29 25 l 1
 29 27 l 1
 31 27 l 1
 31 25 l 1
31 29 m 1
 29 29 l 1
 29 31 l 1
 31 31 l 1
 31 29 l 1
41 25 m 1
 39 25 l 1
 39 27 l 1
 41 27 l 1
 41 25 l 1
25 33 m 1
 24 33 l 1
 24 35 l 1
 26 35 l 1
 26 34 l 1
 25 34 l 1
 25 33 l 1
28 33 m 1
 26 33 l 1
 26 34 l 1
 27 34 l 1
 27 35 l 1
 28 35 l 1
 28 33 l 1
31 33 m 1
 29 33 l 1
 29 35 l 1
 31 35 l 1
 31 33 l 1
36 31 m 1
 34 31 l 1
 34 33 l 1
 36 33 l 1
 36 31 l 1
41 33 m 1
 39 33 l 1
 39 35 l 1
 41 35 l 1
 41 33 l 1
36 35 m 1
 34 35 l 1
 34 37 l 1
 36 37 l 1
 36 35 l 1
44 25 m 1
 42 25 l 1
 42 27 l 1
 43 27 l 1
 43 26 l 1
 44 26 l 1
 44 25 l 1
46 25 m 1
 45 25 l 1
 45 26 l 1
 44 26 l 1
 44 27 l 1
 46 27 l 1
 46 25 l 1
49 25 m 1
 47 25 l 1
 47 27 l 1
 49 27 l 1
 49 25 l 1
49 29 m 1
 47 29 l 1
 47 31 l 1
 49 31 l 1
 49 29 l 1
55 25 m 1
 53 25 l 1
 53 27 l 1
 55 27 l 1
 55 25 l 1
55 29 m 1
 53 29 l 1
 53 31 l 1
 55 31 l 1
 55 29 l 1
43 33 m 1
 42 33 l 1
 42 35 l 1
 44 35 l 1
 44 34 l 1
 43 34 l 1
 43 33 l 1
46 33 m 1
 44 33 l 1
 44 34 l 1
 45 34 l 1
 45 35 l 1
 46 35 l 1
 46 33 l 1
49 33 m 1
 47 33 l 1
 47 35 l 1
 49 35 l 1
 49 33 l 1
49 37 m 1
 47 37 l 1
 47 39 l 1
 49 39 l 1
 49 37 l 1
55 33 m 1
 53 33 l 1
 53 35 l 1
 55 35 l 1
 55 33 l 1
55 37 m 1
 53 37 l 1
 53 39 l 1
 55 39 l 1
 55 37 l 1
58 25 m 1
 56 25 l 1
 56 27 l 1
 57 27 l 1
 57 26 l 1
 58 26 l 1
 58 25 l 1
60 25 m 1
 59 25 l 1
 59 26 l 1
 58 26 l 1
 58 27 l 1
 60 27 l 1
 60 25 l 1
63 25 m 1
 61 25 l 1
 61 27 l 1
 63 27 l 1
 63 25 l 1
63 29 m 1
 61 29 l 1
 61 31 l 1
 63 31 l 1
 63 29 l 1
63 33 m 1
 61 33 l 1
 61 35 l 1
 63 35 l 1
 63 33 l 1
63 37 m 1
 61 37 l 1
 61 39 l 1
 63 39 l 1
 63 37 l 1
17 41 m 1
 15 41 l 1
 15 43 l 1
 17 43 l 1
 17 41 l 1
23 41 m 1
 21 41 l 1
 21 43 l 1
 23 43 l 1
 23 41 l 1
26 41 m 1
 24 41 l 1
 24 43 l 1
 25 43 l 1
 25 42 l 1
 26 42 l 1
 26 41 l 1
28 41 m 1
 27 41 l 1
 27 42 l 1
 26 42 l 1
 26 43 l 1
 28 43 l 1
 28 41 l 1
31 41 m 1
 29 41 l 1
 29 43 l 1
 31 43 l 1
 31 41 l 1
41 41 m 1
 39 41 l 1
 39 43 l 1
 41 43 l 1
 41 41 l 1
44 41 m 1
 42 41 l 1
 42 43 l 1
 43 43 l 1
 43 42 l 1
 44 42 l 1
 44 41 l 1
46 41 m 1
 45 41 l 1
 45 42 l 1
 44 42 l 1
 44 43 l 1
 46 43 l 1
 46 41 l 1
49 41 m 1
 47 41 l 1
 47 43 l 1
 49 43 l 1
 49 41 l 1
55 41 m 1
 53 41 l 1
 53 43 l 1
 55 43 l 1
 55 41 l 1
58 41 m 1
 56 41 l 1
 56 43 l 1
 57 43 l 1
 57 42 l 1
 58 42 l 1
 58 41 l 1
60 41 m 1
 59 41 l 1
 59 42 l 1
 58 42 l 1
 58 43 l 1
 60 43 l 1
 60 41 l 1
63 41 m 1
 61 41 l 1
 61 43 l 1
 63 43 l 1
 63 41 l 1
EndSplineSet
Ligature2: "'liga' Standard Ligatures in Latin lookup 0-1" three zero zero one six
LCarets2: 1 0
EndChar

StartChar: custom_3_0_0_1_7
Encoding: 9273 -1 9028
Width: 70
Flags: H
LayerCount: 2
Fore
SplineSet
17 25 m 1
 15 25 l 1
 15 27 l 1
 17 27 l 1
 17 25 l 1
17 29 m 1
 15 29 l 1
 15 31 l 1
 17 31 l 1
 17 29 l 1
23 25 m 1
 21 25 l 1
 21 27 l 1
 23 27 l 1
 23 25 l 1
17 33 m 1
 15 33 l 1
 15 35 l 1
 17 35 l 1
 17 33 l 1
17 37 m 1
 15 37 l 1
 15 39 l 1
 17 39 l 1
 17 37 l 1
23 33 m 1
 21 33 l 1
 21 35 l 1
 23 35 l 1
 23 33 l 1
23 37 m 1
 21 37 l 1
 21 39 l 1
 23 39 l 1
 23 37 l 1
26 25 m 1
 24 25 l 1
 24 27 l 1
 25 27 l 1
 25 26 l 1
 26 26 l 1
 26 25 l 1
28 25 m 1
 27 25 l 1
 27 26 l 1
 26 26 l 1
 26 27 l 1
 28 27 l 1
 28 25 l 1
31 25 m 1
 29 25 l 1
 29 27 l 1
 31 27 l 1
 31 25 l 1
31 29 m 1
 29 29 l 1
 29 31 l 1
 31 31 l 1
 31 29 l 1
41 25 m 1
 39 25 l 1
 39 27 l 1
 41 27 l 1
 41 25 l 1
25 33 m 1
 24 33 l 1
 24 35 l 1
 26 35 l 1
 26 34 l 1
 25 34 l 1
 25 33 l 1
28 33 m 1
 26 33 l 1
 26 34 l 1
 27 34 l 1
 27 35 l 1
 28 35 l 1
 28 33 l 1
31 33 m 1
 29 33 l 1
 29 35 l 1
 31 35 l 1
 31 33 l 1
36 31 m 1
 34 31 l 1
 34 33 l 1
 36 33 l 1
 36 31 l 1
41 33 m 1
 39 33 l 1
 39 35 l 1
 41 35 l 1
 41 33 l 1
36 35 m 1
 34 35 l 1
 34 37 l 1
 36 37 l 1
 36 35 l 1
44 25 m 1
 42 25 l 1
 42 27 l 1
 43 27 l 1
 43 26 l 1
 44 26 l 1
 44 25 l 1
46 25 m 1
 45 25 l 1
 45 26 l 1
 44 26 l 1
 44 27 l 1
 46 27 l 1
 46 25 l 1
49 25 m 1
 47 25 l 1
 47 27 l 1
 49 27 l 1
 49 25 l 1
49 29 m 1
 47 29 l 1
 47 31 l 1
 49 31 l 1
 49 29 l 1
55 25 m 1
 53 25 l 1
 53 27 l 1
 55 27 l 1
 55 25 l 1
55 29 m 1
 53 29 l 1
 53 31 l 1
 55 31 l 1
 55 29 l 1
43 33 m 1
 42 33 l 1
 42 35 l 1
 44 35 l 1
 44 34 l 1
 43 34 l 1
 43 33 l 1
46 33 m 1
 44 33 l 1
 44 34 l 1
 45 34 l 1
 45 35 l 1
 46 35 l 1
 46 33 l 1
49 33 m 1
 47 33 l 1
 47 35 l 1
 49 35 l 1
 49 33 l 1
49 37 m 1
 47 37 l 1
 47 39 l 1
 49 39 l 1
 49 37 l 1
55 33 m 1
 53 33 l 1
 53 35 l 1
 55 35 l 1
 55 33 l 1
55 37 m 1
 53 37 l 1
 53 39 l 1
 55 39 l 1
 55 37 l 1
58 25 m 1
 56 25 l 1
 56 27 l 1
 57 27 l 1
 57 26 l 1
 58 26 l 1
 58 25 l 1
60 25 m 1
 59 25 l 1
 59 26 l 1
 58 26 l 1
 58 27 l 1
 60 27 l 1
 60 25 l 1
63 25 m 1
 61 25 l 1
 61 27 l 1
 63 27 l 1
 63 25 l 1
63 29 m 1
 61 29 l 1
 61 31 l 1
 63 31 l 1
 63 29 l 1
63 33 m 1
 61 33 l 1
 61 35 l 1
 63 35 l 1
 63 33 l 1
63 37 m 1
 61 37 l 1
 61 39 l 1
 63 39 l 1
 63 37 l 1
17 41 m 1
 15 41 l 1
 15 43 l 1
 17 43 l 1
 17 41 l 1
23 41 m 1
 21 41 l 1
 21 43 l 1
 23 43 l 1
 23 41 l 1
26 41 m 1
 24 41 l 1
 24 43 l 1
 25 43 l 1
 25 42 l 1
 26 42 l 1
 26 41 l 1
28 41 m 1
 27 41 l 1
 27 42 l 1
 26 42 l 1
 26 43 l 1
 28 43 l 1
 28 41 l 1
31 41 m 1
 29 41 l 1
 29 43 l 1
 31 43 l 1
 31 41 l 1
41 41 m 1
 39 41 l 1
 39 43 l 1
 41 43 l 1
 41 41 l 1
44 41 m 1
 42 41 l 1
 42 43 l 1
 43 43 l 1
 43 42 l 1
 44 42 l 1
 44 41 l 1
46 41 m 1
 45 41 l 1
 45 42 l 1
 44 42 l 1
 44 43 l 1
 46 43 l 1
 46 41 l 1
49 41 m 1
 47 41 l 1
 47 43 l 1
 49 43 l 1
 49 41 l 1
55 41 m 1
 53 41 l 1
 53 43 l 1
 55 43 l 1
 55 41 l 1
58 41 m 1
 56 41 l 1
 56 43 l 1
 57 43 l 1
 57 42 l 1
 58 42 l 1
 58 41 l 1
60 41 m 1
 59 41 l 1
 59 42 l 1
 58 42 l 1
 58 43 l 1
 60 43 l 1
 60 41 l 1
63 41 m 1
 61 41 l 1
 61 43 l 1
 63 43 l 1
 63 41 l 1
EndSplineSet
Ligature2: "'liga' Standard Ligatures in Latin lookup 0-1" three zero zero one seven
LCarets2: 1 0
EndChar

StartChar: custom_3_0_0_1_8
Encoding: 9274 -1 9029
Width: 70
Flags: H
LayerCount: 2
Fore
SplineSet
17 25 m 1
 15 25 l 1
 15 27 l 1
 17 27 l 1
 17 25 l 1
17 29 m 1
 15 29 l 1
 15 31 l 1
 17 31 l 1
 17 29 l 1
23 25 m 1
 21 25 l 1
 21 27 l 1
 23 27 l 1
 23 25 l 1
17 33 m 1
 15 33 l 1
 15 35 l 1
 17 35 l 1
 17 33 l 1
17 37 m 1
 15 37 l 1
 15 39 l 1
 17 39 l 1
 17 37 l 1
23 33 m 1
 21 33 l 1
 21 35 l 1
 23 35 l 1
 23 33 l 1
23 37 m 1
 21 37 l 1
 21 39 l 1
 23 39 l 1
 23 37 l 1
26 25 m 1
 24 25 l 1
 24 27 l 1
 25 27 l 1
 25 26 l 1
 26 26 l 1
 26 25 l 1
28 25 m 1
 27 25 l 1
 27 26 l 1
 26 26 l 1
 26 27 l 1
 28 27 l 1
 28 25 l 1
31 25 m 1
 29 25 l 1
 29 27 l 1
 31 27 l 1
 31 25 l 1
31 29 m 1
 29 29 l 1
 29 31 l 1
 31 31 l 1
 31 29 l 1
41 25 m 1
 39 25 l 1
 39 27 l 1
 41 27 l 1
 41 25 l 1
25 33 m 1
 24 33 l 1
 24 35 l 1
 26 35 l 1
 26 34 l 1
 25 34 l 1
 25 33 l 1
28 33 m 1
 26 33 l 1
 26 34 l 1
 27 34 l 1
 27 35 l 1
 28 35 l 1
 28 33 l 1
31 33 m 1
 29 33 l 1
 29 35 l 1
 31 35 l 1
 31 33 l 1
36 31 m 1
 34 31 l 1
 34 33 l 1
 36 33 l 1
 36 31 l 1
41 33 m 1
 39 33 l 1
 39 35 l 1
 41 35 l 1
 41 33 l 1
36 35 m 1
 34 35 l 1
 34 37 l 1
 36 37 l 1
 36 35 l 1
44 25 m 1
 42 25 l 1
 42 27 l 1
 43 27 l 1
 43 26 l 1
 44 26 l 1
 44 25 l 1
46 25 m 1
 45 25 l 1
 45 26 l 1
 44 26 l 1
 44 27 l 1
 46 27 l 1
 46 25 l 1
49 25 m 1
 47 25 l 1
 47 27 l 1
 49 27 l 1
 49 25 l 1
49 29 m 1
 47 29 l 1
 47 31 l 1
 49 31 l 1
 49 29 l 1
55 25 m 1
 53 25 l 1
 53 27 l 1
 55 27 l 1
 55 25 l 1
55 29 m 1
 53 29 l 1
 53 31 l 1
 55 31 l 1
 55 29 l 1
43 33 m 1
 42 33 l 1
 42 35 l 1
 44 35 l 1
 44 34 l 1
 43 34 l 1
 43 33 l 1
46 33 m 1
 44 33 l 1
 44 34 l 1
 45 34 l 1
 45 35 l 1
 46 35 l 1
 46 33 l 1
49 33 m 1
 47 33 l 1
 47 35 l 1
 49 35 l 1
 49 33 l 1
49 37 m 1
 47 37 l 1
 47 39 l 1
 49 39 l 1
 49 37 l 1
55 33 m 1
 53 33 l 1
 53 35 l 1
 55 35 l 1
 55 33 l 1
55 37 m 1
 53 37 l 1
 53 39 l 1
 55 39 l 1
 55 37 l 1
58 25 m 1
 56 25 l 1
 56 27 l 1
 57 27 l 1
 57 26 l 1
 58 26 l 1
 58 25 l 1
60 25 m 1
 59 25 l 1
 59 26 l 1
 58 26 l 1
 58 27 l 1
 60 27 l 1
 60 25 l 1
63 25 m 1
 61 25 l 1
 61 27 l 1
 63 27 l 1
 63 25 l 1
63 29 m 1
 61 29 l 1
 61 31 l 1
 63 31 l 1
 63 29 l 1
63 33 m 1
 61 33 l 1
 61 35 l 1
 63 35 l 1
 63 33 l 1
63 37 m 1
 61 37 l 1
 61 39 l 1
 63 39 l 1
 63 37 l 1
17 41 m 1
 15 41 l 1
 15 43 l 1
 17 43 l 1
 17 41 l 1
23 41 m 1
 21 41 l 1
 21 43 l 1
 23 43 l 1
 23 41 l 1
26 41 m 1
 24 41 l 1
 24 43 l 1
 25 43 l 1
 25 42 l 1
 26 42 l 1
 26 41 l 1
28 41 m 1
 27 41 l 1
 27 42 l 1
 26 42 l 1
 26 43 l 1
 28 43 l 1
 28 41 l 1
31 41 m 1
 29 41 l 1
 29 43 l 1
 31 43 l 1
 31 41 l 1
41 41 m 1
 39 41 l 1
 39 43 l 1
 41 43 l 1
 41 41 l 1
44 41 m 1
 42 41 l 1
 42 43 l 1
 43 43 l 1
 43 42 l 1
 44 42 l 1
 44 41 l 1
46 41 m 1
 45 41 l 1
 45 42 l 1
 44 42 l 1
 44 43 l 1
 46 43 l 1
 46 41 l 1
49 41 m 1
 47 41 l 1
 47 43 l 1
 49 43 l 1
 49 41 l 1
55 41 m 1
 53 41 l 1
 53 43 l 1
 55 43 l 1
 55 41 l 1
58 41 m 1
 56 41 l 1
 56 43 l 1
 57 43 l 1
 57 42 l 1
 58 42 l 1
 58 41 l 1
60 41 m 1
 59 41 l 1
 59 42 l 1
 58 42 l 1
 58 43 l 1
 60 43 l 1
 60 41 l 1
63 41 m 1
 61 41 l 1
 61 43 l 1
 63 43 l 1
 63 41 l 1
EndSplineSet
Ligature2: "'liga' Standard Ligatures in Latin lookup 0-1" three zero zero one eight
LCarets2: 1 0
EndChar

StartChar: custom_3_0_0_1_9
Encoding: 9275 -1 9030
Width: 70
Flags: H
LayerCount: 2
Fore
SplineSet
17 25 m 1
 15 25 l 1
 15 27 l 1
 17 27 l 1
 17 25 l 1
17 29 m 1
 15 29 l 1
 15 31 l 1
 17 31 l 1
 17 29 l 1
23 25 m 1
 21 25 l 1
 21 27 l 1
 23 27 l 1
 23 25 l 1
17 33 m 1
 15 33 l 1
 15 35 l 1
 17 35 l 1
 17 33 l 1
17 37 m 1
 15 37 l 1
 15 39 l 1
 17 39 l 1
 17 37 l 1
23 33 m 1
 21 33 l 1
 21 35 l 1
 23 35 l 1
 23 33 l 1
23 37 m 1
 21 37 l 1
 21 39 l 1
 23 39 l 1
 23 37 l 1
26 25 m 1
 24 25 l 1
 24 27 l 1
 25 27 l 1
 25 26 l 1
 26 26 l 1
 26 25 l 1
28 25 m 1
 27 25 l 1
 27 26 l 1
 26 26 l 1
 26 27 l 1
 28 27 l 1
 28 25 l 1
31 25 m 1
 29 25 l 1
 29 27 l 1
 31 27 l 1
 31 25 l 1
31 29 m 1
 29 29 l 1
 29 31 l 1
 31 31 l 1
 31 29 l 1
41 25 m 1
 39 25 l 1
 39 27 l 1
 41 27 l 1
 41 25 l 1
25 33 m 1
 24 33 l 1
 24 35 l 1
 26 35 l 1
 26 34 l 1
 25 34 l 1
 25 33 l 1
28 33 m 1
 26 33 l 1
 26 34 l 1
 27 34 l 1
 27 35 l 1
 28 35 l 1
 28 33 l 1
31 33 m 1
 29 33 l 1
 29 35 l 1
 31 35 l 1
 31 33 l 1
36 31 m 1
 34 31 l 1
 34 33 l 1
 36 33 l 1
 36 31 l 1
41 33 m 1
 39 33 l 1
 39 35 l 1
 41 35 l 1
 41 33 l 1
36 35 m 1
 34 35 l 1
 34 37 l 1
 36 37 l 1
 36 35 l 1
44 25 m 1
 42 25 l 1
 42 27 l 1
 43 27 l 1
 43 26 l 1
 44 26 l 1
 44 25 l 1
46 25 m 1
 45 25 l 1
 45 26 l 1
 44 26 l 1
 44 27 l 1
 46 27 l 1
 46 25 l 1
49 25 m 1
 47 25 l 1
 47 27 l 1
 49 27 l 1
 49 25 l 1
49 29 m 1
 47 29 l 1
 47 31 l 1
 49 31 l 1
 49 29 l 1
55 25 m 1
 53 25 l 1
 53 27 l 1
 55 27 l 1
 55 25 l 1
55 29 m 1
 53 29 l 1
 53 31 l 1
 55 31 l 1
 55 29 l 1
43 33 m 1
 42 33 l 1
 42 35 l 1
 44 35 l 1
 44 34 l 1
 43 34 l 1
 43 33 l 1
46 33 m 1
 44 33 l 1
 44 34 l 1
 45 34 l 1
 45 35 l 1
 46 35 l 1
 46 33 l 1
49 33 m 1
 47 33 l 1
 47 35 l 1
 49 35 l 1
 49 33 l 1
49 37 m 1
 47 37 l 1
 47 39 l 1
 49 39 l 1
 49 37 l 1
55 33 m 1
 53 33 l 1
 53 35 l 1
 55 35 l 1
 55 33 l 1
55 37 m 1
 53 37 l 1
 53 39 l 1
 55 39 l 1
 55 37 l 1
58 25 m 1
 56 25 l 1
 56 27 l 1
 57 27 l 1
 57 26 l 1
 58 26 l 1
 58 25 l 1
60 25 m 1
 59 25 l 1
 59 26 l 1
 58 26 l 1
 58 27 l 1
 60 27 l 1
 60 25 l 1
63 25 m 1
 61 25 l 1
 61 27 l 1
 63 27 l 1
 63 25 l 1
63 29 m 1
 61 29 l 1
 61 31 l 1
 63 31 l 1
 63 29 l 1
63 33 m 1
 61 33 l 1
 61 35 l 1
 63 35 l 1
 63 33 l 1
63 37 m 1
 61 37 l 1
 61 39 l 1
 63 39 l 1
 63 37 l 1
17 41 m 1
 15 41 l 1
 15 43 l 1
 17 43 l 1
 17 41 l 1
23 41 m 1
 21 41 l 1
 21 43 l 1
 23 43 l 1
 23 41 l 1
26 41 m 1
 24 41 l 1
 24 43 l 1
 25 43 l 1
 25 42 l 1
 26 42 l 1
 26 41 l 1
28 41 m 1
 27 41 l 1
 27 42 l 1
 26 42 l 1
 26 43 l 1
 28 43 l 1
 28 41 l 1
31 41 m 1
 29 41 l 1
 29 43 l 1
 31 43 l 1
 31 41 l 1
41 41 m 1
 39 41 l 1
 39 43 l 1
 41 43 l 1
 41 41 l 1
44 41 m 1
 42 41 l 1
 42 43 l 1
 43 43 l 1
 43 42 l 1
 44 42 l 1
 44 41 l 1
46 41 m 1
 45 41 l 1
 45 42 l 1
 44 42 l 1
 44 43 l 1
 46 43 l 1
 46 41 l 1
49 41 m 1
 47 41 l 1
 47 43 l 1
 49 43 l 1
 49 41 l 1
55 41 m 1
 53 41 l 1
 53 43 l 1
 55 43 l 1
 55 41 l 1
58 41 m 1
 56 41 l 1
 56 43 l 1
 57 43 l 1
 57 42 l 1
 58 42 l 1
 58 41 l 1
60 41 m 1
 59 41 l 1
 59 42 l 1
 58 42 l 1
 58 43 l 1
 60 43 l 1
 60 41 l 1
63 41 m 1
 61 41 l 1
 61 43 l 1
 63 43 l 1
 63 41 l 1
EndSplineSet
Ligature2: "'liga' Standard Ligatures in Latin lookup 0-1" three zero zero one nine
LCarets2: 1 0
EndChar

StartChar: custom_3_0_0_2_0
Encoding: 9276 -1 9031
Width: 70
Flags: H
LayerCount: 2
Fore
SplineSet
17 25 m 1
 15 25 l 1
 15 27 l 1
 17 27 l 1
 17 25 l 1
17 29 m 1
 15 29 l 1
 15 31 l 1
 17 31 l 1
 17 29 l 1
23 25 m 1
 21 25 l 1
 21 27 l 1
 23 27 l 1
 23 25 l 1
17 33 m 1
 15 33 l 1
 15 35 l 1
 17 35 l 1
 17 33 l 1
17 37 m 1
 15 37 l 1
 15 39 l 1
 17 39 l 1
 17 37 l 1
23 33 m 1
 21 33 l 1
 21 35 l 1
 23 35 l 1
 23 33 l 1
23 37 m 1
 21 37 l 1
 21 39 l 1
 23 39 l 1
 23 37 l 1
26 25 m 1
 24 25 l 1
 24 27 l 1
 25 27 l 1
 25 26 l 1
 26 26 l 1
 26 25 l 1
28 25 m 1
 27 25 l 1
 27 26 l 1
 26 26 l 1
 26 27 l 1
 28 27 l 1
 28 25 l 1
31 25 m 1
 29 25 l 1
 29 27 l 1
 31 27 l 1
 31 25 l 1
31 29 m 1
 29 29 l 1
 29 31 l 1
 31 31 l 1
 31 29 l 1
41 25 m 1
 39 25 l 1
 39 27 l 1
 41 27 l 1
 41 25 l 1
25 33 m 1
 24 33 l 1
 24 35 l 1
 26 35 l 1
 26 34 l 1
 25 34 l 1
 25 33 l 1
28 33 m 1
 26 33 l 1
 26 34 l 1
 27 34 l 1
 27 35 l 1
 28 35 l 1
 28 33 l 1
31 33 m 1
 29 33 l 1
 29 35 l 1
 31 35 l 1
 31 33 l 1
36 31 m 1
 34 31 l 1
 34 33 l 1
 36 33 l 1
 36 31 l 1
41 33 m 1
 39 33 l 1
 39 35 l 1
 41 35 l 1
 41 33 l 1
36 35 m 1
 34 35 l 1
 34 37 l 1
 36 37 l 1
 36 35 l 1
44 25 m 1
 42 25 l 1
 42 27 l 1
 43 27 l 1
 43 26 l 1
 44 26 l 1
 44 25 l 1
46 25 m 1
 45 25 l 1
 45 26 l 1
 44 26 l 1
 44 27 l 1
 46 27 l 1
 46 25 l 1
49 25 m 1
 47 25 l 1
 47 27 l 1
 49 27 l 1
 49 25 l 1
49 29 m 1
 47 29 l 1
 47 31 l 1
 49 31 l 1
 49 29 l 1
55 25 m 1
 53 25 l 1
 53 27 l 1
 55 27 l 1
 55 25 l 1
55 29 m 1
 53 29 l 1
 53 31 l 1
 55 31 l 1
 55 29 l 1
43 33 m 1
 42 33 l 1
 42 35 l 1
 44 35 l 1
 44 34 l 1
 43 34 l 1
 43 33 l 1
46 33 m 1
 44 33 l 1
 44 34 l 1
 45 34 l 1
 45 35 l 1
 46 35 l 1
 46 33 l 1
49 33 m 1
 47 33 l 1
 47 35 l 1
 49 35 l 1
 49 33 l 1
49 37 m 1
 47 37 l 1
 47 39 l 1
 49 39 l 1
 49 37 l 1
55 33 m 1
 53 33 l 1
 53 35 l 1
 55 35 l 1
 55 33 l 1
55 37 m 1
 53 37 l 1
 53 39 l 1
 55 39 l 1
 55 37 l 1
58 25 m 1
 56 25 l 1
 56 27 l 1
 57 27 l 1
 57 26 l 1
 58 26 l 1
 58 25 l 1
60 25 m 1
 59 25 l 1
 59 26 l 1
 58 26 l 1
 58 27 l 1
 60 27 l 1
 60 25 l 1
63 25 m 1
 61 25 l 1
 61 27 l 1
 63 27 l 1
 63 25 l 1
63 29 m 1
 61 29 l 1
 61 31 l 1
 63 31 l 1
 63 29 l 1
63 33 m 1
 61 33 l 1
 61 35 l 1
 63 35 l 1
 63 33 l 1
63 37 m 1
 61 37 l 1
 61 39 l 1
 63 39 l 1
 63 37 l 1
17 41 m 1
 15 41 l 1
 15 43 l 1
 17 43 l 1
 17 41 l 1
23 41 m 1
 21 41 l 1
 21 43 l 1
 23 43 l 1
 23 41 l 1
26 41 m 1
 24 41 l 1
 24 43 l 1
 25 43 l 1
 25 42 l 1
 26 42 l 1
 26 41 l 1
28 41 m 1
 27 41 l 1
 27 42 l 1
 26 42 l 1
 26 43 l 1
 28 43 l 1
 28 41 l 1
31 41 m 1
 29 41 l 1
 29 43 l 1
 31 43 l 1
 31 41 l 1
41 41 m 1
 39 41 l 1
 39 43 l 1
 41 43 l 1
 41 41 l 1
44 41 m 1
 42 41 l 1
 42 43 l 1
 43 43 l 1
 43 42 l 1
 44 42 l 1
 44 41 l 1
46 41 m 1
 45 41 l 1
 45 42 l 1
 44 42 l 1
 44 43 l 1
 46 43 l 1
 46 41 l 1
49 41 m 1
 47 41 l 1
 47 43 l 1
 49 43 l 1
 49 41 l 1
55 41 m 1
 53 41 l 1
 53 43 l 1
 55 43 l 1
 55 41 l 1
58 41 m 1
 56 41 l 1
 56 43 l 1
 57 43 l 1
 57 42 l 1
 58 42 l 1
 58 41 l 1
60 41 m 1
 59 41 l 1
 59 42 l 1
 58 42 l 1
 58 43 l 1
 60 43 l 1
 60 41 l 1
63 41 m 1
 61 41 l 1
 61 43 l 1
 63 43 l 1
 63 41 l 1
EndSplineSet
Ligature2: "'liga' Standard Ligatures in Latin lookup 0-1" three zero zero two zero
LCarets2: 1 0
EndChar

StartChar: custom_3_0_0_2_1
Encoding: 9277 -1 9032
Width: 70
Flags: H
LayerCount: 2
Fore
SplineSet
17 25 m 1
 15 25 l 1
 15 27 l 1
 17 27 l 1
 17 25 l 1
17 29 m 1
 15 29 l 1
 15 31 l 1
 17 31 l 1
 17 29 l 1
23 25 m 1
 21 25 l 1
 21 27 l 1
 23 27 l 1
 23 25 l 1
17 33 m 1
 15 33 l 1
 15 35 l 1
 17 35 l 1
 17 33 l 1
17 37 m 1
 15 37 l 1
 15 39 l 1
 17 39 l 1
 17 37 l 1
23 33 m 1
 21 33 l 1
 21 35 l 1
 23 35 l 1
 23 33 l 1
23 37 m 1
 21 37 l 1
 21 39 l 1
 23 39 l 1
 23 37 l 1
26 25 m 1
 24 25 l 1
 24 27 l 1
 25 27 l 1
 25 26 l 1
 26 26 l 1
 26 25 l 1
28 25 m 1
 27 25 l 1
 27 26 l 1
 26 26 l 1
 26 27 l 1
 28 27 l 1
 28 25 l 1
31 25 m 1
 29 25 l 1
 29 27 l 1
 31 27 l 1
 31 25 l 1
31 29 m 1
 29 29 l 1
 29 31 l 1
 31 31 l 1
 31 29 l 1
41 25 m 1
 39 25 l 1
 39 27 l 1
 41 27 l 1
 41 25 l 1
25 33 m 1
 24 33 l 1
 24 35 l 1
 26 35 l 1
 26 34 l 1
 25 34 l 1
 25 33 l 1
28 33 m 1
 26 33 l 1
 26 34 l 1
 27 34 l 1
 27 35 l 1
 28 35 l 1
 28 33 l 1
31 33 m 1
 29 33 l 1
 29 35 l 1
 31 35 l 1
 31 33 l 1
36 31 m 1
 34 31 l 1
 34 33 l 1
 36 33 l 1
 36 31 l 1
41 33 m 1
 39 33 l 1
 39 35 l 1
 41 35 l 1
 41 33 l 1
36 35 m 1
 34 35 l 1
 34 37 l 1
 36 37 l 1
 36 35 l 1
44 25 m 1
 42 25 l 1
 42 27 l 1
 43 27 l 1
 43 26 l 1
 44 26 l 1
 44 25 l 1
46 25 m 1
 45 25 l 1
 45 26 l 1
 44 26 l 1
 44 27 l 1
 46 27 l 1
 46 25 l 1
49 25 m 1
 47 25 l 1
 47 27 l 1
 49 27 l 1
 49 25 l 1
49 29 m 1
 47 29 l 1
 47 31 l 1
 49 31 l 1
 49 29 l 1
55 25 m 1
 53 25 l 1
 53 27 l 1
 55 27 l 1
 55 25 l 1
55 29 m 1
 53 29 l 1
 53 31 l 1
 55 31 l 1
 55 29 l 1
43 33 m 1
 42 33 l 1
 42 35 l 1
 44 35 l 1
 44 34 l 1
 43 34 l 1
 43 33 l 1
46 33 m 1
 44 33 l 1
 44 34 l 1
 45 34 l 1
 45 35 l 1
 46 35 l 1
 46 33 l 1
49 33 m 1
 47 33 l 1
 47 35 l 1
 49 35 l 1
 49 33 l 1
49 37 m 1
 47 37 l 1
 47 39 l 1
 49 39 l 1
 49 37 l 1
55 33 m 1
 53 33 l 1
 53 35 l 1
 55 35 l 1
 55 33 l 1
55 37 m 1
 53 37 l 1
 53 39 l 1
 55 39 l 1
 55 37 l 1
58 25 m 1
 56 25 l 1
 56 27 l 1
 57 27 l 1
 57 26 l 1
 58 26 l 1
 58 25 l 1
60 25 m 1
 59 25 l 1
 59 26 l 1
 58 26 l 1
 58 27 l 1
 60 27 l 1
 60 25 l 1
63 25 m 1
 61 25 l 1
 61 27 l 1
 63 27 l 1
 63 25 l 1
63 29 m 1
 61 29 l 1
 61 31 l 1
 63 31 l 1
 63 29 l 1
63 33 m 1
 61 33 l 1
 61 35 l 1
 63 35 l 1
 63 33 l 1
63 37 m 1
 61 37 l 1
 61 39 l 1
 63 39 l 1
 63 37 l 1
17 41 m 1
 15 41 l 1
 15 43 l 1
 17 43 l 1
 17 41 l 1
23 41 m 1
 21 41 l 1
 21 43 l 1
 23 43 l 1
 23 41 l 1
26 41 m 1
 24 41 l 1
 24 43 l 1
 25 43 l 1
 25 42 l 1
 26 42 l 1
 26 41 l 1
28 41 m 1
 27 41 l 1
 27 42 l 1
 26 42 l 1
 26 43 l 1
 28 43 l 1
 28 41 l 1
31 41 m 1
 29 41 l 1
 29 43 l 1
 31 43 l 1
 31 41 l 1
41 41 m 1
 39 41 l 1
 39 43 l 1
 41 43 l 1
 41 41 l 1
44 41 m 1
 42 41 l 1
 42 43 l 1
 43 43 l 1
 43 42 l 1
 44 42 l 1
 44 41 l 1
46 41 m 1
 45 41 l 1
 45 42 l 1
 44 42 l 1
 44 43 l 1
 46 43 l 1
 46 41 l 1
49 41 m 1
 47 41 l 1
 47 43 l 1
 49 43 l 1
 49 41 l 1
55 41 m 1
 53 41 l 1
 53 43 l 1
 55 43 l 1
 55 41 l 1
58 41 m 1
 56 41 l 1
 56 43 l 1
 57 43 l 1
 57 42 l 1
 58 42 l 1
 58 41 l 1
60 41 m 1
 59 41 l 1
 59 42 l 1
 58 42 l 1
 58 43 l 1
 60 43 l 1
 60 41 l 1
63 41 m 1
 61 41 l 1
 61 43 l 1
 63 43 l 1
 63 41 l 1
EndSplineSet
Ligature2: "'liga' Standard Ligatures in Latin lookup 0-1" three zero zero two one
LCarets2: 1 0
EndChar

StartChar: custom_3_0_0_2_2
Encoding: 9278 -1 9033
Width: 70
Flags: H
LayerCount: 2
Fore
SplineSet
17 25 m 1
 15 25 l 1
 15 27 l 1
 17 27 l 1
 17 25 l 1
17 29 m 1
 15 29 l 1
 15 31 l 1
 17 31 l 1
 17 29 l 1
23 25 m 1
 21 25 l 1
 21 27 l 1
 23 27 l 1
 23 25 l 1
17 33 m 1
 15 33 l 1
 15 35 l 1
 17 35 l 1
 17 33 l 1
17 37 m 1
 15 37 l 1
 15 39 l 1
 17 39 l 1
 17 37 l 1
23 33 m 1
 21 33 l 1
 21 35 l 1
 23 35 l 1
 23 33 l 1
23 37 m 1
 21 37 l 1
 21 39 l 1
 23 39 l 1
 23 37 l 1
26 25 m 1
 24 25 l 1
 24 27 l 1
 25 27 l 1
 25 26 l 1
 26 26 l 1
 26 25 l 1
28 25 m 1
 27 25 l 1
 27 26 l 1
 26 26 l 1
 26 27 l 1
 28 27 l 1
 28 25 l 1
31 25 m 1
 29 25 l 1
 29 27 l 1
 31 27 l 1
 31 25 l 1
31 29 m 1
 29 29 l 1
 29 31 l 1
 31 31 l 1
 31 29 l 1
41 25 m 1
 39 25 l 1
 39 27 l 1
 41 27 l 1
 41 25 l 1
25 33 m 1
 24 33 l 1
 24 35 l 1
 26 35 l 1
 26 34 l 1
 25 34 l 1
 25 33 l 1
28 33 m 1
 26 33 l 1
 26 34 l 1
 27 34 l 1
 27 35 l 1
 28 35 l 1
 28 33 l 1
31 33 m 1
 29 33 l 1
 29 35 l 1
 31 35 l 1
 31 33 l 1
36 31 m 1
 34 31 l 1
 34 33 l 1
 36 33 l 1
 36 31 l 1
41 33 m 1
 39 33 l 1
 39 35 l 1
 41 35 l 1
 41 33 l 1
36 35 m 1
 34 35 l 1
 34 37 l 1
 36 37 l 1
 36 35 l 1
44 25 m 1
 42 25 l 1
 42 27 l 1
 43 27 l 1
 43 26 l 1
 44 26 l 1
 44 25 l 1
46 25 m 1
 45 25 l 1
 45 26 l 1
 44 26 l 1
 44 27 l 1
 46 27 l 1
 46 25 l 1
49 25 m 1
 47 25 l 1
 47 27 l 1
 49 27 l 1
 49 25 l 1
49 29 m 1
 47 29 l 1
 47 31 l 1
 49 31 l 1
 49 29 l 1
55 25 m 1
 53 25 l 1
 53 27 l 1
 55 27 l 1
 55 25 l 1
55 29 m 1
 53 29 l 1
 53 31 l 1
 55 31 l 1
 55 29 l 1
43 33 m 1
 42 33 l 1
 42 35 l 1
 44 35 l 1
 44 34 l 1
 43 34 l 1
 43 33 l 1
46 33 m 1
 44 33 l 1
 44 34 l 1
 45 34 l 1
 45 35 l 1
 46 35 l 1
 46 33 l 1
49 33 m 1
 47 33 l 1
 47 35 l 1
 49 35 l 1
 49 33 l 1
49 37 m 1
 47 37 l 1
 47 39 l 1
 49 39 l 1
 49 37 l 1
55 33 m 1
 53 33 l 1
 53 35 l 1
 55 35 l 1
 55 33 l 1
55 37 m 1
 53 37 l 1
 53 39 l 1
 55 39 l 1
 55 37 l 1
58 25 m 1
 56 25 l 1
 56 27 l 1
 57 27 l 1
 57 26 l 1
 58 26 l 1
 58 25 l 1
60 25 m 1
 59 25 l 1
 59 26 l 1
 58 26 l 1
 58 27 l 1
 60 27 l 1
 60 25 l 1
63 25 m 1
 61 25 l 1
 61 27 l 1
 63 27 l 1
 63 25 l 1
63 29 m 1
 61 29 l 1
 61 31 l 1
 63 31 l 1
 63 29 l 1
63 33 m 1
 61 33 l 1
 61 35 l 1
 63 35 l 1
 63 33 l 1
63 37 m 1
 61 37 l 1
 61 39 l 1
 63 39 l 1
 63 37 l 1
17 41 m 1
 15 41 l 1
 15 43 l 1
 17 43 l 1
 17 41 l 1
23 41 m 1
 21 41 l 1
 21 43 l 1
 23 43 l 1
 23 41 l 1
26 41 m 1
 24 41 l 1
 24 43 l 1
 25 43 l 1
 25 42 l 1
 26 42 l 1
 26 41 l 1
28 41 m 1
 27 41 l 1
 27 42 l 1
 26 42 l 1
 26 43 l 1
 28 43 l 1
 28 41 l 1
31 41 m 1
 29 41 l 1
 29 43 l 1
 31 43 l 1
 31 41 l 1
41 41 m 1
 39 41 l 1
 39 43 l 1
 41 43 l 1
 41 41 l 1
44 41 m 1
 42 41 l 1
 42 43 l 1
 43 43 l 1
 43 42 l 1
 44 42 l 1
 44 41 l 1
46 41 m 1
 45 41 l 1
 45 42 l 1
 44 42 l 1
 44 43 l 1
 46 43 l 1
 46 41 l 1
49 41 m 1
 47 41 l 1
 47 43 l 1
 49 43 l 1
 49 41 l 1
55 41 m 1
 53 41 l 1
 53 43 l 1
 55 43 l 1
 55 41 l 1
58 41 m 1
 56 41 l 1
 56 43 l 1
 57 43 l 1
 57 42 l 1
 58 42 l 1
 58 41 l 1
60 41 m 1
 59 41 l 1
 59 42 l 1
 58 42 l 1
 58 43 l 1
 60 43 l 1
 60 41 l 1
63 41 m 1
 61 41 l 1
 61 43 l 1
 63 43 l 1
 63 41 l 1
EndSplineSet
Ligature2: "'liga' Standard Ligatures in Latin lookup 0-1" three zero zero two two
LCarets2: 1 0
EndChar

StartChar: custom_3_0_0_2_3
Encoding: 9279 -1 9034
Width: 70
Flags: H
LayerCount: 2
Fore
SplineSet
17 25 m 1
 15 25 l 1
 15 27 l 1
 17 27 l 1
 17 25 l 1
17 29 m 1
 15 29 l 1
 15 31 l 1
 17 31 l 1
 17 29 l 1
23 25 m 1
 21 25 l 1
 21 27 l 1
 23 27 l 1
 23 25 l 1
17 33 m 1
 15 33 l 1
 15 35 l 1
 17 35 l 1
 17 33 l 1
17 37 m 1
 15 37 l 1
 15 39 l 1
 17 39 l 1
 17 37 l 1
23 33 m 1
 21 33 l 1
 21 35 l 1
 23 35 l 1
 23 33 l 1
23 37 m 1
 21 37 l 1
 21 39 l 1
 23 39 l 1
 23 37 l 1
26 25 m 1
 24 25 l 1
 24 27 l 1
 25 27 l 1
 25 26 l 1
 26 26 l 1
 26 25 l 1
28 25 m 1
 27 25 l 1
 27 26 l 1
 26 26 l 1
 26 27 l 1
 28 27 l 1
 28 25 l 1
31 25 m 1
 29 25 l 1
 29 27 l 1
 31 27 l 1
 31 25 l 1
31 29 m 1
 29 29 l 1
 29 31 l 1
 31 31 l 1
 31 29 l 1
41 25 m 1
 39 25 l 1
 39 27 l 1
 41 27 l 1
 41 25 l 1
25 33 m 1
 24 33 l 1
 24 35 l 1
 26 35 l 1
 26 34 l 1
 25 34 l 1
 25 33 l 1
28 33 m 1
 26 33 l 1
 26 34 l 1
 27 34 l 1
 27 35 l 1
 28 35 l 1
 28 33 l 1
31 33 m 1
 29 33 l 1
 29 35 l 1
 31 35 l 1
 31 33 l 1
36 31 m 1
 34 31 l 1
 34 33 l 1
 36 33 l 1
 36 31 l 1
41 33 m 1
 39 33 l 1
 39 35 l 1
 41 35 l 1
 41 33 l 1
36 35 m 1
 34 35 l 1
 34 37 l 1
 36 37 l 1
 36 35 l 1
44 25 m 1
 42 25 l 1
 42 27 l 1
 43 27 l 1
 43 26 l 1
 44 26 l 1
 44 25 l 1
46 25 m 1
 45 25 l 1
 45 26 l 1
 44 26 l 1
 44 27 l 1
 46 27 l 1
 46 25 l 1
49 25 m 1
 47 25 l 1
 47 27 l 1
 49 27 l 1
 49 25 l 1
49 29 m 1
 47 29 l 1
 47 31 l 1
 49 31 l 1
 49 29 l 1
55 25 m 1
 53 25 l 1
 53 27 l 1
 55 27 l 1
 55 25 l 1
55 29 m 1
 53 29 l 1
 53 31 l 1
 55 31 l 1
 55 29 l 1
43 33 m 1
 42 33 l 1
 42 35 l 1
 44 35 l 1
 44 34 l 1
 43 34 l 1
 43 33 l 1
46 33 m 1
 44 33 l 1
 44 34 l 1
 45 34 l 1
 45 35 l 1
 46 35 l 1
 46 33 l 1
49 33 m 1
 47 33 l 1
 47 35 l 1
 49 35 l 1
 49 33 l 1
49 37 m 1
 47 37 l 1
 47 39 l 1
 49 39 l 1
 49 37 l 1
55 33 m 1
 53 33 l 1
 53 35 l 1
 55 35 l 1
 55 33 l 1
55 37 m 1
 53 37 l 1
 53 39 l 1
 55 39 l 1
 55 37 l 1
58 25 m 1
 56 25 l 1
 56 27 l 1
 57 27 l 1
 57 26 l 1
 58 26 l 1
 58 25 l 1
60 25 m 1
 59 25 l 1
 59 26 l 1
 58 26 l 1
 58 27 l 1
 60 27 l 1
 60 25 l 1
63 25 m 1
 61 25 l 1
 61 27 l 1
 63 27 l 1
 63 25 l 1
63 29 m 1
 61 29 l 1
 61 31 l 1
 63 31 l 1
 63 29 l 1
63 33 m 1
 61 33 l 1
 61 35 l 1
 63 35 l 1
 63 33 l 1
63 37 m 1
 61 37 l 1
 61 39 l 1
 63 39 l 1
 63 37 l 1
17 41 m 1
 15 41 l 1
 15 43 l 1
 17 43 l 1
 17 41 l 1
23 41 m 1
 21 41 l 1
 21 43 l 1
 23 43 l 1
 23 41 l 1
26 41 m 1
 24 41 l 1
 24 43 l 1
 25 43 l 1
 25 42 l 1
 26 42 l 1
 26 41 l 1
28 41 m 1
 27 41 l 1
 27 42 l 1
 26 42 l 1
 26 43 l 1
 28 43 l 1
 28 41 l 1
31 41 m 1
 29 41 l 1
 29 43 l 1
 31 43 l 1
 31 41 l 1
41 41 m 1
 39 41 l 1
 39 43 l 1
 41 43 l 1
 41 41 l 1
44 41 m 1
 42 41 l 1
 42 43 l 1
 43 43 l 1
 43 42 l 1
 44 42 l 1
 44 41 l 1
46 41 m 1
 45 41 l 1
 45 42 l 1
 44 42 l 1
 44 43 l 1
 46 43 l 1
 46 41 l 1
49 41 m 1
 47 41 l 1
 47 43 l 1
 49 43 l 1
 49 41 l 1
55 41 m 1
 53 41 l 1
 53 43 l 1
 55 43 l 1
 55 41 l 1
58 41 m 1
 56 41 l 1
 56 43 l 1
 57 43 l 1
 57 42 l 1
 58 42 l 1
 58 41 l 1
60 41 m 1
 59 41 l 1
 59 42 l 1
 58 42 l 1
 58 43 l 1
 60 43 l 1
 60 41 l 1
63 41 m 1
 61 41 l 1
 61 43 l 1
 63 43 l 1
 63 41 l 1
EndSplineSet
Ligature2: "'liga' Standard Ligatures in Latin lookup 0-1" three zero zero two three
LCarets2: 1 0
EndChar

StartChar: custom_3_0_0_2_4
Encoding: 9280 -1 9035
Width: 70
Flags: H
LayerCount: 2
Fore
SplineSet
17 25 m 1
 15 25 l 1
 15 27 l 1
 17 27 l 1
 17 25 l 1
17 29 m 1
 15 29 l 1
 15 31 l 1
 17 31 l 1
 17 29 l 1
23 25 m 1
 21 25 l 1
 21 27 l 1
 23 27 l 1
 23 25 l 1
17 33 m 1
 15 33 l 1
 15 35 l 1
 17 35 l 1
 17 33 l 1
17 37 m 1
 15 37 l 1
 15 39 l 1
 17 39 l 1
 17 37 l 1
23 33 m 1
 21 33 l 1
 21 35 l 1
 23 35 l 1
 23 33 l 1
23 37 m 1
 21 37 l 1
 21 39 l 1
 23 39 l 1
 23 37 l 1
26 25 m 1
 24 25 l 1
 24 27 l 1
 25 27 l 1
 25 26 l 1
 26 26 l 1
 26 25 l 1
28 25 m 1
 27 25 l 1
 27 26 l 1
 26 26 l 1
 26 27 l 1
 28 27 l 1
 28 25 l 1
31 25 m 1
 29 25 l 1
 29 27 l 1
 31 27 l 1
 31 25 l 1
31 29 m 1
 29 29 l 1
 29 31 l 1
 31 31 l 1
 31 29 l 1
41 25 m 1
 39 25 l 1
 39 27 l 1
 41 27 l 1
 41 25 l 1
25 33 m 1
 24 33 l 1
 24 35 l 1
 26 35 l 1
 26 34 l 1
 25 34 l 1
 25 33 l 1
28 33 m 1
 26 33 l 1
 26 34 l 1
 27 34 l 1
 27 35 l 1
 28 35 l 1
 28 33 l 1
31 33 m 1
 29 33 l 1
 29 35 l 1
 31 35 l 1
 31 33 l 1
36 31 m 1
 34 31 l 1
 34 33 l 1
 36 33 l 1
 36 31 l 1
41 33 m 1
 39 33 l 1
 39 35 l 1
 41 35 l 1
 41 33 l 1
36 35 m 1
 34 35 l 1
 34 37 l 1
 36 37 l 1
 36 35 l 1
44 25 m 1
 42 25 l 1
 42 27 l 1
 43 27 l 1
 43 26 l 1
 44 26 l 1
 44 25 l 1
46 25 m 1
 45 25 l 1
 45 26 l 1
 44 26 l 1
 44 27 l 1
 46 27 l 1
 46 25 l 1
49 25 m 1
 47 25 l 1
 47 27 l 1
 49 27 l 1
 49 25 l 1
49 29 m 1
 47 29 l 1
 47 31 l 1
 49 31 l 1
 49 29 l 1
55 25 m 1
 53 25 l 1
 53 27 l 1
 55 27 l 1
 55 25 l 1
55 29 m 1
 53 29 l 1
 53 31 l 1
 55 31 l 1
 55 29 l 1
43 33 m 1
 42 33 l 1
 42 35 l 1
 44 35 l 1
 44 34 l 1
 43 34 l 1
 43 33 l 1
46 33 m 1
 44 33 l 1
 44 34 l 1
 45 34 l 1
 45 35 l 1
 46 35 l 1
 46 33 l 1
49 33 m 1
 47 33 l 1
 47 35 l 1
 49 35 l 1
 49 33 l 1
49 37 m 1
 47 37 l 1
 47 39 l 1
 49 39 l 1
 49 37 l 1
55 33 m 1
 53 33 l 1
 53 35 l 1
 55 35 l 1
 55 33 l 1
55 37 m 1
 53 37 l 1
 53 39 l 1
 55 39 l 1
 55 37 l 1
58 25 m 1
 56 25 l 1
 56 27 l 1
 57 27 l 1
 57 26 l 1
 58 26 l 1
 58 25 l 1
60 25 m 1
 59 25 l 1
 59 26 l 1
 58 26 l 1
 58 27 l 1
 60 27 l 1
 60 25 l 1
63 25 m 1
 61 25 l 1
 61 27 l 1
 63 27 l 1
 63 25 l 1
63 29 m 1
 61 29 l 1
 61 31 l 1
 63 31 l 1
 63 29 l 1
63 33 m 1
 61 33 l 1
 61 35 l 1
 63 35 l 1
 63 33 l 1
63 37 m 1
 61 37 l 1
 61 39 l 1
 63 39 l 1
 63 37 l 1
17 41 m 1
 15 41 l 1
 15 43 l 1
 17 43 l 1
 17 41 l 1
23 41 m 1
 21 41 l 1
 21 43 l 1
 23 43 l 1
 23 41 l 1
26 41 m 1
 24 41 l 1
 24 43 l 1
 25 43 l 1
 25 42 l 1
 26 42 l 1
 26 41 l 1
28 41 m 1
 27 41 l 1
 27 42 l 1
 26 42 l 1
 26 43 l 1
 28 43 l 1
 28 41 l 1
31 41 m 1
 29 41 l 1
 29 43 l 1
 31 43 l 1
 31 41 l 1
41 41 m 1
 39 41 l 1
 39 43 l 1
 41 43 l 1
 41 41 l 1
44 41 m 1
 42 41 l 1
 42 43 l 1
 43 43 l 1
 43 42 l 1
 44 42 l 1
 44 41 l 1
46 41 m 1
 45 41 l 1
 45 42 l 1
 44 42 l 1
 44 43 l 1
 46 43 l 1
 46 41 l 1
49 41 m 1
 47 41 l 1
 47 43 l 1
 49 43 l 1
 49 41 l 1
55 41 m 1
 53 41 l 1
 53 43 l 1
 55 43 l 1
 55 41 l 1
58 41 m 1
 56 41 l 1
 56 43 l 1
 57 43 l 1
 57 42 l 1
 58 42 l 1
 58 41 l 1
60 41 m 1
 59 41 l 1
 59 42 l 1
 58 42 l 1
 58 43 l 1
 60 43 l 1
 60 41 l 1
63 41 m 1
 61 41 l 1
 61 43 l 1
 63 43 l 1
 63 41 l 1
EndSplineSet
Ligature2: "'liga' Standard Ligatures in Latin lookup 0-1" three zero zero two four
LCarets2: 1 0
EndChar

StartChar: custom_3_0_0_2_5
Encoding: 9281 -1 9036
Width: 70
Flags: H
LayerCount: 2
Fore
SplineSet
17 25 m 1
 15 25 l 1
 15 27 l 1
 17 27 l 1
 17 25 l 1
17 29 m 1
 15 29 l 1
 15 31 l 1
 17 31 l 1
 17 29 l 1
23 25 m 1
 21 25 l 1
 21 27 l 1
 23 27 l 1
 23 25 l 1
17 33 m 1
 15 33 l 1
 15 35 l 1
 17 35 l 1
 17 33 l 1
17 37 m 1
 15 37 l 1
 15 39 l 1
 17 39 l 1
 17 37 l 1
23 33 m 1
 21 33 l 1
 21 35 l 1
 23 35 l 1
 23 33 l 1
23 37 m 1
 21 37 l 1
 21 39 l 1
 23 39 l 1
 23 37 l 1
26 25 m 1
 24 25 l 1
 24 27 l 1
 25 27 l 1
 25 26 l 1
 26 26 l 1
 26 25 l 1
28 25 m 1
 27 25 l 1
 27 26 l 1
 26 26 l 1
 26 27 l 1
 28 27 l 1
 28 25 l 1
31 25 m 1
 29 25 l 1
 29 27 l 1
 31 27 l 1
 31 25 l 1
31 29 m 1
 29 29 l 1
 29 31 l 1
 31 31 l 1
 31 29 l 1
41 25 m 1
 39 25 l 1
 39 27 l 1
 41 27 l 1
 41 25 l 1
25 33 m 1
 24 33 l 1
 24 35 l 1
 26 35 l 1
 26 34 l 1
 25 34 l 1
 25 33 l 1
28 33 m 1
 26 33 l 1
 26 34 l 1
 27 34 l 1
 27 35 l 1
 28 35 l 1
 28 33 l 1
31 33 m 1
 29 33 l 1
 29 35 l 1
 31 35 l 1
 31 33 l 1
36 31 m 1
 34 31 l 1
 34 33 l 1
 36 33 l 1
 36 31 l 1
41 33 m 1
 39 33 l 1
 39 35 l 1
 41 35 l 1
 41 33 l 1
36 35 m 1
 34 35 l 1
 34 37 l 1
 36 37 l 1
 36 35 l 1
44 25 m 1
 42 25 l 1
 42 27 l 1
 43 27 l 1
 43 26 l 1
 44 26 l 1
 44 25 l 1
46 25 m 1
 45 25 l 1
 45 26 l 1
 44 26 l 1
 44 27 l 1
 46 27 l 1
 46 25 l 1
49 25 m 1
 47 25 l 1
 47 27 l 1
 49 27 l 1
 49 25 l 1
49 29 m 1
 47 29 l 1
 47 31 l 1
 49 31 l 1
 49 29 l 1
55 25 m 1
 53 25 l 1
 53 27 l 1
 55 27 l 1
 55 25 l 1
55 29 m 1
 53 29 l 1
 53 31 l 1
 55 31 l 1
 55 29 l 1
43 33 m 1
 42 33 l 1
 42 35 l 1
 44 35 l 1
 44 34 l 1
 43 34 l 1
 43 33 l 1
46 33 m 1
 44 33 l 1
 44 34 l 1
 45 34 l 1
 45 35 l 1
 46 35 l 1
 46 33 l 1
49 33 m 1
 47 33 l 1
 47 35 l 1
 49 35 l 1
 49 33 l 1
49 37 m 1
 47 37 l 1
 47 39 l 1
 49 39 l 1
 49 37 l 1
55 33 m 1
 53 33 l 1
 53 35 l 1
 55 35 l 1
 55 33 l 1
55 37 m 1
 53 37 l 1
 53 39 l 1
 55 39 l 1
 55 37 l 1
58 25 m 1
 56 25 l 1
 56 27 l 1
 57 27 l 1
 57 26 l 1
 58 26 l 1
 58 25 l 1
60 25 m 1
 59 25 l 1
 59 26 l 1
 58 26 l 1
 58 27 l 1
 60 27 l 1
 60 25 l 1
63 25 m 1
 61 25 l 1
 61 27 l 1
 63 27 l 1
 63 25 l 1
63 29 m 1
 61 29 l 1
 61 31 l 1
 63 31 l 1
 63 29 l 1
63 33 m 1
 61 33 l 1
 61 35 l 1
 63 35 l 1
 63 33 l 1
63 37 m 1
 61 37 l 1
 61 39 l 1
 63 39 l 1
 63 37 l 1
17 41 m 1
 15 41 l 1
 15 43 l 1
 17 43 l 1
 17 41 l 1
23 41 m 1
 21 41 l 1
 21 43 l 1
 23 43 l 1
 23 41 l 1
26 41 m 1
 24 41 l 1
 24 43 l 1
 25 43 l 1
 25 42 l 1
 26 42 l 1
 26 41 l 1
28 41 m 1
 27 41 l 1
 27 42 l 1
 26 42 l 1
 26 43 l 1
 28 43 l 1
 28 41 l 1
31 41 m 1
 29 41 l 1
 29 43 l 1
 31 43 l 1
 31 41 l 1
41 41 m 1
 39 41 l 1
 39 43 l 1
 41 43 l 1
 41 41 l 1
44 41 m 1
 42 41 l 1
 42 43 l 1
 43 43 l 1
 43 42 l 1
 44 42 l 1
 44 41 l 1
46 41 m 1
 45 41 l 1
 45 42 l 1
 44 42 l 1
 44 43 l 1
 46 43 l 1
 46 41 l 1
49 41 m 1
 47 41 l 1
 47 43 l 1
 49 43 l 1
 49 41 l 1
55 41 m 1
 53 41 l 1
 53 43 l 1
 55 43 l 1
 55 41 l 1
58 41 m 1
 56 41 l 1
 56 43 l 1
 57 43 l 1
 57 42 l 1
 58 42 l 1
 58 41 l 1
60 41 m 1
 59 41 l 1
 59 42 l 1
 58 42 l 1
 58 43 l 1
 60 43 l 1
 60 41 l 1
63 41 m 1
 61 41 l 1
 61 43 l 1
 63 43 l 1
 63 41 l 1
EndSplineSet
Ligature2: "'liga' Standard Ligatures in Latin lookup 0-1" three zero zero two five
LCarets2: 1 0
EndChar

StartChar: custom_3_0_0_2_6
Encoding: 9282 -1 9037
Width: 70
Flags: H
LayerCount: 2
Fore
SplineSet
17 25 m 1
 15 25 l 1
 15 27 l 1
 17 27 l 1
 17 25 l 1
17 29 m 1
 15 29 l 1
 15 31 l 1
 17 31 l 1
 17 29 l 1
23 25 m 1
 21 25 l 1
 21 27 l 1
 23 27 l 1
 23 25 l 1
17 33 m 1
 15 33 l 1
 15 35 l 1
 17 35 l 1
 17 33 l 1
17 37 m 1
 15 37 l 1
 15 39 l 1
 17 39 l 1
 17 37 l 1
23 33 m 1
 21 33 l 1
 21 35 l 1
 23 35 l 1
 23 33 l 1
23 37 m 1
 21 37 l 1
 21 39 l 1
 23 39 l 1
 23 37 l 1
26 25 m 1
 24 25 l 1
 24 27 l 1
 25 27 l 1
 25 26 l 1
 26 26 l 1
 26 25 l 1
28 25 m 1
 27 25 l 1
 27 26 l 1
 26 26 l 1
 26 27 l 1
 28 27 l 1
 28 25 l 1
31 25 m 1
 29 25 l 1
 29 27 l 1
 31 27 l 1
 31 25 l 1
31 29 m 1
 29 29 l 1
 29 31 l 1
 31 31 l 1
 31 29 l 1
41 25 m 1
 39 25 l 1
 39 27 l 1
 41 27 l 1
 41 25 l 1
25 33 m 1
 24 33 l 1
 24 35 l 1
 26 35 l 1
 26 34 l 1
 25 34 l 1
 25 33 l 1
28 33 m 1
 26 33 l 1
 26 34 l 1
 27 34 l 1
 27 35 l 1
 28 35 l 1
 28 33 l 1
31 33 m 1
 29 33 l 1
 29 35 l 1
 31 35 l 1
 31 33 l 1
36 31 m 1
 34 31 l 1
 34 33 l 1
 36 33 l 1
 36 31 l 1
41 33 m 1
 39 33 l 1
 39 35 l 1
 41 35 l 1
 41 33 l 1
36 35 m 1
 34 35 l 1
 34 37 l 1
 36 37 l 1
 36 35 l 1
44 25 m 1
 42 25 l 1
 42 27 l 1
 43 27 l 1
 43 26 l 1
 44 26 l 1
 44 25 l 1
46 25 m 1
 45 25 l 1
 45 26 l 1
 44 26 l 1
 44 27 l 1
 46 27 l 1
 46 25 l 1
49 25 m 1
 47 25 l 1
 47 27 l 1
 49 27 l 1
 49 25 l 1
49 29 m 1
 47 29 l 1
 47 31 l 1
 49 31 l 1
 49 29 l 1
55 25 m 1
 53 25 l 1
 53 27 l 1
 55 27 l 1
 55 25 l 1
55 29 m 1
 53 29 l 1
 53 31 l 1
 55 31 l 1
 55 29 l 1
43 33 m 1
 42 33 l 1
 42 35 l 1
 44 35 l 1
 44 34 l 1
 43 34 l 1
 43 33 l 1
46 33 m 1
 44 33 l 1
 44 34 l 1
 45 34 l 1
 45 35 l 1
 46 35 l 1
 46 33 l 1
49 33 m 1
 47 33 l 1
 47 35 l 1
 49 35 l 1
 49 33 l 1
49 37 m 1
 47 37 l 1
 47 39 l 1
 49 39 l 1
 49 37 l 1
55 33 m 1
 53 33 l 1
 53 35 l 1
 55 35 l 1
 55 33 l 1
55 37 m 1
 53 37 l 1
 53 39 l 1
 55 39 l 1
 55 37 l 1
58 25 m 1
 56 25 l 1
 56 27 l 1
 57 27 l 1
 57 26 l 1
 58 26 l 1
 58 25 l 1
60 25 m 1
 59 25 l 1
 59 26 l 1
 58 26 l 1
 58 27 l 1
 60 27 l 1
 60 25 l 1
63 25 m 1
 61 25 l 1
 61 27 l 1
 63 27 l 1
 63 25 l 1
63 29 m 1
 61 29 l 1
 61 31 l 1
 63 31 l 1
 63 29 l 1
63 33 m 1
 61 33 l 1
 61 35 l 1
 63 35 l 1
 63 33 l 1
63 37 m 1
 61 37 l 1
 61 39 l 1
 63 39 l 1
 63 37 l 1
17 41 m 1
 15 41 l 1
 15 43 l 1
 17 43 l 1
 17 41 l 1
23 41 m 1
 21 41 l 1
 21 43 l 1
 23 43 l 1
 23 41 l 1
26 41 m 1
 24 41 l 1
 24 43 l 1
 25 43 l 1
 25 42 l 1
 26 42 l 1
 26 41 l 1
28 41 m 1
 27 41 l 1
 27 42 l 1
 26 42 l 1
 26 43 l 1
 28 43 l 1
 28 41 l 1
31 41 m 1
 29 41 l 1
 29 43 l 1
 31 43 l 1
 31 41 l 1
41 41 m 1
 39 41 l 1
 39 43 l 1
 41 43 l 1
 41 41 l 1
44 41 m 1
 42 41 l 1
 42 43 l 1
 43 43 l 1
 43 42 l 1
 44 42 l 1
 44 41 l 1
46 41 m 1
 45 41 l 1
 45 42 l 1
 44 42 l 1
 44 43 l 1
 46 43 l 1
 46 41 l 1
49 41 m 1
 47 41 l 1
 47 43 l 1
 49 43 l 1
 49 41 l 1
55 41 m 1
 53 41 l 1
 53 43 l 1
 55 43 l 1
 55 41 l 1
58 41 m 1
 56 41 l 1
 56 43 l 1
 57 43 l 1
 57 42 l 1
 58 42 l 1
 58 41 l 1
60 41 m 1
 59 41 l 1
 59 42 l 1
 58 42 l 1
 58 43 l 1
 60 43 l 1
 60 41 l 1
63 41 m 1
 61 41 l 1
 61 43 l 1
 63 43 l 1
 63 41 l 1
EndSplineSet
Ligature2: "'liga' Standard Ligatures in Latin lookup 0-1" three zero zero two six
LCarets2: 1 0
EndChar

StartChar: custom_3_0_0_2_7
Encoding: 9283 -1 9038
Width: 70
Flags: H
LayerCount: 2
Fore
SplineSet
17 25 m 1
 15 25 l 1
 15 27 l 1
 17 27 l 1
 17 25 l 1
17 29 m 1
 15 29 l 1
 15 31 l 1
 17 31 l 1
 17 29 l 1
23 25 m 1
 21 25 l 1
 21 27 l 1
 23 27 l 1
 23 25 l 1
17 33 m 1
 15 33 l 1
 15 35 l 1
 17 35 l 1
 17 33 l 1
17 37 m 1
 15 37 l 1
 15 39 l 1
 17 39 l 1
 17 37 l 1
23 33 m 1
 21 33 l 1
 21 35 l 1
 23 35 l 1
 23 33 l 1
23 37 m 1
 21 37 l 1
 21 39 l 1
 23 39 l 1
 23 37 l 1
26 25 m 1
 24 25 l 1
 24 27 l 1
 25 27 l 1
 25 26 l 1
 26 26 l 1
 26 25 l 1
28 25 m 1
 27 25 l 1
 27 26 l 1
 26 26 l 1
 26 27 l 1
 28 27 l 1
 28 25 l 1
31 25 m 1
 29 25 l 1
 29 27 l 1
 31 27 l 1
 31 25 l 1
31 29 m 1
 29 29 l 1
 29 31 l 1
 31 31 l 1
 31 29 l 1
41 25 m 1
 39 25 l 1
 39 27 l 1
 41 27 l 1
 41 25 l 1
25 33 m 1
 24 33 l 1
 24 35 l 1
 26 35 l 1
 26 34 l 1
 25 34 l 1
 25 33 l 1
28 33 m 1
 26 33 l 1
 26 34 l 1
 27 34 l 1
 27 35 l 1
 28 35 l 1
 28 33 l 1
31 33 m 1
 29 33 l 1
 29 35 l 1
 31 35 l 1
 31 33 l 1
36 31 m 1
 34 31 l 1
 34 33 l 1
 36 33 l 1
 36 31 l 1
41 33 m 1
 39 33 l 1
 39 35 l 1
 41 35 l 1
 41 33 l 1
36 35 m 1
 34 35 l 1
 34 37 l 1
 36 37 l 1
 36 35 l 1
44 25 m 1
 42 25 l 1
 42 27 l 1
 43 27 l 1
 43 26 l 1
 44 26 l 1
 44 25 l 1
46 25 m 1
 45 25 l 1
 45 26 l 1
 44 26 l 1
 44 27 l 1
 46 27 l 1
 46 25 l 1
49 25 m 1
 47 25 l 1
 47 27 l 1
 49 27 l 1
 49 25 l 1
49 29 m 1
 47 29 l 1
 47 31 l 1
 49 31 l 1
 49 29 l 1
55 25 m 1
 53 25 l 1
 53 27 l 1
 55 27 l 1
 55 25 l 1
55 29 m 1
 53 29 l 1
 53 31 l 1
 55 31 l 1
 55 29 l 1
43 33 m 1
 42 33 l 1
 42 35 l 1
 44 35 l 1
 44 34 l 1
 43 34 l 1
 43 33 l 1
46 33 m 1
 44 33 l 1
 44 34 l 1
 45 34 l 1
 45 35 l 1
 46 35 l 1
 46 33 l 1
49 33 m 1
 47 33 l 1
 47 35 l 1
 49 35 l 1
 49 33 l 1
49 37 m 1
 47 37 l 1
 47 39 l 1
 49 39 l 1
 49 37 l 1
55 33 m 1
 53 33 l 1
 53 35 l 1
 55 35 l 1
 55 33 l 1
55 37 m 1
 53 37 l 1
 53 39 l 1
 55 39 l 1
 55 37 l 1
58 25 m 1
 56 25 l 1
 56 27 l 1
 57 27 l 1
 57 26 l 1
 58 26 l 1
 58 25 l 1
60 25 m 1
 59 25 l 1
 59 26 l 1
 58 26 l 1
 58 27 l 1
 60 27 l 1
 60 25 l 1
63 25 m 1
 61 25 l 1
 61 27 l 1
 63 27 l 1
 63 25 l 1
63 29 m 1
 61 29 l 1
 61 31 l 1
 63 31 l 1
 63 29 l 1
63 33 m 1
 61 33 l 1
 61 35 l 1
 63 35 l 1
 63 33 l 1
63 37 m 1
 61 37 l 1
 61 39 l 1
 63 39 l 1
 63 37 l 1
17 41 m 1
 15 41 l 1
 15 43 l 1
 17 43 l 1
 17 41 l 1
23 41 m 1
 21 41 l 1
 21 43 l 1
 23 43 l 1
 23 41 l 1
26 41 m 1
 24 41 l 1
 24 43 l 1
 25 43 l 1
 25 42 l 1
 26 42 l 1
 26 41 l 1
28 41 m 1
 27 41 l 1
 27 42 l 1
 26 42 l 1
 26 43 l 1
 28 43 l 1
 28 41 l 1
31 41 m 1
 29 41 l 1
 29 43 l 1
 31 43 l 1
 31 41 l 1
41 41 m 1
 39 41 l 1
 39 43 l 1
 41 43 l 1
 41 41 l 1
44 41 m 1
 42 41 l 1
 42 43 l 1
 43 43 l 1
 43 42 l 1
 44 42 l 1
 44 41 l 1
46 41 m 1
 45 41 l 1
 45 42 l 1
 44 42 l 1
 44 43 l 1
 46 43 l 1
 46 41 l 1
49 41 m 1
 47 41 l 1
 47 43 l 1
 49 43 l 1
 49 41 l 1
55 41 m 1
 53 41 l 1
 53 43 l 1
 55 43 l 1
 55 41 l 1
58 41 m 1
 56 41 l 1
 56 43 l 1
 57 43 l 1
 57 42 l 1
 58 42 l 1
 58 41 l 1
60 41 m 1
 59 41 l 1
 59 42 l 1
 58 42 l 1
 58 43 l 1
 60 43 l 1
 60 41 l 1
63 41 m 1
 61 41 l 1
 61 43 l 1
 63 43 l 1
 63 41 l 1
EndSplineSet
Ligature2: "'liga' Standard Ligatures in Latin lookup 0-1" three zero zero two seven
LCarets2: 1 0
EndChar

StartChar: custom_3_0_0_2_8
Encoding: 9284 -1 9039
Width: 70
Flags: H
LayerCount: 2
Fore
SplineSet
17 25 m 1
 15 25 l 1
 15 27 l 1
 17 27 l 1
 17 25 l 1
17 29 m 1
 15 29 l 1
 15 31 l 1
 17 31 l 1
 17 29 l 1
23 25 m 1
 21 25 l 1
 21 27 l 1
 23 27 l 1
 23 25 l 1
17 33 m 1
 15 33 l 1
 15 35 l 1
 17 35 l 1
 17 33 l 1
17 37 m 1
 15 37 l 1
 15 39 l 1
 17 39 l 1
 17 37 l 1
23 33 m 1
 21 33 l 1
 21 35 l 1
 23 35 l 1
 23 33 l 1
23 37 m 1
 21 37 l 1
 21 39 l 1
 23 39 l 1
 23 37 l 1
26 25 m 1
 24 25 l 1
 24 27 l 1
 25 27 l 1
 25 26 l 1
 26 26 l 1
 26 25 l 1
28 25 m 1
 27 25 l 1
 27 26 l 1
 26 26 l 1
 26 27 l 1
 28 27 l 1
 28 25 l 1
31 25 m 1
 29 25 l 1
 29 27 l 1
 31 27 l 1
 31 25 l 1
31 29 m 1
 29 29 l 1
 29 31 l 1
 31 31 l 1
 31 29 l 1
41 25 m 1
 39 25 l 1
 39 27 l 1
 41 27 l 1
 41 25 l 1
25 33 m 1
 24 33 l 1
 24 35 l 1
 26 35 l 1
 26 34 l 1
 25 34 l 1
 25 33 l 1
28 33 m 1
 26 33 l 1
 26 34 l 1
 27 34 l 1
 27 35 l 1
 28 35 l 1
 28 33 l 1
31 33 m 1
 29 33 l 1
 29 35 l 1
 31 35 l 1
 31 33 l 1
36 31 m 1
 34 31 l 1
 34 33 l 1
 36 33 l 1
 36 31 l 1
41 33 m 1
 39 33 l 1
 39 35 l 1
 41 35 l 1
 41 33 l 1
36 35 m 1
 34 35 l 1
 34 37 l 1
 36 37 l 1
 36 35 l 1
44 25 m 1
 42 25 l 1
 42 27 l 1
 43 27 l 1
 43 26 l 1
 44 26 l 1
 44 25 l 1
46 25 m 1
 45 25 l 1
 45 26 l 1
 44 26 l 1
 44 27 l 1
 46 27 l 1
 46 25 l 1
49 25 m 1
 47 25 l 1
 47 27 l 1
 49 27 l 1
 49 25 l 1
49 29 m 1
 47 29 l 1
 47 31 l 1
 49 31 l 1
 49 29 l 1
55 25 m 1
 53 25 l 1
 53 27 l 1
 55 27 l 1
 55 25 l 1
55 29 m 1
 53 29 l 1
 53 31 l 1
 55 31 l 1
 55 29 l 1
43 33 m 1
 42 33 l 1
 42 35 l 1
 44 35 l 1
 44 34 l 1
 43 34 l 1
 43 33 l 1
46 33 m 1
 44 33 l 1
 44 34 l 1
 45 34 l 1
 45 35 l 1
 46 35 l 1
 46 33 l 1
49 33 m 1
 47 33 l 1
 47 35 l 1
 49 35 l 1
 49 33 l 1
49 37 m 1
 47 37 l 1
 47 39 l 1
 49 39 l 1
 49 37 l 1
55 33 m 1
 53 33 l 1
 53 35 l 1
 55 35 l 1
 55 33 l 1
55 37 m 1
 53 37 l 1
 53 39 l 1
 55 39 l 1
 55 37 l 1
58 25 m 1
 56 25 l 1
 56 27 l 1
 57 27 l 1
 57 26 l 1
 58 26 l 1
 58 25 l 1
60 25 m 1
 59 25 l 1
 59 26 l 1
 58 26 l 1
 58 27 l 1
 60 27 l 1
 60 25 l 1
63 25 m 1
 61 25 l 1
 61 27 l 1
 63 27 l 1
 63 25 l 1
63 29 m 1
 61 29 l 1
 61 31 l 1
 63 31 l 1
 63 29 l 1
63 33 m 1
 61 33 l 1
 61 35 l 1
 63 35 l 1
 63 33 l 1
63 37 m 1
 61 37 l 1
 61 39 l 1
 63 39 l 1
 63 37 l 1
17 41 m 1
 15 41 l 1
 15 43 l 1
 17 43 l 1
 17 41 l 1
23 41 m 1
 21 41 l 1
 21 43 l 1
 23 43 l 1
 23 41 l 1
26 41 m 1
 24 41 l 1
 24 43 l 1
 25 43 l 1
 25 42 l 1
 26 42 l 1
 26 41 l 1
28 41 m 1
 27 41 l 1
 27 42 l 1
 26 42 l 1
 26 43 l 1
 28 43 l 1
 28 41 l 1
31 41 m 1
 29 41 l 1
 29 43 l 1
 31 43 l 1
 31 41 l 1
41 41 m 1
 39 41 l 1
 39 43 l 1
 41 43 l 1
 41 41 l 1
44 41 m 1
 42 41 l 1
 42 43 l 1
 43 43 l 1
 43 42 l 1
 44 42 l 1
 44 41 l 1
46 41 m 1
 45 41 l 1
 45 42 l 1
 44 42 l 1
 44 43 l 1
 46 43 l 1
 46 41 l 1
49 41 m 1
 47 41 l 1
 47 43 l 1
 49 43 l 1
 49 41 l 1
55 41 m 1
 53 41 l 1
 53 43 l 1
 55 43 l 1
 55 41 l 1
58 41 m 1
 56 41 l 1
 56 43 l 1
 57 43 l 1
 57 42 l 1
 58 42 l 1
 58 41 l 1
60 41 m 1
 59 41 l 1
 59 42 l 1
 58 42 l 1
 58 43 l 1
 60 43 l 1
 60 41 l 1
63 41 m 1
 61 41 l 1
 61 43 l 1
 63 43 l 1
 63 41 l 1
EndSplineSet
Ligature2: "'liga' Standard Ligatures in Latin lookup 0-1" three zero zero two eight
LCarets2: 1 0
EndChar

StartChar: custom_3_0_0_2_9
Encoding: 9285 -1 9040
Width: 70
Flags: H
LayerCount: 2
Fore
SplineSet
17 25 m 1
 15 25 l 1
 15 27 l 1
 17 27 l 1
 17 25 l 1
17 29 m 1
 15 29 l 1
 15 31 l 1
 17 31 l 1
 17 29 l 1
23 25 m 1
 21 25 l 1
 21 27 l 1
 23 27 l 1
 23 25 l 1
17 33 m 1
 15 33 l 1
 15 35 l 1
 17 35 l 1
 17 33 l 1
17 37 m 1
 15 37 l 1
 15 39 l 1
 17 39 l 1
 17 37 l 1
23 33 m 1
 21 33 l 1
 21 35 l 1
 23 35 l 1
 23 33 l 1
23 37 m 1
 21 37 l 1
 21 39 l 1
 23 39 l 1
 23 37 l 1
26 25 m 1
 24 25 l 1
 24 27 l 1
 25 27 l 1
 25 26 l 1
 26 26 l 1
 26 25 l 1
28 25 m 1
 27 25 l 1
 27 26 l 1
 26 26 l 1
 26 27 l 1
 28 27 l 1
 28 25 l 1
31 25 m 1
 29 25 l 1
 29 27 l 1
 31 27 l 1
 31 25 l 1
31 29 m 1
 29 29 l 1
 29 31 l 1
 31 31 l 1
 31 29 l 1
41 25 m 1
 39 25 l 1
 39 27 l 1
 41 27 l 1
 41 25 l 1
25 33 m 1
 24 33 l 1
 24 35 l 1
 26 35 l 1
 26 34 l 1
 25 34 l 1
 25 33 l 1
28 33 m 1
 26 33 l 1
 26 34 l 1
 27 34 l 1
 27 35 l 1
 28 35 l 1
 28 33 l 1
31 33 m 1
 29 33 l 1
 29 35 l 1
 31 35 l 1
 31 33 l 1
36 31 m 1
 34 31 l 1
 34 33 l 1
 36 33 l 1
 36 31 l 1
41 33 m 1
 39 33 l 1
 39 35 l 1
 41 35 l 1
 41 33 l 1
36 35 m 1
 34 35 l 1
 34 37 l 1
 36 37 l 1
 36 35 l 1
44 25 m 1
 42 25 l 1
 42 27 l 1
 43 27 l 1
 43 26 l 1
 44 26 l 1
 44 25 l 1
46 25 m 1
 45 25 l 1
 45 26 l 1
 44 26 l 1
 44 27 l 1
 46 27 l 1
 46 25 l 1
49 25 m 1
 47 25 l 1
 47 27 l 1
 49 27 l 1
 49 25 l 1
49 29 m 1
 47 29 l 1
 47 31 l 1
 49 31 l 1
 49 29 l 1
55 25 m 1
 53 25 l 1
 53 27 l 1
 55 27 l 1
 55 25 l 1
55 29 m 1
 53 29 l 1
 53 31 l 1
 55 31 l 1
 55 29 l 1
43 33 m 1
 42 33 l 1
 42 35 l 1
 44 35 l 1
 44 34 l 1
 43 34 l 1
 43 33 l 1
46 33 m 1
 44 33 l 1
 44 34 l 1
 45 34 l 1
 45 35 l 1
 46 35 l 1
 46 33 l 1
49 33 m 1
 47 33 l 1
 47 35 l 1
 49 35 l 1
 49 33 l 1
49 37 m 1
 47 37 l 1
 47 39 l 1
 49 39 l 1
 49 37 l 1
55 33 m 1
 53 33 l 1
 53 35 l 1
 55 35 l 1
 55 33 l 1
55 37 m 1
 53 37 l 1
 53 39 l 1
 55 39 l 1
 55 37 l 1
58 25 m 1
 56 25 l 1
 56 27 l 1
 57 27 l 1
 57 26 l 1
 58 26 l 1
 58 25 l 1
60 25 m 1
 59 25 l 1
 59 26 l 1
 58 26 l 1
 58 27 l 1
 60 27 l 1
 60 25 l 1
63 25 m 1
 61 25 l 1
 61 27 l 1
 63 27 l 1
 63 25 l 1
63 29 m 1
 61 29 l 1
 61 31 l 1
 63 31 l 1
 63 29 l 1
63 33 m 1
 61 33 l 1
 61 35 l 1
 63 35 l 1
 63 33 l 1
63 37 m 1
 61 37 l 1
 61 39 l 1
 63 39 l 1
 63 37 l 1
17 41 m 1
 15 41 l 1
 15 43 l 1
 17 43 l 1
 17 41 l 1
23 41 m 1
 21 41 l 1
 21 43 l 1
 23 43 l 1
 23 41 l 1
26 41 m 1
 24 41 l 1
 24 43 l 1
 25 43 l 1
 25 42 l 1
 26 42 l 1
 26 41 l 1
28 41 m 1
 27 41 l 1
 27 42 l 1
 26 42 l 1
 26 43 l 1
 28 43 l 1
 28 41 l 1
31 41 m 1
 29 41 l 1
 29 43 l 1
 31 43 l 1
 31 41 l 1
41 41 m 1
 39 41 l 1
 39 43 l 1
 41 43 l 1
 41 41 l 1
44 41 m 1
 42 41 l 1
 42 43 l 1
 43 43 l 1
 43 42 l 1
 44 42 l 1
 44 41 l 1
46 41 m 1
 45 41 l 1
 45 42 l 1
 44 42 l 1
 44 43 l 1
 46 43 l 1
 46 41 l 1
49 41 m 1
 47 41 l 1
 47 43 l 1
 49 43 l 1
 49 41 l 1
55 41 m 1
 53 41 l 1
 53 43 l 1
 55 43 l 1
 55 41 l 1
58 41 m 1
 56 41 l 1
 56 43 l 1
 57 43 l 1
 57 42 l 1
 58 42 l 1
 58 41 l 1
60 41 m 1
 59 41 l 1
 59 42 l 1
 58 42 l 1
 58 43 l 1
 60 43 l 1
 60 41 l 1
63 41 m 1
 61 41 l 1
 61 43 l 1
 63 43 l 1
 63 41 l 1
EndSplineSet
Ligature2: "'liga' Standard Ligatures in Latin lookup 0-1" three zero zero two nine
LCarets2: 1 0
EndChar

StartChar: custom_3_0_0_3_0
Encoding: 9286 -1 9041
Width: 70
Flags: H
LayerCount: 2
Fore
SplineSet
17 25 m 1
 15 25 l 1
 15 27 l 1
 17 27 l 1
 17 25 l 1
17 29 m 1
 15 29 l 1
 15 31 l 1
 17 31 l 1
 17 29 l 1
23 25 m 1
 21 25 l 1
 21 27 l 1
 23 27 l 1
 23 25 l 1
17 33 m 1
 15 33 l 1
 15 35 l 1
 17 35 l 1
 17 33 l 1
17 37 m 1
 15 37 l 1
 15 39 l 1
 17 39 l 1
 17 37 l 1
23 33 m 1
 21 33 l 1
 21 35 l 1
 23 35 l 1
 23 33 l 1
23 37 m 1
 21 37 l 1
 21 39 l 1
 23 39 l 1
 23 37 l 1
26 25 m 1
 24 25 l 1
 24 27 l 1
 25 27 l 1
 25 26 l 1
 26 26 l 1
 26 25 l 1
28 25 m 1
 27 25 l 1
 27 26 l 1
 26 26 l 1
 26 27 l 1
 28 27 l 1
 28 25 l 1
31 25 m 1
 29 25 l 1
 29 27 l 1
 31 27 l 1
 31 25 l 1
31 29 m 1
 29 29 l 1
 29 31 l 1
 31 31 l 1
 31 29 l 1
41 25 m 1
 39 25 l 1
 39 27 l 1
 41 27 l 1
 41 25 l 1
25 33 m 1
 24 33 l 1
 24 35 l 1
 26 35 l 1
 26 34 l 1
 25 34 l 1
 25 33 l 1
28 33 m 1
 26 33 l 1
 26 34 l 1
 27 34 l 1
 27 35 l 1
 28 35 l 1
 28 33 l 1
31 33 m 1
 29 33 l 1
 29 35 l 1
 31 35 l 1
 31 33 l 1
36 31 m 1
 34 31 l 1
 34 33 l 1
 36 33 l 1
 36 31 l 1
41 33 m 1
 39 33 l 1
 39 35 l 1
 41 35 l 1
 41 33 l 1
36 35 m 1
 34 35 l 1
 34 37 l 1
 36 37 l 1
 36 35 l 1
44 25 m 1
 42 25 l 1
 42 27 l 1
 43 27 l 1
 43 26 l 1
 44 26 l 1
 44 25 l 1
46 25 m 1
 45 25 l 1
 45 26 l 1
 44 26 l 1
 44 27 l 1
 46 27 l 1
 46 25 l 1
49 25 m 1
 47 25 l 1
 47 27 l 1
 49 27 l 1
 49 25 l 1
49 29 m 1
 47 29 l 1
 47 31 l 1
 49 31 l 1
 49 29 l 1
55 25 m 1
 53 25 l 1
 53 27 l 1
 55 27 l 1
 55 25 l 1
55 29 m 1
 53 29 l 1
 53 31 l 1
 55 31 l 1
 55 29 l 1
43 33 m 1
 42 33 l 1
 42 35 l 1
 44 35 l 1
 44 34 l 1
 43 34 l 1
 43 33 l 1
46 33 m 1
 44 33 l 1
 44 34 l 1
 45 34 l 1
 45 35 l 1
 46 35 l 1
 46 33 l 1
49 33 m 1
 47 33 l 1
 47 35 l 1
 49 35 l 1
 49 33 l 1
49 37 m 1
 47 37 l 1
 47 39 l 1
 49 39 l 1
 49 37 l 1
55 33 m 1
 53 33 l 1
 53 35 l 1
 55 35 l 1
 55 33 l 1
55 37 m 1
 53 37 l 1
 53 39 l 1
 55 39 l 1
 55 37 l 1
58 25 m 1
 56 25 l 1
 56 27 l 1
 57 27 l 1
 57 26 l 1
 58 26 l 1
 58 25 l 1
60 25 m 1
 59 25 l 1
 59 26 l 1
 58 26 l 1
 58 27 l 1
 60 27 l 1
 60 25 l 1
63 25 m 1
 61 25 l 1
 61 27 l 1
 63 27 l 1
 63 25 l 1
63 29 m 1
 61 29 l 1
 61 31 l 1
 63 31 l 1
 63 29 l 1
63 33 m 1
 61 33 l 1
 61 35 l 1
 63 35 l 1
 63 33 l 1
63 37 m 1
 61 37 l 1
 61 39 l 1
 63 39 l 1
 63 37 l 1
17 41 m 1
 15 41 l 1
 15 43 l 1
 17 43 l 1
 17 41 l 1
23 41 m 1
 21 41 l 1
 21 43 l 1
 23 43 l 1
 23 41 l 1
26 41 m 1
 24 41 l 1
 24 43 l 1
 25 43 l 1
 25 42 l 1
 26 42 l 1
 26 41 l 1
28 41 m 1
 27 41 l 1
 27 42 l 1
 26 42 l 1
 26 43 l 1
 28 43 l 1
 28 41 l 1
31 41 m 1
 29 41 l 1
 29 43 l 1
 31 43 l 1
 31 41 l 1
41 41 m 1
 39 41 l 1
 39 43 l 1
 41 43 l 1
 41 41 l 1
44 41 m 1
 42 41 l 1
 42 43 l 1
 43 43 l 1
 43 42 l 1
 44 42 l 1
 44 41 l 1
46 41 m 1
 45 41 l 1
 45 42 l 1
 44 42 l 1
 44 43 l 1
 46 43 l 1
 46 41 l 1
49 41 m 1
 47 41 l 1
 47 43 l 1
 49 43 l 1
 49 41 l 1
55 41 m 1
 53 41 l 1
 53 43 l 1
 55 43 l 1
 55 41 l 1
58 41 m 1
 56 41 l 1
 56 43 l 1
 57 43 l 1
 57 42 l 1
 58 42 l 1
 58 41 l 1
60 41 m 1
 59 41 l 1
 59 42 l 1
 58 42 l 1
 58 43 l 1
 60 43 l 1
 60 41 l 1
63 41 m 1
 61 41 l 1
 61 43 l 1
 63 43 l 1
 63 41 l 1
EndSplineSet
Ligature2: "'liga' Standard Ligatures in Latin lookup 0-1" three zero zero three zero
LCarets2: 1 0
EndChar

StartChar: custom_3_0_0_3_1
Encoding: 9287 -1 9042
Width: 70
Flags: H
LayerCount: 2
Fore
SplineSet
1 0 m 1
 0 0 l 1
 0 1 l 1
 1 1 l 1
 1 0 l 1
17 25 m 1
 15 25 l 1
 15 27 l 1
 17 27 l 1
 17 25 l 1
17 29 m 1
 15 29 l 1
 15 31 l 1
 17 31 l 1
 17 29 l 1
23 25 m 1
 21 25 l 1
 21 27 l 1
 23 27 l 1
 23 25 l 1
17 33 m 1
 15 33 l 1
 15 35 l 1
 17 35 l 1
 17 33 l 1
17 37 m 1
 15 37 l 1
 15 39 l 1
 17 39 l 1
 17 37 l 1
23 33 m 1
 21 33 l 1
 21 35 l 1
 23 35 l 1
 23 33 l 1
23 37 m 1
 21 37 l 1
 21 39 l 1
 23 39 l 1
 23 37 l 1
26 25 m 1
 24 25 l 1
 24 27 l 1
 25 27 l 1
 25 26 l 1
 26 26 l 1
 26 25 l 1
28 25 m 1
 27 25 l 1
 27 26 l 1
 26 26 l 1
 26 27 l 1
 28 27 l 1
 28 25 l 1
31 25 m 1
 29 25 l 1
 29 27 l 1
 31 27 l 1
 31 25 l 1
31 29 m 1
 29 29 l 1
 29 31 l 1
 31 31 l 1
 31 29 l 1
41 25 m 1
 39 25 l 1
 39 27 l 1
 41 27 l 1
 41 25 l 1
25 33 m 1
 24 33 l 1
 24 35 l 1
 26 35 l 1
 26 34 l 1
 25 34 l 1
 25 33 l 1
28 33 m 1
 26 33 l 1
 26 34 l 1
 27 34 l 1
 27 35 l 1
 28 35 l 1
 28 33 l 1
31 33 m 1
 29 33 l 1
 29 35 l 1
 31 35 l 1
 31 33 l 1
36 31 m 1
 34 31 l 1
 34 33 l 1
 36 33 l 1
 36 31 l 1
41 33 m 1
 39 33 l 1
 39 35 l 1
 41 35 l 1
 41 33 l 1
36 35 m 1
 34 35 l 1
 34 37 l 1
 36 37 l 1
 36 35 l 1
44 25 m 1
 42 25 l 1
 42 27 l 1
 43 27 l 1
 43 26 l 1
 44 26 l 1
 44 25 l 1
46 25 m 1
 45 25 l 1
 45 26 l 1
 44 26 l 1
 44 27 l 1
 46 27 l 1
 46 25 l 1
49 25 m 1
 47 25 l 1
 47 27 l 1
 49 27 l 1
 49 25 l 1
49 29 m 1
 47 29 l 1
 47 31 l 1
 49 31 l 1
 49 29 l 1
55 25 m 1
 53 25 l 1
 53 27 l 1
 55 27 l 1
 55 25 l 1
55 29 m 1
 53 29 l 1
 53 31 l 1
 55 31 l 1
 55 29 l 1
43 33 m 1
 42 33 l 1
 42 35 l 1
 44 35 l 1
 44 34 l 1
 43 34 l 1
 43 33 l 1
46 33 m 1
 44 33 l 1
 44 34 l 1
 45 34 l 1
 45 35 l 1
 46 35 l 1
 46 33 l 1
49 33 m 1
 47 33 l 1
 47 35 l 1
 49 35 l 1
 49 33 l 1
49 37 m 1
 47 37 l 1
 47 39 l 1
 49 39 l 1
 49 37 l 1
55 33 m 1
 53 33 l 1
 53 35 l 1
 55 35 l 1
 55 33 l 1
55 37 m 1
 53 37 l 1
 53 39 l 1
 55 39 l 1
 55 37 l 1
58 25 m 1
 56 25 l 1
 56 27 l 1
 57 27 l 1
 57 26 l 1
 58 26 l 1
 58 25 l 1
60 25 m 1
 59 25 l 1
 59 26 l 1
 58 26 l 1
 58 27 l 1
 60 27 l 1
 60 25 l 1
63 25 m 1
 61 25 l 1
 61 27 l 1
 63 27 l 1
 63 25 l 1
63 29 m 1
 61 29 l 1
 61 31 l 1
 63 31 l 1
 63 29 l 1
63 33 m 1
 61 33 l 1
 61 35 l 1
 63 35 l 1
 63 33 l 1
63 37 m 1
 61 37 l 1
 61 39 l 1
 63 39 l 1
 63 37 l 1
17 41 m 1
 15 41 l 1
 15 43 l 1
 17 43 l 1
 17 41 l 1
23 41 m 1
 21 41 l 1
 21 43 l 1
 23 43 l 1
 23 41 l 1
26 41 m 1
 24 41 l 1
 24 43 l 1
 25 43 l 1
 25 42 l 1
 26 42 l 1
 26 41 l 1
28 41 m 1
 27 41 l 1
 27 42 l 1
 26 42 l 1
 26 43 l 1
 28 43 l 1
 28 41 l 1
31 41 m 1
 29 41 l 1
 29 43 l 1
 31 43 l 1
 31 41 l 1
41 41 m 1
 39 41 l 1
 39 43 l 1
 41 43 l 1
 41 41 l 1
44 41 m 1
 42 41 l 1
 42 43 l 1
 43 43 l 1
 43 42 l 1
 44 42 l 1
 44 41 l 1
46 41 m 1
 45 41 l 1
 45 42 l 1
 44 42 l 1
 44 43 l 1
 46 43 l 1
 46 41 l 1
49 41 m 1
 47 41 l 1
 47 43 l 1
 49 43 l 1
 49 41 l 1
55 41 m 1
 53 41 l 1
 53 43 l 1
 55 43 l 1
 55 41 l 1
58 41 m 1
 56 41 l 1
 56 43 l 1
 57 43 l 1
 57 42 l 1
 58 42 l 1
 58 41 l 1
60 41 m 1
 59 41 l 1
 59 42 l 1
 58 42 l 1
 58 43 l 1
 60 43 l 1
 60 41 l 1
63 41 m 1
 61 41 l 1
 61 43 l 1
 63 43 l 1
 63 41 l 1
EndSplineSet
Ligature2: "'liga' Standard Ligatures in Latin lookup 0-1" three zero zero three one
LCarets2: 1 0
EndChar

StartChar: custom_3_0_0_3_2
Encoding: 9288 -1 9043
Width: 70
Flags: H
LayerCount: 2
Fore
SplineSet
1 0 m 1
 0 0 l 1
 0 1 l 1
 1 1 l 1
 1 0 l 1
17 25 m 1
 15 25 l 1
 15 27 l 1
 17 27 l 1
 17 25 l 1
17 29 m 1
 15 29 l 1
 15 31 l 1
 17 31 l 1
 17 29 l 1
23 25 m 1
 21 25 l 1
 21 27 l 1
 23 27 l 1
 23 25 l 1
17 33 m 1
 15 33 l 1
 15 35 l 1
 17 35 l 1
 17 33 l 1
17 37 m 1
 15 37 l 1
 15 39 l 1
 17 39 l 1
 17 37 l 1
23 33 m 1
 21 33 l 1
 21 35 l 1
 23 35 l 1
 23 33 l 1
23 37 m 1
 21 37 l 1
 21 39 l 1
 23 39 l 1
 23 37 l 1
26 25 m 1
 24 25 l 1
 24 27 l 1
 25 27 l 1
 25 26 l 1
 26 26 l 1
 26 25 l 1
28 25 m 1
 27 25 l 1
 27 26 l 1
 26 26 l 1
 26 27 l 1
 28 27 l 1
 28 25 l 1
31 25 m 1
 29 25 l 1
 29 27 l 1
 31 27 l 1
 31 25 l 1
31 29 m 1
 29 29 l 1
 29 31 l 1
 31 31 l 1
 31 29 l 1
41 25 m 1
 39 25 l 1
 39 27 l 1
 41 27 l 1
 41 25 l 1
25 33 m 1
 24 33 l 1
 24 35 l 1
 26 35 l 1
 26 34 l 1
 25 34 l 1
 25 33 l 1
28 33 m 1
 26 33 l 1
 26 34 l 1
 27 34 l 1
 27 35 l 1
 28 35 l 1
 28 33 l 1
31 33 m 1
 29 33 l 1
 29 35 l 1
 31 35 l 1
 31 33 l 1
36 31 m 1
 34 31 l 1
 34 33 l 1
 36 33 l 1
 36 31 l 1
41 33 m 1
 39 33 l 1
 39 35 l 1
 41 35 l 1
 41 33 l 1
36 35 m 1
 34 35 l 1
 34 37 l 1
 36 37 l 1
 36 35 l 1
44 25 m 1
 42 25 l 1
 42 27 l 1
 43 27 l 1
 43 26 l 1
 44 26 l 1
 44 25 l 1
46 25 m 1
 45 25 l 1
 45 26 l 1
 44 26 l 1
 44 27 l 1
 46 27 l 1
 46 25 l 1
49 25 m 1
 47 25 l 1
 47 27 l 1
 49 27 l 1
 49 25 l 1
49 29 m 1
 47 29 l 1
 47 31 l 1
 49 31 l 1
 49 29 l 1
55 25 m 1
 53 25 l 1
 53 27 l 1
 55 27 l 1
 55 25 l 1
55 29 m 1
 53 29 l 1
 53 31 l 1
 55 31 l 1
 55 29 l 1
43 33 m 1
 42 33 l 1
 42 35 l 1
 44 35 l 1
 44 34 l 1
 43 34 l 1
 43 33 l 1
46 33 m 1
 44 33 l 1
 44 34 l 1
 45 34 l 1
 45 35 l 1
 46 35 l 1
 46 33 l 1
49 33 m 1
 47 33 l 1
 47 35 l 1
 49 35 l 1
 49 33 l 1
49 37 m 1
 47 37 l 1
 47 39 l 1
 49 39 l 1
 49 37 l 1
55 33 m 1
 53 33 l 1
 53 35 l 1
 55 35 l 1
 55 33 l 1
55 37 m 1
 53 37 l 1
 53 39 l 1
 55 39 l 1
 55 37 l 1
58 25 m 1
 56 25 l 1
 56 27 l 1
 57 27 l 1
 57 26 l 1
 58 26 l 1
 58 25 l 1
60 25 m 1
 59 25 l 1
 59 26 l 1
 58 26 l 1
 58 27 l 1
 60 27 l 1
 60 25 l 1
63 25 m 1
 61 25 l 1
 61 27 l 1
 63 27 l 1
 63 25 l 1
63 29 m 1
 61 29 l 1
 61 31 l 1
 63 31 l 1
 63 29 l 1
63 33 m 1
 61 33 l 1
 61 35 l 1
 63 35 l 1
 63 33 l 1
63 37 m 1
 61 37 l 1
 61 39 l 1
 63 39 l 1
 63 37 l 1
17 41 m 1
 15 41 l 1
 15 43 l 1
 17 43 l 1
 17 41 l 1
23 41 m 1
 21 41 l 1
 21 43 l 1
 23 43 l 1
 23 41 l 1
26 41 m 1
 24 41 l 1
 24 43 l 1
 25 43 l 1
 25 42 l 1
 26 42 l 1
 26 41 l 1
28 41 m 1
 27 41 l 1
 27 42 l 1
 26 42 l 1
 26 43 l 1
 28 43 l 1
 28 41 l 1
31 41 m 1
 29 41 l 1
 29 43 l 1
 31 43 l 1
 31 41 l 1
41 41 m 1
 39 41 l 1
 39 43 l 1
 41 43 l 1
 41 41 l 1
44 41 m 1
 42 41 l 1
 42 43 l 1
 43 43 l 1
 43 42 l 1
 44 42 l 1
 44 41 l 1
46 41 m 1
 45 41 l 1
 45 42 l 1
 44 42 l 1
 44 43 l 1
 46 43 l 1
 46 41 l 1
49 41 m 1
 47 41 l 1
 47 43 l 1
 49 43 l 1
 49 41 l 1
55 41 m 1
 53 41 l 1
 53 43 l 1
 55 43 l 1
 55 41 l 1
58 41 m 1
 56 41 l 1
 56 43 l 1
 57 43 l 1
 57 42 l 1
 58 42 l 1
 58 41 l 1
60 41 m 1
 59 41 l 1
 59 42 l 1
 58 42 l 1
 58 43 l 1
 60 43 l 1
 60 41 l 1
63 41 m 1
 61 41 l 1
 61 43 l 1
 63 43 l 1
 63 41 l 1
EndSplineSet
Ligature2: "'liga' Standard Ligatures in Latin lookup 0-1" three zero zero three two
LCarets2: 1 0
EndChar

StartChar: custom_3_0_0_3_3
Encoding: 9289 -1 9044
Width: 70
Flags: H
LayerCount: 2
Fore
SplineSet
1 0 m 1
 0 0 l 1
 0 2 l 1
 1 2 l 1
 1 0 l 1
17 25 m 1
 15 25 l 1
 15 27 l 1
 17 27 l 1
 17 25 l 1
17 29 m 1
 15 29 l 1
 15 31 l 1
 17 31 l 1
 17 29 l 1
23 25 m 1
 21 25 l 1
 21 27 l 1
 23 27 l 1
 23 25 l 1
17 33 m 1
 15 33 l 1
 15 35 l 1
 17 35 l 1
 17 33 l 1
17 37 m 1
 15 37 l 1
 15 39 l 1
 17 39 l 1
 17 37 l 1
23 33 m 1
 21 33 l 1
 21 35 l 1
 23 35 l 1
 23 33 l 1
23 37 m 1
 21 37 l 1
 21 39 l 1
 23 39 l 1
 23 37 l 1
26 25 m 1
 24 25 l 1
 24 27 l 1
 25 27 l 1
 25 26 l 1
 26 26 l 1
 26 25 l 1
28 25 m 1
 27 25 l 1
 27 26 l 1
 26 26 l 1
 26 27 l 1
 28 27 l 1
 28 25 l 1
31 25 m 1
 29 25 l 1
 29 27 l 1
 31 27 l 1
 31 25 l 1
31 29 m 1
 29 29 l 1
 29 31 l 1
 31 31 l 1
 31 29 l 1
41 25 m 1
 39 25 l 1
 39 27 l 1
 41 27 l 1
 41 25 l 1
25 33 m 1
 24 33 l 1
 24 35 l 1
 26 35 l 1
 26 34 l 1
 25 34 l 1
 25 33 l 1
28 33 m 1
 26 33 l 1
 26 34 l 1
 27 34 l 1
 27 35 l 1
 28 35 l 1
 28 33 l 1
31 33 m 1
 29 33 l 1
 29 35 l 1
 31 35 l 1
 31 33 l 1
36 31 m 1
 34 31 l 1
 34 33 l 1
 36 33 l 1
 36 31 l 1
41 33 m 1
 39 33 l 1
 39 35 l 1
 41 35 l 1
 41 33 l 1
36 35 m 1
 34 35 l 1
 34 37 l 1
 36 37 l 1
 36 35 l 1
44 25 m 1
 42 25 l 1
 42 27 l 1
 43 27 l 1
 43 26 l 1
 44 26 l 1
 44 25 l 1
46 25 m 1
 45 25 l 1
 45 26 l 1
 44 26 l 1
 44 27 l 1
 46 27 l 1
 46 25 l 1
49 25 m 1
 47 25 l 1
 47 27 l 1
 49 27 l 1
 49 25 l 1
49 29 m 1
 47 29 l 1
 47 31 l 1
 49 31 l 1
 49 29 l 1
55 25 m 1
 53 25 l 1
 53 27 l 1
 55 27 l 1
 55 25 l 1
55 29 m 1
 53 29 l 1
 53 31 l 1
 55 31 l 1
 55 29 l 1
43 33 m 1
 42 33 l 1
 42 35 l 1
 44 35 l 1
 44 34 l 1
 43 34 l 1
 43 33 l 1
46 33 m 1
 44 33 l 1
 44 34 l 1
 45 34 l 1
 45 35 l 1
 46 35 l 1
 46 33 l 1
49 33 m 1
 47 33 l 1
 47 35 l 1
 49 35 l 1
 49 33 l 1
49 37 m 1
 47 37 l 1
 47 39 l 1
 49 39 l 1
 49 37 l 1
55 33 m 1
 53 33 l 1
 53 35 l 1
 55 35 l 1
 55 33 l 1
55 37 m 1
 53 37 l 1
 53 39 l 1
 55 39 l 1
 55 37 l 1
58 25 m 1
 56 25 l 1
 56 27 l 1
 57 27 l 1
 57 26 l 1
 58 26 l 1
 58 25 l 1
60 25 m 1
 59 25 l 1
 59 26 l 1
 58 26 l 1
 58 27 l 1
 60 27 l 1
 60 25 l 1
63 25 m 1
 61 25 l 1
 61 27 l 1
 63 27 l 1
 63 25 l 1
63 29 m 1
 61 29 l 1
 61 31 l 1
 63 31 l 1
 63 29 l 1
63 33 m 1
 61 33 l 1
 61 35 l 1
 63 35 l 1
 63 33 l 1
63 37 m 1
 61 37 l 1
 61 39 l 1
 63 39 l 1
 63 37 l 1
17 41 m 1
 15 41 l 1
 15 43 l 1
 17 43 l 1
 17 41 l 1
23 41 m 1
 21 41 l 1
 21 43 l 1
 23 43 l 1
 23 41 l 1
26 41 m 1
 24 41 l 1
 24 43 l 1
 25 43 l 1
 25 42 l 1
 26 42 l 1
 26 41 l 1
28 41 m 1
 27 41 l 1
 27 42 l 1
 26 42 l 1
 26 43 l 1
 28 43 l 1
 28 41 l 1
31 41 m 1
 29 41 l 1
 29 43 l 1
 31 43 l 1
 31 41 l 1
41 41 m 1
 39 41 l 1
 39 43 l 1
 41 43 l 1
 41 41 l 1
44 41 m 1
 42 41 l 1
 42 43 l 1
 43 43 l 1
 43 42 l 1
 44 42 l 1
 44 41 l 1
46 41 m 1
 45 41 l 1
 45 42 l 1
 44 42 l 1
 44 43 l 1
 46 43 l 1
 46 41 l 1
49 41 m 1
 47 41 l 1
 47 43 l 1
 49 43 l 1
 49 41 l 1
55 41 m 1
 53 41 l 1
 53 43 l 1
 55 43 l 1
 55 41 l 1
58 41 m 1
 56 41 l 1
 56 43 l 1
 57 43 l 1
 57 42 l 1
 58 42 l 1
 58 41 l 1
60 41 m 1
 59 41 l 1
 59 42 l 1
 58 42 l 1
 58 43 l 1
 60 43 l 1
 60 41 l 1
63 41 m 1
 61 41 l 1
 61 43 l 1
 63 43 l 1
 63 41 l 1
EndSplineSet
Ligature2: "'liga' Standard Ligatures in Latin lookup 0-1" three zero zero three three
LCarets2: 1 0
EndChar

StartChar: custom_3_0_0_3_4
Encoding: 9290 -1 9045
Width: 70
Flags: H
LayerCount: 2
Fore
SplineSet
2 0 m 1
 0 0 l 1
 0 2 l 1
 1 2 l 1
 1 1 l 1
 2 1 l 1
 2 0 l 1
17 25 m 1
 15 25 l 1
 15 27 l 1
 17 27 l 1
 17 25 l 1
17 29 m 1
 15 29 l 1
 15 31 l 1
 17 31 l 1
 17 29 l 1
23 25 m 1
 21 25 l 1
 21 27 l 1
 23 27 l 1
 23 25 l 1
17 33 m 1
 15 33 l 1
 15 35 l 1
 17 35 l 1
 17 33 l 1
17 37 m 1
 15 37 l 1
 15 39 l 1
 17 39 l 1
 17 37 l 1
23 33 m 1
 21 33 l 1
 21 35 l 1
 23 35 l 1
 23 33 l 1
23 37 m 1
 21 37 l 1
 21 39 l 1
 23 39 l 1
 23 37 l 1
26 25 m 1
 24 25 l 1
 24 27 l 1
 25 27 l 1
 25 26 l 1
 26 26 l 1
 26 25 l 1
28 25 m 1
 27 25 l 1
 27 26 l 1
 26 26 l 1
 26 27 l 1
 28 27 l 1
 28 25 l 1
31 25 m 1
 29 25 l 1
 29 27 l 1
 31 27 l 1
 31 25 l 1
31 29 m 1
 29 29 l 1
 29 31 l 1
 31 31 l 1
 31 29 l 1
41 25 m 1
 39 25 l 1
 39 27 l 1
 41 27 l 1
 41 25 l 1
25 33 m 1
 24 33 l 1
 24 35 l 1
 26 35 l 1
 26 34 l 1
 25 34 l 1
 25 33 l 1
28 33 m 1
 26 33 l 1
 26 34 l 1
 27 34 l 1
 27 35 l 1
 28 35 l 1
 28 33 l 1
31 33 m 1
 29 33 l 1
 29 35 l 1
 31 35 l 1
 31 33 l 1
36 31 m 1
 34 31 l 1
 34 33 l 1
 36 33 l 1
 36 31 l 1
41 33 m 1
 39 33 l 1
 39 35 l 1
 41 35 l 1
 41 33 l 1
36 35 m 1
 34 35 l 1
 34 37 l 1
 36 37 l 1
 36 35 l 1
44 25 m 1
 42 25 l 1
 42 27 l 1
 43 27 l 1
 43 26 l 1
 44 26 l 1
 44 25 l 1
46 25 m 1
 45 25 l 1
 45 26 l 1
 44 26 l 1
 44 27 l 1
 46 27 l 1
 46 25 l 1
49 25 m 1
 47 25 l 1
 47 27 l 1
 49 27 l 1
 49 25 l 1
49 29 m 1
 47 29 l 1
 47 31 l 1
 49 31 l 1
 49 29 l 1
55 25 m 1
 53 25 l 1
 53 27 l 1
 55 27 l 1
 55 25 l 1
55 29 m 1
 53 29 l 1
 53 31 l 1
 55 31 l 1
 55 29 l 1
43 33 m 1
 42 33 l 1
 42 35 l 1
 44 35 l 1
 44 34 l 1
 43 34 l 1
 43 33 l 1
46 33 m 1
 44 33 l 1
 44 34 l 1
 45 34 l 1
 45 35 l 1
 46 35 l 1
 46 33 l 1
49 33 m 1
 47 33 l 1
 47 35 l 1
 49 35 l 1
 49 33 l 1
49 37 m 1
 47 37 l 1
 47 39 l 1
 49 39 l 1
 49 37 l 1
55 33 m 1
 53 33 l 1
 53 35 l 1
 55 35 l 1
 55 33 l 1
55 37 m 1
 53 37 l 1
 53 39 l 1
 55 39 l 1
 55 37 l 1
58 25 m 1
 56 25 l 1
 56 27 l 1
 57 27 l 1
 57 26 l 1
 58 26 l 1
 58 25 l 1
60 25 m 1
 59 25 l 1
 59 26 l 1
 58 26 l 1
 58 27 l 1
 60 27 l 1
 60 25 l 1
63 25 m 1
 61 25 l 1
 61 27 l 1
 63 27 l 1
 63 25 l 1
63 29 m 1
 61 29 l 1
 61 31 l 1
 63 31 l 1
 63 29 l 1
63 33 m 1
 61 33 l 1
 61 35 l 1
 63 35 l 1
 63 33 l 1
63 37 m 1
 61 37 l 1
 61 39 l 1
 63 39 l 1
 63 37 l 1
17 41 m 1
 15 41 l 1
 15 43 l 1
 17 43 l 1
 17 41 l 1
23 41 m 1
 21 41 l 1
 21 43 l 1
 23 43 l 1
 23 41 l 1
26 41 m 1
 24 41 l 1
 24 43 l 1
 25 43 l 1
 25 42 l 1
 26 42 l 1
 26 41 l 1
28 41 m 1
 27 41 l 1
 27 42 l 1
 26 42 l 1
 26 43 l 1
 28 43 l 1
 28 41 l 1
31 41 m 1
 29 41 l 1
 29 43 l 1
 31 43 l 1
 31 41 l 1
41 41 m 1
 39 41 l 1
 39 43 l 1
 41 43 l 1
 41 41 l 1
44 41 m 1
 42 41 l 1
 42 43 l 1
 43 43 l 1
 43 42 l 1
 44 42 l 1
 44 41 l 1
46 41 m 1
 45 41 l 1
 45 42 l 1
 44 42 l 1
 44 43 l 1
 46 43 l 1
 46 41 l 1
49 41 m 1
 47 41 l 1
 47 43 l 1
 49 43 l 1
 49 41 l 1
55 41 m 1
 53 41 l 1
 53 43 l 1
 55 43 l 1
 55 41 l 1
58 41 m 1
 56 41 l 1
 56 43 l 1
 57 43 l 1
 57 42 l 1
 58 42 l 1
 58 41 l 1
60 41 m 1
 59 41 l 1
 59 42 l 1
 58 42 l 1
 58 43 l 1
 60 43 l 1
 60 41 l 1
63 41 m 1
 61 41 l 1
 61 43 l 1
 63 43 l 1
 63 41 l 1
EndSplineSet
Ligature2: "'liga' Standard Ligatures in Latin lookup 0-1" three zero zero three four
LCarets2: 1 0
EndChar

StartChar: custom_3_0_0_3_5
Encoding: 9291 -1 9046
Width: 70
Flags: H
LayerCount: 2
Fore
SplineSet
2 0 m 1
 1 0 l 1
 1 1 l 1
 0 1 l 1
 0 2 l 1
 2 2 l 1
 2 0 l 1
17 25 m 1
 15 25 l 1
 15 27 l 1
 17 27 l 1
 17 25 l 1
17 29 m 1
 15 29 l 1
 15 31 l 1
 17 31 l 1
 17 29 l 1
23 25 m 1
 21 25 l 1
 21 27 l 1
 23 27 l 1
 23 25 l 1
17 33 m 1
 15 33 l 1
 15 35 l 1
 17 35 l 1
 17 33 l 1
17 37 m 1
 15 37 l 1
 15 39 l 1
 17 39 l 1
 17 37 l 1
23 33 m 1
 21 33 l 1
 21 35 l 1
 23 35 l 1
 23 33 l 1
23 37 m 1
 21 37 l 1
 21 39 l 1
 23 39 l 1
 23 37 l 1
26 25 m 1
 24 25 l 1
 24 27 l 1
 25 27 l 1
 25 26 l 1
 26 26 l 1
 26 25 l 1
28 25 m 1
 27 25 l 1
 27 26 l 1
 26 26 l 1
 26 27 l 1
 28 27 l 1
 28 25 l 1
31 25 m 1
 29 25 l 1
 29 27 l 1
 31 27 l 1
 31 25 l 1
31 29 m 1
 29 29 l 1
 29 31 l 1
 31 31 l 1
 31 29 l 1
41 25 m 1
 39 25 l 1
 39 27 l 1
 41 27 l 1
 41 25 l 1
25 33 m 1
 24 33 l 1
 24 35 l 1
 26 35 l 1
 26 34 l 1
 25 34 l 1
 25 33 l 1
28 33 m 1
 26 33 l 1
 26 34 l 1
 27 34 l 1
 27 35 l 1
 28 35 l 1
 28 33 l 1
31 33 m 1
 29 33 l 1
 29 35 l 1
 31 35 l 1
 31 33 l 1
36 31 m 1
 34 31 l 1
 34 33 l 1
 36 33 l 1
 36 31 l 1
41 33 m 1
 39 33 l 1
 39 35 l 1
 41 35 l 1
 41 33 l 1
36 35 m 1
 34 35 l 1
 34 37 l 1
 36 37 l 1
 36 35 l 1
44 25 m 1
 42 25 l 1
 42 27 l 1
 43 27 l 1
 43 26 l 1
 44 26 l 1
 44 25 l 1
46 25 m 1
 45 25 l 1
 45 26 l 1
 44 26 l 1
 44 27 l 1
 46 27 l 1
 46 25 l 1
49 25 m 1
 47 25 l 1
 47 27 l 1
 49 27 l 1
 49 25 l 1
49 29 m 1
 47 29 l 1
 47 31 l 1
 49 31 l 1
 49 29 l 1
55 25 m 1
 53 25 l 1
 53 27 l 1
 55 27 l 1
 55 25 l 1
55 29 m 1
 53 29 l 1
 53 31 l 1
 55 31 l 1
 55 29 l 1
43 33 m 1
 42 33 l 1
 42 35 l 1
 44 35 l 1
 44 34 l 1
 43 34 l 1
 43 33 l 1
46 33 m 1
 44 33 l 1
 44 34 l 1
 45 34 l 1
 45 35 l 1
 46 35 l 1
 46 33 l 1
49 33 m 1
 47 33 l 1
 47 35 l 1
 49 35 l 1
 49 33 l 1
49 37 m 1
 47 37 l 1
 47 39 l 1
 49 39 l 1
 49 37 l 1
55 33 m 1
 53 33 l 1
 53 35 l 1
 55 35 l 1
 55 33 l 1
55 37 m 1
 53 37 l 1
 53 39 l 1
 55 39 l 1
 55 37 l 1
58 25 m 1
 56 25 l 1
 56 27 l 1
 57 27 l 1
 57 26 l 1
 58 26 l 1
 58 25 l 1
60 25 m 1
 59 25 l 1
 59 26 l 1
 58 26 l 1
 58 27 l 1
 60 27 l 1
 60 25 l 1
63 25 m 1
 61 25 l 1
 61 27 l 1
 63 27 l 1
 63 25 l 1
63 29 m 1
 61 29 l 1
 61 31 l 1
 63 31 l 1
 63 29 l 1
63 33 m 1
 61 33 l 1
 61 35 l 1
 63 35 l 1
 63 33 l 1
63 37 m 1
 61 37 l 1
 61 39 l 1
 63 39 l 1
 63 37 l 1
17 41 m 1
 15 41 l 1
 15 43 l 1
 17 43 l 1
 17 41 l 1
23 41 m 1
 21 41 l 1
 21 43 l 1
 23 43 l 1
 23 41 l 1
26 41 m 1
 24 41 l 1
 24 43 l 1
 25 43 l 1
 25 42 l 1
 26 42 l 1
 26 41 l 1
28 41 m 1
 27 41 l 1
 27 42 l 1
 26 42 l 1
 26 43 l 1
 28 43 l 1
 28 41 l 1
31 41 m 1
 29 41 l 1
 29 43 l 1
 31 43 l 1
 31 41 l 1
41 41 m 1
 39 41 l 1
 39 43 l 1
 41 43 l 1
 41 41 l 1
44 41 m 1
 42 41 l 1
 42 43 l 1
 43 43 l 1
 43 42 l 1
 44 42 l 1
 44 41 l 1
46 41 m 1
 45 41 l 1
 45 42 l 1
 44 42 l 1
 44 43 l 1
 46 43 l 1
 46 41 l 1
49 41 m 1
 47 41 l 1
 47 43 l 1
 49 43 l 1
 49 41 l 1
55 41 m 1
 53 41 l 1
 53 43 l 1
 55 43 l 1
 55 41 l 1
58 41 m 1
 56 41 l 1
 56 43 l 1
 57 43 l 1
 57 42 l 1
 58 42 l 1
 58 41 l 1
60 41 m 1
 59 41 l 1
 59 42 l 1
 58 42 l 1
 58 43 l 1
 60 43 l 1
 60 41 l 1
63 41 m 1
 61 41 l 1
 61 43 l 1
 63 43 l 1
 63 41 l 1
EndSplineSet
Ligature2: "'liga' Standard Ligatures in Latin lookup 0-1" three zero zero three five
LCarets2: 1 0
EndChar

StartChar: custom_3_0_0_3_6
Encoding: 9292 -1 9047
Width: 70
Flags: H
LayerCount: 2
Fore
SplineSet
2 0 m 1
 1 0 l 1
 1 1 l 1
 0 1 l 1
 0 3 l 1
 1 3 l 1
 1 2 l 1
 2 2 l 1
 2 0 l 1
17 25 m 1
 15 25 l 1
 15 27 l 1
 17 27 l 1
 17 25 l 1
17 29 m 1
 15 29 l 1
 15 31 l 1
 17 31 l 1
 17 29 l 1
23 25 m 1
 21 25 l 1
 21 27 l 1
 23 27 l 1
 23 25 l 1
17 33 m 1
 15 33 l 1
 15 35 l 1
 17 35 l 1
 17 33 l 1
17 37 m 1
 15 37 l 1
 15 39 l 1
 17 39 l 1
 17 37 l 1
23 33 m 1
 21 33 l 1
 21 35 l 1
 23 35 l 1
 23 33 l 1
23 37 m 1
 21 37 l 1
 21 39 l 1
 23 39 l 1
 23 37 l 1
26 25 m 1
 24 25 l 1
 24 27 l 1
 25 27 l 1
 25 26 l 1
 26 26 l 1
 26 25 l 1
28 25 m 1
 27 25 l 1
 27 26 l 1
 26 26 l 1
 26 27 l 1
 28 27 l 1
 28 25 l 1
31 25 m 1
 29 25 l 1
 29 27 l 1
 31 27 l 1
 31 25 l 1
31 29 m 1
 29 29 l 1
 29 31 l 1
 31 31 l 1
 31 29 l 1
41 25 m 1
 39 25 l 1
 39 27 l 1
 41 27 l 1
 41 25 l 1
25 33 m 1
 24 33 l 1
 24 35 l 1
 26 35 l 1
 26 34 l 1
 25 34 l 1
 25 33 l 1
28 33 m 1
 26 33 l 1
 26 34 l 1
 27 34 l 1
 27 35 l 1
 28 35 l 1
 28 33 l 1
31 33 m 1
 29 33 l 1
 29 35 l 1
 31 35 l 1
 31 33 l 1
36 31 m 1
 34 31 l 1
 34 33 l 1
 36 33 l 1
 36 31 l 1
41 33 m 1
 39 33 l 1
 39 35 l 1
 41 35 l 1
 41 33 l 1
36 35 m 1
 34 35 l 1
 34 37 l 1
 36 37 l 1
 36 35 l 1
44 25 m 1
 42 25 l 1
 42 27 l 1
 43 27 l 1
 43 26 l 1
 44 26 l 1
 44 25 l 1
46 25 m 1
 45 25 l 1
 45 26 l 1
 44 26 l 1
 44 27 l 1
 46 27 l 1
 46 25 l 1
49 25 m 1
 47 25 l 1
 47 27 l 1
 49 27 l 1
 49 25 l 1
49 29 m 1
 47 29 l 1
 47 31 l 1
 49 31 l 1
 49 29 l 1
55 25 m 1
 53 25 l 1
 53 27 l 1
 55 27 l 1
 55 25 l 1
55 29 m 1
 53 29 l 1
 53 31 l 1
 55 31 l 1
 55 29 l 1
43 33 m 1
 42 33 l 1
 42 35 l 1
 44 35 l 1
 44 34 l 1
 43 34 l 1
 43 33 l 1
46 33 m 1
 44 33 l 1
 44 34 l 1
 45 34 l 1
 45 35 l 1
 46 35 l 1
 46 33 l 1
49 33 m 1
 47 33 l 1
 47 35 l 1
 49 35 l 1
 49 33 l 1
49 37 m 1
 47 37 l 1
 47 39 l 1
 49 39 l 1
 49 37 l 1
55 33 m 1
 53 33 l 1
 53 35 l 1
 55 35 l 1
 55 33 l 1
55 37 m 1
 53 37 l 1
 53 39 l 1
 55 39 l 1
 55 37 l 1
58 25 m 1
 56 25 l 1
 56 27 l 1
 57 27 l 1
 57 26 l 1
 58 26 l 1
 58 25 l 1
60 25 m 1
 59 25 l 1
 59 26 l 1
 58 26 l 1
 58 27 l 1
 60 27 l 1
 60 25 l 1
63 25 m 1
 61 25 l 1
 61 27 l 1
 63 27 l 1
 63 25 l 1
63 29 m 1
 61 29 l 1
 61 31 l 1
 63 31 l 1
 63 29 l 1
63 33 m 1
 61 33 l 1
 61 35 l 1
 63 35 l 1
 63 33 l 1
63 37 m 1
 61 37 l 1
 61 39 l 1
 63 39 l 1
 63 37 l 1
17 41 m 1
 15 41 l 1
 15 43 l 1
 17 43 l 1
 17 41 l 1
23 41 m 1
 21 41 l 1
 21 43 l 1
 23 43 l 1
 23 41 l 1
26 41 m 1
 24 41 l 1
 24 43 l 1
 25 43 l 1
 25 42 l 1
 26 42 l 1
 26 41 l 1
28 41 m 1
 27 41 l 1
 27 42 l 1
 26 42 l 1
 26 43 l 1
 28 43 l 1
 28 41 l 1
31 41 m 1
 29 41 l 1
 29 43 l 1
 31 43 l 1
 31 41 l 1
41 41 m 1
 39 41 l 1
 39 43 l 1
 41 43 l 1
 41 41 l 1
44 41 m 1
 42 41 l 1
 42 43 l 1
 43 43 l 1
 43 42 l 1
 44 42 l 1
 44 41 l 1
46 41 m 1
 45 41 l 1
 45 42 l 1
 44 42 l 1
 44 43 l 1
 46 43 l 1
 46 41 l 1
49 41 m 1
 47 41 l 1
 47 43 l 1
 49 43 l 1
 49 41 l 1
55 41 m 1
 53 41 l 1
 53 43 l 1
 55 43 l 1
 55 41 l 1
58 41 m 1
 56 41 l 1
 56 43 l 1
 57 43 l 1
 57 42 l 1
 58 42 l 1
 58 41 l 1
60 41 m 1
 59 41 l 1
 59 42 l 1
 58 42 l 1
 58 43 l 1
 60 43 l 1
 60 41 l 1
63 41 m 1
 61 41 l 1
 61 43 l 1
 63 43 l 1
 63 41 l 1
EndSplineSet
Ligature2: "'liga' Standard Ligatures in Latin lookup 0-1" three zero zero three six
LCarets2: 1 0
EndChar

StartChar: custom_3_0_0_3_7
Encoding: 9293 -1 9048
Width: 70
Flags: H
LayerCount: 2
Fore
SplineSet
2 0 m 1
 1 0 l 1
 1 2 l 1
 0 2 l 1
 0 3 l 1
 2 3 l 1
 2 0 l 1
17 25 m 1
 15 25 l 1
 15 27 l 1
 17 27 l 1
 17 25 l 1
17 29 m 1
 15 29 l 1
 15 31 l 1
 17 31 l 1
 17 29 l 1
23 25 m 1
 21 25 l 1
 21 27 l 1
 23 27 l 1
 23 25 l 1
17 33 m 1
 15 33 l 1
 15 35 l 1
 17 35 l 1
 17 33 l 1
17 37 m 1
 15 37 l 1
 15 39 l 1
 17 39 l 1
 17 37 l 1
23 33 m 1
 21 33 l 1
 21 35 l 1
 23 35 l 1
 23 33 l 1
23 37 m 1
 21 37 l 1
 21 39 l 1
 23 39 l 1
 23 37 l 1
26 25 m 1
 24 25 l 1
 24 27 l 1
 25 27 l 1
 25 26 l 1
 26 26 l 1
 26 25 l 1
28 25 m 1
 27 25 l 1
 27 26 l 1
 26 26 l 1
 26 27 l 1
 28 27 l 1
 28 25 l 1
31 25 m 1
 29 25 l 1
 29 27 l 1
 31 27 l 1
 31 25 l 1
31 29 m 1
 29 29 l 1
 29 31 l 1
 31 31 l 1
 31 29 l 1
41 25 m 1
 39 25 l 1
 39 27 l 1
 41 27 l 1
 41 25 l 1
25 33 m 1
 24 33 l 1
 24 35 l 1
 26 35 l 1
 26 34 l 1
 25 34 l 1
 25 33 l 1
28 33 m 1
 26 33 l 1
 26 34 l 1
 27 34 l 1
 27 35 l 1
 28 35 l 1
 28 33 l 1
31 33 m 1
 29 33 l 1
 29 35 l 1
 31 35 l 1
 31 33 l 1
36 31 m 1
 34 31 l 1
 34 33 l 1
 36 33 l 1
 36 31 l 1
41 33 m 1
 39 33 l 1
 39 35 l 1
 41 35 l 1
 41 33 l 1
36 35 m 1
 34 35 l 1
 34 37 l 1
 36 37 l 1
 36 35 l 1
44 25 m 1
 42 25 l 1
 42 27 l 1
 43 27 l 1
 43 26 l 1
 44 26 l 1
 44 25 l 1
46 25 m 1
 45 25 l 1
 45 26 l 1
 44 26 l 1
 44 27 l 1
 46 27 l 1
 46 25 l 1
49 25 m 1
 47 25 l 1
 47 27 l 1
 49 27 l 1
 49 25 l 1
49 29 m 1
 47 29 l 1
 47 31 l 1
 49 31 l 1
 49 29 l 1
55 25 m 1
 53 25 l 1
 53 27 l 1
 55 27 l 1
 55 25 l 1
55 29 m 1
 53 29 l 1
 53 31 l 1
 55 31 l 1
 55 29 l 1
43 33 m 1
 42 33 l 1
 42 35 l 1
 44 35 l 1
 44 34 l 1
 43 34 l 1
 43 33 l 1
46 33 m 1
 44 33 l 1
 44 34 l 1
 45 34 l 1
 45 35 l 1
 46 35 l 1
 46 33 l 1
49 33 m 1
 47 33 l 1
 47 35 l 1
 49 35 l 1
 49 33 l 1
49 37 m 1
 47 37 l 1
 47 39 l 1
 49 39 l 1
 49 37 l 1
55 33 m 1
 53 33 l 1
 53 35 l 1
 55 35 l 1
 55 33 l 1
55 37 m 1
 53 37 l 1
 53 39 l 1
 55 39 l 1
 55 37 l 1
58 25 m 1
 56 25 l 1
 56 27 l 1
 57 27 l 1
 57 26 l 1
 58 26 l 1
 58 25 l 1
60 25 m 1
 59 25 l 1
 59 26 l 1
 58 26 l 1
 58 27 l 1
 60 27 l 1
 60 25 l 1
63 25 m 1
 61 25 l 1
 61 27 l 1
 63 27 l 1
 63 25 l 1
63 29 m 1
 61 29 l 1
 61 31 l 1
 63 31 l 1
 63 29 l 1
63 33 m 1
 61 33 l 1
 61 35 l 1
 63 35 l 1
 63 33 l 1
63 37 m 1
 61 37 l 1
 61 39 l 1
 63 39 l 1
 63 37 l 1
17 41 m 1
 15 41 l 1
 15 43 l 1
 17 43 l 1
 17 41 l 1
23 41 m 1
 21 41 l 1
 21 43 l 1
 23 43 l 1
 23 41 l 1
26 41 m 1
 24 41 l 1
 24 43 l 1
 25 43 l 1
 25 42 l 1
 26 42 l 1
 26 41 l 1
28 41 m 1
 27 41 l 1
 27 42 l 1
 26 42 l 1
 26 43 l 1
 28 43 l 1
 28 41 l 1
31 41 m 1
 29 41 l 1
 29 43 l 1
 31 43 l 1
 31 41 l 1
41 41 m 1
 39 41 l 1
 39 43 l 1
 41 43 l 1
 41 41 l 1
44 41 m 1
 42 41 l 1
 42 43 l 1
 43 43 l 1
 43 42 l 1
 44 42 l 1
 44 41 l 1
46 41 m 1
 45 41 l 1
 45 42 l 1
 44 42 l 1
 44 43 l 1
 46 43 l 1
 46 41 l 1
49 41 m 1
 47 41 l 1
 47 43 l 1
 49 43 l 1
 49 41 l 1
55 41 m 1
 53 41 l 1
 53 43 l 1
 55 43 l 1
 55 41 l 1
58 41 m 1
 56 41 l 1
 56 43 l 1
 57 43 l 1
 57 42 l 1
 58 42 l 1
 58 41 l 1
60 41 m 1
 59 41 l 1
 59 42 l 1
 58 42 l 1
 58 43 l 1
 60 43 l 1
 60 41 l 1
63 41 m 1
 61 41 l 1
 61 43 l 1
 63 43 l 1
 63 41 l 1
EndSplineSet
Ligature2: "'liga' Standard Ligatures in Latin lookup 0-1" three zero zero three seven
LCarets2: 1 0
EndChar

StartChar: custom_3_0_0_3_8
Encoding: 9294 -1 9049
Width: 70
Flags: H
LayerCount: 2
Fore
SplineSet
1 0 m 1
 0 0 l 1
 0 1 l 1
 1 1 l 1
 1 0 l 1
3 1 m 1
 1 1 l 1
 1 2 l 1
 0 2 l 1
 0 3 l 1
 2 3 l 1
 2 2 l 1
 3 2 l 1
 3 1 l 1
17 25 m 1
 15 25 l 1
 15 27 l 1
 17 27 l 1
 17 25 l 1
17 29 m 1
 15 29 l 1
 15 31 l 1
 17 31 l 1
 17 29 l 1
23 25 m 1
 21 25 l 1
 21 27 l 1
 23 27 l 1
 23 25 l 1
17 33 m 1
 15 33 l 1
 15 35 l 1
 17 35 l 1
 17 33 l 1
17 37 m 1
 15 37 l 1
 15 39 l 1
 17 39 l 1
 17 37 l 1
23 33 m 1
 21 33 l 1
 21 35 l 1
 23 35 l 1
 23 33 l 1
23 37 m 1
 21 37 l 1
 21 39 l 1
 23 39 l 1
 23 37 l 1
26 25 m 1
 24 25 l 1
 24 27 l 1
 25 27 l 1
 25 26 l 1
 26 26 l 1
 26 25 l 1
28 25 m 1
 27 25 l 1
 27 26 l 1
 26 26 l 1
 26 27 l 1
 28 27 l 1
 28 25 l 1
31 25 m 1
 29 25 l 1
 29 27 l 1
 31 27 l 1
 31 25 l 1
31 29 m 1
 29 29 l 1
 29 31 l 1
 31 31 l 1
 31 29 l 1
41 25 m 1
 39 25 l 1
 39 27 l 1
 41 27 l 1
 41 25 l 1
25 33 m 1
 24 33 l 1
 24 35 l 1
 26 35 l 1
 26 34 l 1
 25 34 l 1
 25 33 l 1
28 33 m 1
 26 33 l 1
 26 34 l 1
 27 34 l 1
 27 35 l 1
 28 35 l 1
 28 33 l 1
31 33 m 1
 29 33 l 1
 29 35 l 1
 31 35 l 1
 31 33 l 1
36 31 m 1
 34 31 l 1
 34 33 l 1
 36 33 l 1
 36 31 l 1
41 33 m 1
 39 33 l 1
 39 35 l 1
 41 35 l 1
 41 33 l 1
36 35 m 1
 34 35 l 1
 34 37 l 1
 36 37 l 1
 36 35 l 1
44 25 m 1
 42 25 l 1
 42 27 l 1
 43 27 l 1
 43 26 l 1
 44 26 l 1
 44 25 l 1
46 25 m 1
 45 25 l 1
 45 26 l 1
 44 26 l 1
 44 27 l 1
 46 27 l 1
 46 25 l 1
49 25 m 1
 47 25 l 1
 47 27 l 1
 49 27 l 1
 49 25 l 1
49 29 m 1
 47 29 l 1
 47 31 l 1
 49 31 l 1
 49 29 l 1
55 25 m 1
 53 25 l 1
 53 27 l 1
 55 27 l 1
 55 25 l 1
55 29 m 1
 53 29 l 1
 53 31 l 1
 55 31 l 1
 55 29 l 1
43 33 m 1
 42 33 l 1
 42 35 l 1
 44 35 l 1
 44 34 l 1
 43 34 l 1
 43 33 l 1
46 33 m 1
 44 33 l 1
 44 34 l 1
 45 34 l 1
 45 35 l 1
 46 35 l 1
 46 33 l 1
49 33 m 1
 47 33 l 1
 47 35 l 1
 49 35 l 1
 49 33 l 1
49 37 m 1
 47 37 l 1
 47 39 l 1
 49 39 l 1
 49 37 l 1
55 33 m 1
 53 33 l 1
 53 35 l 1
 55 35 l 1
 55 33 l 1
55 37 m 1
 53 37 l 1
 53 39 l 1
 55 39 l 1
 55 37 l 1
58 25 m 1
 56 25 l 1
 56 27 l 1
 57 27 l 1
 57 26 l 1
 58 26 l 1
 58 25 l 1
60 25 m 1
 59 25 l 1
 59 26 l 1
 58 26 l 1
 58 27 l 1
 60 27 l 1
 60 25 l 1
63 25 m 1
 61 25 l 1
 61 27 l 1
 63 27 l 1
 63 25 l 1
63 29 m 1
 61 29 l 1
 61 31 l 1
 63 31 l 1
 63 29 l 1
63 33 m 1
 61 33 l 1
 61 35 l 1
 63 35 l 1
 63 33 l 1
63 37 m 1
 61 37 l 1
 61 39 l 1
 63 39 l 1
 63 37 l 1
17 41 m 1
 15 41 l 1
 15 43 l 1
 17 43 l 1
 17 41 l 1
23 41 m 1
 21 41 l 1
 21 43 l 1
 23 43 l 1
 23 41 l 1
26 41 m 1
 24 41 l 1
 24 43 l 1
 25 43 l 1
 25 42 l 1
 26 42 l 1
 26 41 l 1
28 41 m 1
 27 41 l 1
 27 42 l 1
 26 42 l 1
 26 43 l 1
 28 43 l 1
 28 41 l 1
31 41 m 1
 29 41 l 1
 29 43 l 1
 31 43 l 1
 31 41 l 1
41 41 m 1
 39 41 l 1
 39 43 l 1
 41 43 l 1
 41 41 l 1
44 41 m 1
 42 41 l 1
 42 43 l 1
 43 43 l 1
 43 42 l 1
 44 42 l 1
 44 41 l 1
46 41 m 1
 45 41 l 1
 45 42 l 1
 44 42 l 1
 44 43 l 1
 46 43 l 1
 46 41 l 1
49 41 m 1
 47 41 l 1
 47 43 l 1
 49 43 l 1
 49 41 l 1
55 41 m 1
 53 41 l 1
 53 43 l 1
 55 43 l 1
 55 41 l 1
58 41 m 1
 56 41 l 1
 56 43 l 1
 57 43 l 1
 57 42 l 1
 58 42 l 1
 58 41 l 1
60 41 m 1
 59 41 l 1
 59 42 l 1
 58 42 l 1
 58 43 l 1
 60 43 l 1
 60 41 l 1
63 41 m 1
 61 41 l 1
 61 43 l 1
 63 43 l 1
 63 41 l 1
EndSplineSet
Ligature2: "'liga' Standard Ligatures in Latin lookup 0-1" three zero zero three eight
LCarets2: 1 0
EndChar

StartChar: custom_3_0_0_3_9
Encoding: 9295 -1 9050
Width: 70
Flags: H
LayerCount: 2
Fore
SplineSet
2 0 m 1
 1 0 l 1
 1 1 l 1
 2 1 l 1
 2 0 l 1
3 1 m 1
 2 1 l 1
 2 2 l 1
 0 2 l 1
 0 3 l 1
 3 3 l 1
 3 1 l 1
17 25 m 1
 15 25 l 1
 15 27 l 1
 17 27 l 1
 17 25 l 1
17 29 m 1
 15 29 l 1
 15 31 l 1
 17 31 l 1
 17 29 l 1
23 25 m 1
 21 25 l 1
 21 27 l 1
 23 27 l 1
 23 25 l 1
17 33 m 1
 15 33 l 1
 15 35 l 1
 17 35 l 1
 17 33 l 1
17 37 m 1
 15 37 l 1
 15 39 l 1
 17 39 l 1
 17 37 l 1
23 33 m 1
 21 33 l 1
 21 35 l 1
 23 35 l 1
 23 33 l 1
23 37 m 1
 21 37 l 1
 21 39 l 1
 23 39 l 1
 23 37 l 1
26 25 m 1
 24 25 l 1
 24 27 l 1
 25 27 l 1
 25 26 l 1
 26 26 l 1
 26 25 l 1
28 25 m 1
 27 25 l 1
 27 26 l 1
 26 26 l 1
 26 27 l 1
 28 27 l 1
 28 25 l 1
31 25 m 1
 29 25 l 1
 29 27 l 1
 31 27 l 1
 31 25 l 1
31 29 m 1
 29 29 l 1
 29 31 l 1
 31 31 l 1
 31 29 l 1
41 25 m 1
 39 25 l 1
 39 27 l 1
 41 27 l 1
 41 25 l 1
25 33 m 1
 24 33 l 1
 24 35 l 1
 26 35 l 1
 26 34 l 1
 25 34 l 1
 25 33 l 1
28 33 m 1
 26 33 l 1
 26 34 l 1
 27 34 l 1
 27 35 l 1
 28 35 l 1
 28 33 l 1
31 33 m 1
 29 33 l 1
 29 35 l 1
 31 35 l 1
 31 33 l 1
36 31 m 1
 34 31 l 1
 34 33 l 1
 36 33 l 1
 36 31 l 1
41 33 m 1
 39 33 l 1
 39 35 l 1
 41 35 l 1
 41 33 l 1
36 35 m 1
 34 35 l 1
 34 37 l 1
 36 37 l 1
 36 35 l 1
44 25 m 1
 42 25 l 1
 42 27 l 1
 43 27 l 1
 43 26 l 1
 44 26 l 1
 44 25 l 1
46 25 m 1
 45 25 l 1
 45 26 l 1
 44 26 l 1
 44 27 l 1
 46 27 l 1
 46 25 l 1
49 25 m 1
 47 25 l 1
 47 27 l 1
 49 27 l 1
 49 25 l 1
49 29 m 1
 47 29 l 1
 47 31 l 1
 49 31 l 1
 49 29 l 1
55 25 m 1
 53 25 l 1
 53 27 l 1
 55 27 l 1
 55 25 l 1
55 29 m 1
 53 29 l 1
 53 31 l 1
 55 31 l 1
 55 29 l 1
43 33 m 1
 42 33 l 1
 42 35 l 1
 44 35 l 1
 44 34 l 1
 43 34 l 1
 43 33 l 1
46 33 m 1
 44 33 l 1
 44 34 l 1
 45 34 l 1
 45 35 l 1
 46 35 l 1
 46 33 l 1
49 33 m 1
 47 33 l 1
 47 35 l 1
 49 35 l 1
 49 33 l 1
49 37 m 1
 47 37 l 1
 47 39 l 1
 49 39 l 1
 49 37 l 1
55 33 m 1
 53 33 l 1
 53 35 l 1
 55 35 l 1
 55 33 l 1
55 37 m 1
 53 37 l 1
 53 39 l 1
 55 39 l 1
 55 37 l 1
58 25 m 1
 56 25 l 1
 56 27 l 1
 57 27 l 1
 57 26 l 1
 58 26 l 1
 58 25 l 1
60 25 m 1
 59 25 l 1
 59 26 l 1
 58 26 l 1
 58 27 l 1
 60 27 l 1
 60 25 l 1
63 25 m 1
 61 25 l 1
 61 27 l 1
 63 27 l 1
 63 25 l 1
63 29 m 1
 61 29 l 1
 61 31 l 1
 63 31 l 1
 63 29 l 1
63 33 m 1
 61 33 l 1
 61 35 l 1
 63 35 l 1
 63 33 l 1
63 37 m 1
 61 37 l 1
 61 39 l 1
 63 39 l 1
 63 37 l 1
17 41 m 1
 15 41 l 1
 15 43 l 1
 17 43 l 1
 17 41 l 1
23 41 m 1
 21 41 l 1
 21 43 l 1
 23 43 l 1
 23 41 l 1
26 41 m 1
 24 41 l 1
 24 43 l 1
 25 43 l 1
 25 42 l 1
 26 42 l 1
 26 41 l 1
28 41 m 1
 27 41 l 1
 27 42 l 1
 26 42 l 1
 26 43 l 1
 28 43 l 1
 28 41 l 1
31 41 m 1
 29 41 l 1
 29 43 l 1
 31 43 l 1
 31 41 l 1
41 41 m 1
 39 41 l 1
 39 43 l 1
 41 43 l 1
 41 41 l 1
44 41 m 1
 42 41 l 1
 42 43 l 1
 43 43 l 1
 43 42 l 1
 44 42 l 1
 44 41 l 1
46 41 m 1
 45 41 l 1
 45 42 l 1
 44 42 l 1
 44 43 l 1
 46 43 l 1
 46 41 l 1
49 41 m 1
 47 41 l 1
 47 43 l 1
 49 43 l 1
 49 41 l 1
55 41 m 1
 53 41 l 1
 53 43 l 1
 55 43 l 1
 55 41 l 1
58 41 m 1
 56 41 l 1
 56 43 l 1
 57 43 l 1
 57 42 l 1
 58 42 l 1
 58 41 l 1
60 41 m 1
 59 41 l 1
 59 42 l 1
 58 42 l 1
 58 43 l 1
 60 43 l 1
 60 41 l 1
63 41 m 1
 61 41 l 1
 61 43 l 1
 63 43 l 1
 63 41 l 1
EndSplineSet
Ligature2: "'liga' Standard Ligatures in Latin lookup 0-1" three zero zero three nine
LCarets2: 1 0
EndChar

StartChar: custom_3_0_0_4_0
Encoding: 9296 -1 9051
Width: 70
Flags: H
LayerCount: 2
Fore
SplineSet
1 1 m 1
 0 1 l 1
 0 2 l 1
 1 2 l 1
 1 1 l 1
3 1 m 1
 2 1 l 1
 2 2 l 1
 1 2 l 1
 1 4 l 1
 2 4 l 1
 2 3 l 1
 3 3 l 1
 3 1 l 1
17 25 m 1
 15 25 l 1
 15 27 l 1
 17 27 l 1
 17 25 l 1
17 29 m 1
 15 29 l 1
 15 31 l 1
 17 31 l 1
 17 29 l 1
23 25 m 1
 21 25 l 1
 21 27 l 1
 23 27 l 1
 23 25 l 1
17 33 m 1
 15 33 l 1
 15 35 l 1
 17 35 l 1
 17 33 l 1
17 37 m 1
 15 37 l 1
 15 39 l 1
 17 39 l 1
 17 37 l 1
23 33 m 1
 21 33 l 1
 21 35 l 1
 23 35 l 1
 23 33 l 1
23 37 m 1
 21 37 l 1
 21 39 l 1
 23 39 l 1
 23 37 l 1
26 25 m 1
 24 25 l 1
 24 27 l 1
 25 27 l 1
 25 26 l 1
 26 26 l 1
 26 25 l 1
28 25 m 1
 27 25 l 1
 27 26 l 1
 26 26 l 1
 26 27 l 1
 28 27 l 1
 28 25 l 1
31 25 m 1
 29 25 l 1
 29 27 l 1
 31 27 l 1
 31 25 l 1
31 29 m 1
 29 29 l 1
 29 31 l 1
 31 31 l 1
 31 29 l 1
41 25 m 1
 39 25 l 1
 39 27 l 1
 41 27 l 1
 41 25 l 1
25 33 m 1
 24 33 l 1
 24 35 l 1
 26 35 l 1
 26 34 l 1
 25 34 l 1
 25 33 l 1
28 33 m 1
 26 33 l 1
 26 34 l 1
 27 34 l 1
 27 35 l 1
 28 35 l 1
 28 33 l 1
31 33 m 1
 29 33 l 1
 29 35 l 1
 31 35 l 1
 31 33 l 1
36 31 m 1
 34 31 l 1
 34 33 l 1
 36 33 l 1
 36 31 l 1
41 33 m 1
 39 33 l 1
 39 35 l 1
 41 35 l 1
 41 33 l 1
36 35 m 1
 34 35 l 1
 34 37 l 1
 36 37 l 1
 36 35 l 1
44 25 m 1
 42 25 l 1
 42 27 l 1
 43 27 l 1
 43 26 l 1
 44 26 l 1
 44 25 l 1
46 25 m 1
 45 25 l 1
 45 26 l 1
 44 26 l 1
 44 27 l 1
 46 27 l 1
 46 25 l 1
49 25 m 1
 47 25 l 1
 47 27 l 1
 49 27 l 1
 49 25 l 1
49 29 m 1
 47 29 l 1
 47 31 l 1
 49 31 l 1
 49 29 l 1
55 25 m 1
 53 25 l 1
 53 27 l 1
 55 27 l 1
 55 25 l 1
55 29 m 1
 53 29 l 1
 53 31 l 1
 55 31 l 1
 55 29 l 1
43 33 m 1
 42 33 l 1
 42 35 l 1
 44 35 l 1
 44 34 l 1
 43 34 l 1
 43 33 l 1
46 33 m 1
 44 33 l 1
 44 34 l 1
 45 34 l 1
 45 35 l 1
 46 35 l 1
 46 33 l 1
49 33 m 1
 47 33 l 1
 47 35 l 1
 49 35 l 1
 49 33 l 1
49 37 m 1
 47 37 l 1
 47 39 l 1
 49 39 l 1
 49 37 l 1
55 33 m 1
 53 33 l 1
 53 35 l 1
 55 35 l 1
 55 33 l 1
55 37 m 1
 53 37 l 1
 53 39 l 1
 55 39 l 1
 55 37 l 1
58 25 m 1
 56 25 l 1
 56 27 l 1
 57 27 l 1
 57 26 l 1
 58 26 l 1
 58 25 l 1
60 25 m 1
 59 25 l 1
 59 26 l 1
 58 26 l 1
 58 27 l 1
 60 27 l 1
 60 25 l 1
63 25 m 1
 61 25 l 1
 61 27 l 1
 63 27 l 1
 63 25 l 1
63 29 m 1
 61 29 l 1
 61 31 l 1
 63 31 l 1
 63 29 l 1
63 33 m 1
 61 33 l 1
 61 35 l 1
 63 35 l 1
 63 33 l 1
63 37 m 1
 61 37 l 1
 61 39 l 1
 63 39 l 1
 63 37 l 1
17 41 m 1
 15 41 l 1
 15 43 l 1
 17 43 l 1
 17 41 l 1
23 41 m 1
 21 41 l 1
 21 43 l 1
 23 43 l 1
 23 41 l 1
26 41 m 1
 24 41 l 1
 24 43 l 1
 25 43 l 1
 25 42 l 1
 26 42 l 1
 26 41 l 1
28 41 m 1
 27 41 l 1
 27 42 l 1
 26 42 l 1
 26 43 l 1
 28 43 l 1
 28 41 l 1
31 41 m 1
 29 41 l 1
 29 43 l 1
 31 43 l 1
 31 41 l 1
41 41 m 1
 39 41 l 1
 39 43 l 1
 41 43 l 1
 41 41 l 1
44 41 m 1
 42 41 l 1
 42 43 l 1
 43 43 l 1
 43 42 l 1
 44 42 l 1
 44 41 l 1
46 41 m 1
 45 41 l 1
 45 42 l 1
 44 42 l 1
 44 43 l 1
 46 43 l 1
 46 41 l 1
49 41 m 1
 47 41 l 1
 47 43 l 1
 49 43 l 1
 49 41 l 1
55 41 m 1
 53 41 l 1
 53 43 l 1
 55 43 l 1
 55 41 l 1
58 41 m 1
 56 41 l 1
 56 43 l 1
 57 43 l 1
 57 42 l 1
 58 42 l 1
 58 41 l 1
60 41 m 1
 59 41 l 1
 59 42 l 1
 58 42 l 1
 58 43 l 1
 60 43 l 1
 60 41 l 1
63 41 m 1
 61 41 l 1
 61 43 l 1
 63 43 l 1
 63 41 l 1
EndSplineSet
Ligature2: "'liga' Standard Ligatures in Latin lookup 0-1" three zero zero four zero
LCarets2: 1 0
EndChar

StartChar: custom_3_0_0_4_1
Encoding: 9297 -1 9052
Width: 70
Flags: H
LayerCount: 2
Fore
SplineSet
3 1 m 1
 2 1 l 1
 2 3 l 1
 1 3 l 1
 1 4 l 1
 3 4 l 1
 3 1 l 1
1 2 m 1
 0 2 l 1
 0 3 l 1
 1 3 l 1
 1 2 l 1
17 25 m 1
 15 25 l 1
 15 27 l 1
 17 27 l 1
 17 25 l 1
17 29 m 1
 15 29 l 1
 15 31 l 1
 17 31 l 1
 17 29 l 1
23 25 m 1
 21 25 l 1
 21 27 l 1
 23 27 l 1
 23 25 l 1
17 33 m 1
 15 33 l 1
 15 35 l 1
 17 35 l 1
 17 33 l 1
17 37 m 1
 15 37 l 1
 15 39 l 1
 17 39 l 1
 17 37 l 1
23 33 m 1
 21 33 l 1
 21 35 l 1
 23 35 l 1
 23 33 l 1
23 37 m 1
 21 37 l 1
 21 39 l 1
 23 39 l 1
 23 37 l 1
26 25 m 1
 24 25 l 1
 24 27 l 1
 25 27 l 1
 25 26 l 1
 26 26 l 1
 26 25 l 1
28 25 m 1
 27 25 l 1
 27 26 l 1
 26 26 l 1
 26 27 l 1
 28 27 l 1
 28 25 l 1
31 25 m 1
 29 25 l 1
 29 27 l 1
 31 27 l 1
 31 25 l 1
31 29 m 1
 29 29 l 1
 29 31 l 1
 31 31 l 1
 31 29 l 1
41 25 m 1
 39 25 l 1
 39 27 l 1
 41 27 l 1
 41 25 l 1
25 33 m 1
 24 33 l 1
 24 35 l 1
 26 35 l 1
 26 34 l 1
 25 34 l 1
 25 33 l 1
28 33 m 1
 26 33 l 1
 26 34 l 1
 27 34 l 1
 27 35 l 1
 28 35 l 1
 28 33 l 1
31 33 m 1
 29 33 l 1
 29 35 l 1
 31 35 l 1
 31 33 l 1
36 31 m 1
 34 31 l 1
 34 33 l 1
 36 33 l 1
 36 31 l 1
41 33 m 1
 39 33 l 1
 39 35 l 1
 41 35 l 1
 41 33 l 1
36 35 m 1
 34 35 l 1
 34 37 l 1
 36 37 l 1
 36 35 l 1
44 25 m 1
 42 25 l 1
 42 27 l 1
 43 27 l 1
 43 26 l 1
 44 26 l 1
 44 25 l 1
46 25 m 1
 45 25 l 1
 45 26 l 1
 44 26 l 1
 44 27 l 1
 46 27 l 1
 46 25 l 1
49 25 m 1
 47 25 l 1
 47 27 l 1
 49 27 l 1
 49 25 l 1
49 29 m 1
 47 29 l 1
 47 31 l 1
 49 31 l 1
 49 29 l 1
55 25 m 1
 53 25 l 1
 53 27 l 1
 55 27 l 1
 55 25 l 1
55 29 m 1
 53 29 l 1
 53 31 l 1
 55 31 l 1
 55 29 l 1
43 33 m 1
 42 33 l 1
 42 35 l 1
 44 35 l 1
 44 34 l 1
 43 34 l 1
 43 33 l 1
46 33 m 1
 44 33 l 1
 44 34 l 1
 45 34 l 1
 45 35 l 1
 46 35 l 1
 46 33 l 1
49 33 m 1
 47 33 l 1
 47 35 l 1
 49 35 l 1
 49 33 l 1
49 37 m 1
 47 37 l 1
 47 39 l 1
 49 39 l 1
 49 37 l 1
55 33 m 1
 53 33 l 1
 53 35 l 1
 55 35 l 1
 55 33 l 1
55 37 m 1
 53 37 l 1
 53 39 l 1
 55 39 l 1
 55 37 l 1
58 25 m 1
 56 25 l 1
 56 27 l 1
 57 27 l 1
 57 26 l 1
 58 26 l 1
 58 25 l 1
60 25 m 1
 59 25 l 1
 59 26 l 1
 58 26 l 1
 58 27 l 1
 60 27 l 1
 60 25 l 1
63 25 m 1
 61 25 l 1
 61 27 l 1
 63 27 l 1
 63 25 l 1
63 29 m 1
 61 29 l 1
 61 31 l 1
 63 31 l 1
 63 29 l 1
63 33 m 1
 61 33 l 1
 61 35 l 1
 63 35 l 1
 63 33 l 1
63 37 m 1
 61 37 l 1
 61 39 l 1
 63 39 l 1
 63 37 l 1
17 41 m 1
 15 41 l 1
 15 43 l 1
 17 43 l 1
 17 41 l 1
23 41 m 1
 21 41 l 1
 21 43 l 1
 23 43 l 1
 23 41 l 1
26 41 m 1
 24 41 l 1
 24 43 l 1
 25 43 l 1
 25 42 l 1
 26 42 l 1
 26 41 l 1
28 41 m 1
 27 41 l 1
 27 42 l 1
 26 42 l 1
 26 43 l 1
 28 43 l 1
 28 41 l 1
31 41 m 1
 29 41 l 1
 29 43 l 1
 31 43 l 1
 31 41 l 1
41 41 m 1
 39 41 l 1
 39 43 l 1
 41 43 l 1
 41 41 l 1
44 41 m 1
 42 41 l 1
 42 43 l 1
 43 43 l 1
 43 42 l 1
 44 42 l 1
 44 41 l 1
46 41 m 1
 45 41 l 1
 45 42 l 1
 44 42 l 1
 44 43 l 1
 46 43 l 1
 46 41 l 1
49 41 m 1
 47 41 l 1
 47 43 l 1
 49 43 l 1
 49 41 l 1
55 41 m 1
 53 41 l 1
 53 43 l 1
 55 43 l 1
 55 41 l 1
58 41 m 1
 56 41 l 1
 56 43 l 1
 57 43 l 1
 57 42 l 1
 58 42 l 1
 58 41 l 1
60 41 m 1
 59 41 l 1
 59 42 l 1
 58 42 l 1
 58 43 l 1
 60 43 l 1
 60 41 l 1
63 41 m 1
 61 41 l 1
 61 43 l 1
 63 43 l 1
 63 41 l 1
EndSplineSet
Ligature2: "'liga' Standard Ligatures in Latin lookup 0-1" three zero zero four one
LCarets2: 1 0
EndChar

StartChar: custom_3_0_0_4_2
Encoding: 9298 -1 9053
Width: 70
Flags: H
LayerCount: 2
Fore
SplineSet
2 1 m 1
 1 1 l 1
 1 2 l 1
 2 2 l 1
 2 1 l 1
2 3 m 1
 1 3 l 1
 1 4 l 1
 3 4 l 1
 3 3 l 1
 4 3 l 1
 4 2 l 1
 2 2 l 1
 2 3 l 1
17 25 m 1
 15 25 l 1
 15 27 l 1
 17 27 l 1
 17 25 l 1
17 29 m 1
 15 29 l 1
 15 31 l 1
 17 31 l 1
 17 29 l 1
23 25 m 1
 21 25 l 1
 21 27 l 1
 23 27 l 1
 23 25 l 1
17 33 m 1
 15 33 l 1
 15 35 l 1
 17 35 l 1
 17 33 l 1
17 37 m 1
 15 37 l 1
 15 39 l 1
 17 39 l 1
 17 37 l 1
23 33 m 1
 21 33 l 1
 21 35 l 1
 23 35 l 1
 23 33 l 1
23 37 m 1
 21 37 l 1
 21 39 l 1
 23 39 l 1
 23 37 l 1
26 25 m 1
 24 25 l 1
 24 27 l 1
 25 27 l 1
 25 26 l 1
 26 26 l 1
 26 25 l 1
28 25 m 1
 27 25 l 1
 27 26 l 1
 26 26 l 1
 26 27 l 1
 28 27 l 1
 28 25 l 1
31 25 m 1
 29 25 l 1
 29 27 l 1
 31 27 l 1
 31 25 l 1
31 29 m 1
 29 29 l 1
 29 31 l 1
 31 31 l 1
 31 29 l 1
41 25 m 1
 39 25 l 1
 39 27 l 1
 41 27 l 1
 41 25 l 1
25 33 m 1
 24 33 l 1
 24 35 l 1
 26 35 l 1
 26 34 l 1
 25 34 l 1
 25 33 l 1
28 33 m 1
 26 33 l 1
 26 34 l 1
 27 34 l 1
 27 35 l 1
 28 35 l 1
 28 33 l 1
31 33 m 1
 29 33 l 1
 29 35 l 1
 31 35 l 1
 31 33 l 1
36 31 m 1
 34 31 l 1
 34 33 l 1
 36 33 l 1
 36 31 l 1
41 33 m 1
 39 33 l 1
 39 35 l 1
 41 35 l 1
 41 33 l 1
36 35 m 1
 34 35 l 1
 34 37 l 1
 36 37 l 1
 36 35 l 1
44 25 m 1
 42 25 l 1
 42 27 l 1
 43 27 l 1
 43 26 l 1
 44 26 l 1
 44 25 l 1
46 25 m 1
 45 25 l 1
 45 26 l 1
 44 26 l 1
 44 27 l 1
 46 27 l 1
 46 25 l 1
49 25 m 1
 47 25 l 1
 47 27 l 1
 49 27 l 1
 49 25 l 1
49 29 m 1
 47 29 l 1
 47 31 l 1
 49 31 l 1
 49 29 l 1
55 25 m 1
 53 25 l 1
 53 27 l 1
 55 27 l 1
 55 25 l 1
55 29 m 1
 53 29 l 1
 53 31 l 1
 55 31 l 1
 55 29 l 1
43 33 m 1
 42 33 l 1
 42 35 l 1
 44 35 l 1
 44 34 l 1
 43 34 l 1
 43 33 l 1
46 33 m 1
 44 33 l 1
 44 34 l 1
 45 34 l 1
 45 35 l 1
 46 35 l 1
 46 33 l 1
49 33 m 1
 47 33 l 1
 47 35 l 1
 49 35 l 1
 49 33 l 1
49 37 m 1
 47 37 l 1
 47 39 l 1
 49 39 l 1
 49 37 l 1
55 33 m 1
 53 33 l 1
 53 35 l 1
 55 35 l 1
 55 33 l 1
55 37 m 1
 53 37 l 1
 53 39 l 1
 55 39 l 1
 55 37 l 1
58 25 m 1
 56 25 l 1
 56 27 l 1
 57 27 l 1
 57 26 l 1
 58 26 l 1
 58 25 l 1
60 25 m 1
 59 25 l 1
 59 26 l 1
 58 26 l 1
 58 27 l 1
 60 27 l 1
 60 25 l 1
63 25 m 1
 61 25 l 1
 61 27 l 1
 63 27 l 1
 63 25 l 1
63 29 m 1
 61 29 l 1
 61 31 l 1
 63 31 l 1
 63 29 l 1
63 33 m 1
 61 33 l 1
 61 35 l 1
 63 35 l 1
 63 33 l 1
63 37 m 1
 61 37 l 1
 61 39 l 1
 63 39 l 1
 63 37 l 1
17 41 m 1
 15 41 l 1
 15 43 l 1
 17 43 l 1
 17 41 l 1
23 41 m 1
 21 41 l 1
 21 43 l 1
 23 43 l 1
 23 41 l 1
26 41 m 1
 24 41 l 1
 24 43 l 1
 25 43 l 1
 25 42 l 1
 26 42 l 1
 26 41 l 1
28 41 m 1
 27 41 l 1
 27 42 l 1
 26 42 l 1
 26 43 l 1
 28 43 l 1
 28 41 l 1
31 41 m 1
 29 41 l 1
 29 43 l 1
 31 43 l 1
 31 41 l 1
41 41 m 1
 39 41 l 1
 39 43 l 1
 41 43 l 1
 41 41 l 1
44 41 m 1
 42 41 l 1
 42 43 l 1
 43 43 l 1
 43 42 l 1
 44 42 l 1
 44 41 l 1
46 41 m 1
 45 41 l 1
 45 42 l 1
 44 42 l 1
 44 43 l 1
 46 43 l 1
 46 41 l 1
49 41 m 1
 47 41 l 1
 47 43 l 1
 49 43 l 1
 49 41 l 1
55 41 m 1
 53 41 l 1
 53 43 l 1
 55 43 l 1
 55 41 l 1
58 41 m 1
 56 41 l 1
 56 43 l 1
 57 43 l 1
 57 42 l 1
 58 42 l 1
 58 41 l 1
60 41 m 1
 59 41 l 1
 59 42 l 1
 58 42 l 1
 58 43 l 1
 60 43 l 1
 60 41 l 1
63 41 m 1
 61 41 l 1
 61 43 l 1
 63 43 l 1
 63 41 l 1
EndSplineSet
Ligature2: "'liga' Standard Ligatures in Latin lookup 0-1" three zero zero four two
LCarets2: 1 0
EndChar

StartChar: custom_3_0_0_4_3
Encoding: 9299 -1 9054
Width: 70
Flags: H
LayerCount: 2
Fore
SplineSet
3 1 m 1
 2 1 l 1
 2 2 l 1
 3 2 l 1
 3 1 l 1
3 3 m 1
 1 3 l 1
 1 4 l 1
 4 4 l 1
 4 2 l 1
 3 2 l 1
 3 3 l 1
17 25 m 1
 15 25 l 1
 15 27 l 1
 17 27 l 1
 17 25 l 1
17 29 m 1
 15 29 l 1
 15 31 l 1
 17 31 l 1
 17 29 l 1
23 25 m 1
 21 25 l 1
 21 27 l 1
 23 27 l 1
 23 25 l 1
17 33 m 1
 15 33 l 1
 15 35 l 1
 17 35 l 1
 17 33 l 1
17 37 m 1
 15 37 l 1
 15 39 l 1
 17 39 l 1
 17 37 l 1
23 33 m 1
 21 33 l 1
 21 35 l 1
 23 35 l 1
 23 33 l 1
23 37 m 1
 21 37 l 1
 21 39 l 1
 23 39 l 1
 23 37 l 1
26 25 m 1
 24 25 l 1
 24 27 l 1
 25 27 l 1
 25 26 l 1
 26 26 l 1
 26 25 l 1
28 25 m 1
 27 25 l 1
 27 26 l 1
 26 26 l 1
 26 27 l 1
 28 27 l 1
 28 25 l 1
31 25 m 1
 29 25 l 1
 29 27 l 1
 31 27 l 1
 31 25 l 1
31 29 m 1
 29 29 l 1
 29 31 l 1
 31 31 l 1
 31 29 l 1
41 25 m 1
 39 25 l 1
 39 27 l 1
 41 27 l 1
 41 25 l 1
25 33 m 1
 24 33 l 1
 24 35 l 1
 26 35 l 1
 26 34 l 1
 25 34 l 1
 25 33 l 1
28 33 m 1
 26 33 l 1
 26 34 l 1
 27 34 l 1
 27 35 l 1
 28 35 l 1
 28 33 l 1
31 33 m 1
 29 33 l 1
 29 35 l 1
 31 35 l 1
 31 33 l 1
36 31 m 1
 34 31 l 1
 34 33 l 1
 36 33 l 1
 36 31 l 1
41 33 m 1
 39 33 l 1
 39 35 l 1
 41 35 l 1
 41 33 l 1
36 35 m 1
 34 35 l 1
 34 37 l 1
 36 37 l 1
 36 35 l 1
44 25 m 1
 42 25 l 1
 42 27 l 1
 43 27 l 1
 43 26 l 1
 44 26 l 1
 44 25 l 1
46 25 m 1
 45 25 l 1
 45 26 l 1
 44 26 l 1
 44 27 l 1
 46 27 l 1
 46 25 l 1
49 25 m 1
 47 25 l 1
 47 27 l 1
 49 27 l 1
 49 25 l 1
49 29 m 1
 47 29 l 1
 47 31 l 1
 49 31 l 1
 49 29 l 1
55 25 m 1
 53 25 l 1
 53 27 l 1
 55 27 l 1
 55 25 l 1
55 29 m 1
 53 29 l 1
 53 31 l 1
 55 31 l 1
 55 29 l 1
43 33 m 1
 42 33 l 1
 42 35 l 1
 44 35 l 1
 44 34 l 1
 43 34 l 1
 43 33 l 1
46 33 m 1
 44 33 l 1
 44 34 l 1
 45 34 l 1
 45 35 l 1
 46 35 l 1
 46 33 l 1
49 33 m 1
 47 33 l 1
 47 35 l 1
 49 35 l 1
 49 33 l 1
49 37 m 1
 47 37 l 1
 47 39 l 1
 49 39 l 1
 49 37 l 1
55 33 m 1
 53 33 l 1
 53 35 l 1
 55 35 l 1
 55 33 l 1
55 37 m 1
 53 37 l 1
 53 39 l 1
 55 39 l 1
 55 37 l 1
58 25 m 1
 56 25 l 1
 56 27 l 1
 57 27 l 1
 57 26 l 1
 58 26 l 1
 58 25 l 1
60 25 m 1
 59 25 l 1
 59 26 l 1
 58 26 l 1
 58 27 l 1
 60 27 l 1
 60 25 l 1
63 25 m 1
 61 25 l 1
 61 27 l 1
 63 27 l 1
 63 25 l 1
63 29 m 1
 61 29 l 1
 61 31 l 1
 63 31 l 1
 63 29 l 1
63 33 m 1
 61 33 l 1
 61 35 l 1
 63 35 l 1
 63 33 l 1
63 37 m 1
 61 37 l 1
 61 39 l 1
 63 39 l 1
 63 37 l 1
17 41 m 1
 15 41 l 1
 15 43 l 1
 17 43 l 1
 17 41 l 1
23 41 m 1
 21 41 l 1
 21 43 l 1
 23 43 l 1
 23 41 l 1
26 41 m 1
 24 41 l 1
 24 43 l 1
 25 43 l 1
 25 42 l 1
 26 42 l 1
 26 41 l 1
28 41 m 1
 27 41 l 1
 27 42 l 1
 26 42 l 1
 26 43 l 1
 28 43 l 1
 28 41 l 1
31 41 m 1
 29 41 l 1
 29 43 l 1
 31 43 l 1
 31 41 l 1
41 41 m 1
 39 41 l 1
 39 43 l 1
 41 43 l 1
 41 41 l 1
44 41 m 1
 42 41 l 1
 42 43 l 1
 43 43 l 1
 43 42 l 1
 44 42 l 1
 44 41 l 1
46 41 m 1
 45 41 l 1
 45 42 l 1
 44 42 l 1
 44 43 l 1
 46 43 l 1
 46 41 l 1
49 41 m 1
 47 41 l 1
 47 43 l 1
 49 43 l 1
 49 41 l 1
55 41 m 1
 53 41 l 1
 53 43 l 1
 55 43 l 1
 55 41 l 1
58 41 m 1
 56 41 l 1
 56 43 l 1
 57 43 l 1
 57 42 l 1
 58 42 l 1
 58 41 l 1
60 41 m 1
 59 41 l 1
 59 42 l 1
 58 42 l 1
 58 43 l 1
 60 43 l 1
 60 41 l 1
63 41 m 1
 61 41 l 1
 61 43 l 1
 63 43 l 1
 63 41 l 1
EndSplineSet
Ligature2: "'liga' Standard Ligatures in Latin lookup 0-1" three zero zero four three
LCarets2: 1 0
EndChar

StartChar: custom_3_0_0_4_4
Encoding: 9300 -1 9055
Width: 70
Flags: H
LayerCount: 2
Fore
SplineSet
2 2 m 1
 1 2 l 1
 1 3 l 1
 2 3 l 1
 2 2 l 1
4 2 m 1
 3 2 l 1
 3 3 l 1
 2 3 l 1
 2 5 l 1
 3 5 l 1
 3 4 l 1
 4 4 l 1
 4 2 l 1
17 25 m 1
 15 25 l 1
 15 27 l 1
 17 27 l 1
 17 25 l 1
17 29 m 1
 15 29 l 1
 15 31 l 1
 17 31 l 1
 17 29 l 1
23 25 m 1
 21 25 l 1
 21 27 l 1
 23 27 l 1
 23 25 l 1
17 33 m 1
 15 33 l 1
 15 35 l 1
 17 35 l 1
 17 33 l 1
17 37 m 1
 15 37 l 1
 15 39 l 1
 17 39 l 1
 17 37 l 1
23 33 m 1
 21 33 l 1
 21 35 l 1
 23 35 l 1
 23 33 l 1
23 37 m 1
 21 37 l 1
 21 39 l 1
 23 39 l 1
 23 37 l 1
26 25 m 1
 24 25 l 1
 24 27 l 1
 25 27 l 1
 25 26 l 1
 26 26 l 1
 26 25 l 1
28 25 m 1
 27 25 l 1
 27 26 l 1
 26 26 l 1
 26 27 l 1
 28 27 l 1
 28 25 l 1
31 25 m 1
 29 25 l 1
 29 27 l 1
 31 27 l 1
 31 25 l 1
31 29 m 1
 29 29 l 1
 29 31 l 1
 31 31 l 1
 31 29 l 1
41 25 m 1
 39 25 l 1
 39 27 l 1
 41 27 l 1
 41 25 l 1
25 33 m 1
 24 33 l 1
 24 35 l 1
 26 35 l 1
 26 34 l 1
 25 34 l 1
 25 33 l 1
28 33 m 1
 26 33 l 1
 26 34 l 1
 27 34 l 1
 27 35 l 1
 28 35 l 1
 28 33 l 1
31 33 m 1
 29 33 l 1
 29 35 l 1
 31 35 l 1
 31 33 l 1
36 31 m 1
 34 31 l 1
 34 33 l 1
 36 33 l 1
 36 31 l 1
41 33 m 1
 39 33 l 1
 39 35 l 1
 41 35 l 1
 41 33 l 1
36 35 m 1
 34 35 l 1
 34 37 l 1
 36 37 l 1
 36 35 l 1
44 25 m 1
 42 25 l 1
 42 27 l 1
 43 27 l 1
 43 26 l 1
 44 26 l 1
 44 25 l 1
46 25 m 1
 45 25 l 1
 45 26 l 1
 44 26 l 1
 44 27 l 1
 46 27 l 1
 46 25 l 1
49 25 m 1
 47 25 l 1
 47 27 l 1
 49 27 l 1
 49 25 l 1
49 29 m 1
 47 29 l 1
 47 31 l 1
 49 31 l 1
 49 29 l 1
55 25 m 1
 53 25 l 1
 53 27 l 1
 55 27 l 1
 55 25 l 1
55 29 m 1
 53 29 l 1
 53 31 l 1
 55 31 l 1
 55 29 l 1
43 33 m 1
 42 33 l 1
 42 35 l 1
 44 35 l 1
 44 34 l 1
 43 34 l 1
 43 33 l 1
46 33 m 1
 44 33 l 1
 44 34 l 1
 45 34 l 1
 45 35 l 1
 46 35 l 1
 46 33 l 1
49 33 m 1
 47 33 l 1
 47 35 l 1
 49 35 l 1
 49 33 l 1
49 37 m 1
 47 37 l 1
 47 39 l 1
 49 39 l 1
 49 37 l 1
55 33 m 1
 53 33 l 1
 53 35 l 1
 55 35 l 1
 55 33 l 1
55 37 m 1
 53 37 l 1
 53 39 l 1
 55 39 l 1
 55 37 l 1
58 25 m 1
 56 25 l 1
 56 27 l 1
 57 27 l 1
 57 26 l 1
 58 26 l 1
 58 25 l 1
60 25 m 1
 59 25 l 1
 59 26 l 1
 58 26 l 1
 58 27 l 1
 60 27 l 1
 60 25 l 1
63 25 m 1
 61 25 l 1
 61 27 l 1
 63 27 l 1
 63 25 l 1
63 29 m 1
 61 29 l 1
 61 31 l 1
 63 31 l 1
 63 29 l 1
63 33 m 1
 61 33 l 1
 61 35 l 1
 63 35 l 1
 63 33 l 1
63 37 m 1
 61 37 l 1
 61 39 l 1
 63 39 l 1
 63 37 l 1
17 41 m 1
 15 41 l 1
 15 43 l 1
 17 43 l 1
 17 41 l 1
23 41 m 1
 21 41 l 1
 21 43 l 1
 23 43 l 1
 23 41 l 1
26 41 m 1
 24 41 l 1
 24 43 l 1
 25 43 l 1
 25 42 l 1
 26 42 l 1
 26 41 l 1
28 41 m 1
 27 41 l 1
 27 42 l 1
 26 42 l 1
 26 43 l 1
 28 43 l 1
 28 41 l 1
31 41 m 1
 29 41 l 1
 29 43 l 1
 31 43 l 1
 31 41 l 1
41 41 m 1
 39 41 l 1
 39 43 l 1
 41 43 l 1
 41 41 l 1
44 41 m 1
 42 41 l 1
 42 43 l 1
 43 43 l 1
 43 42 l 1
 44 42 l 1
 44 41 l 1
46 41 m 1
 45 41 l 1
 45 42 l 1
 44 42 l 1
 44 43 l 1
 46 43 l 1
 46 41 l 1
49 41 m 1
 47 41 l 1
 47 43 l 1
 49 43 l 1
 49 41 l 1
55 41 m 1
 53 41 l 1
 53 43 l 1
 55 43 l 1
 55 41 l 1
58 41 m 1
 56 41 l 1
 56 43 l 1
 57 43 l 1
 57 42 l 1
 58 42 l 1
 58 41 l 1
60 41 m 1
 59 41 l 1
 59 42 l 1
 58 42 l 1
 58 43 l 1
 60 43 l 1
 60 41 l 1
63 41 m 1
 61 41 l 1
 61 43 l 1
 63 43 l 1
 63 41 l 1
EndSplineSet
Ligature2: "'liga' Standard Ligatures in Latin lookup 0-1" three zero zero four four
LCarets2: 1 0
EndChar

StartChar: custom_3_0_0_4_5
Encoding: 9301 -1 9056
Width: 70
Flags: H
LayerCount: 2
Fore
SplineSet
2 3 m 1
 1 3 l 1
 1 4 l 1
 2 4 l 1
 2 3 l 1
4 2 m 1
 3 2 l 1
 3 4 l 1
 2 4 l 1
 2 5 l 1
 4 5 l 1
 4 2 l 1
17 25 m 1
 15 25 l 1
 15 27 l 1
 17 27 l 1
 17 25 l 1
17 29 m 1
 15 29 l 1
 15 31 l 1
 17 31 l 1
 17 29 l 1
23 25 m 1
 21 25 l 1
 21 27 l 1
 23 27 l 1
 23 25 l 1
17 33 m 1
 15 33 l 1
 15 35 l 1
 17 35 l 1
 17 33 l 1
17 37 m 1
 15 37 l 1
 15 39 l 1
 17 39 l 1
 17 37 l 1
23 33 m 1
 21 33 l 1
 21 35 l 1
 23 35 l 1
 23 33 l 1
23 37 m 1
 21 37 l 1
 21 39 l 1
 23 39 l 1
 23 37 l 1
26 25 m 1
 24 25 l 1
 24 27 l 1
 25 27 l 1
 25 26 l 1
 26 26 l 1
 26 25 l 1
28 25 m 1
 27 25 l 1
 27 26 l 1
 26 26 l 1
 26 27 l 1
 28 27 l 1
 28 25 l 1
31 25 m 1
 29 25 l 1
 29 27 l 1
 31 27 l 1
 31 25 l 1
31 29 m 1
 29 29 l 1
 29 31 l 1
 31 31 l 1
 31 29 l 1
41 25 m 1
 39 25 l 1
 39 27 l 1
 41 27 l 1
 41 25 l 1
25 33 m 1
 24 33 l 1
 24 35 l 1
 26 35 l 1
 26 34 l 1
 25 34 l 1
 25 33 l 1
28 33 m 1
 26 33 l 1
 26 34 l 1
 27 34 l 1
 27 35 l 1
 28 35 l 1
 28 33 l 1
31 33 m 1
 29 33 l 1
 29 35 l 1
 31 35 l 1
 31 33 l 1
36 31 m 1
 34 31 l 1
 34 33 l 1
 36 33 l 1
 36 31 l 1
41 33 m 1
 39 33 l 1
 39 35 l 1
 41 35 l 1
 41 33 l 1
36 35 m 1
 34 35 l 1
 34 37 l 1
 36 37 l 1
 36 35 l 1
44 25 m 1
 42 25 l 1
 42 27 l 1
 43 27 l 1
 43 26 l 1
 44 26 l 1
 44 25 l 1
46 25 m 1
 45 25 l 1
 45 26 l 1
 44 26 l 1
 44 27 l 1
 46 27 l 1
 46 25 l 1
49 25 m 1
 47 25 l 1
 47 27 l 1
 49 27 l 1
 49 25 l 1
49 29 m 1
 47 29 l 1
 47 31 l 1
 49 31 l 1
 49 29 l 1
55 25 m 1
 53 25 l 1
 53 27 l 1
 55 27 l 1
 55 25 l 1
55 29 m 1
 53 29 l 1
 53 31 l 1
 55 31 l 1
 55 29 l 1
43 33 m 1
 42 33 l 1
 42 35 l 1
 44 35 l 1
 44 34 l 1
 43 34 l 1
 43 33 l 1
46 33 m 1
 44 33 l 1
 44 34 l 1
 45 34 l 1
 45 35 l 1
 46 35 l 1
 46 33 l 1
49 33 m 1
 47 33 l 1
 47 35 l 1
 49 35 l 1
 49 33 l 1
49 37 m 1
 47 37 l 1
 47 39 l 1
 49 39 l 1
 49 37 l 1
55 33 m 1
 53 33 l 1
 53 35 l 1
 55 35 l 1
 55 33 l 1
55 37 m 1
 53 37 l 1
 53 39 l 1
 55 39 l 1
 55 37 l 1
58 25 m 1
 56 25 l 1
 56 27 l 1
 57 27 l 1
 57 26 l 1
 58 26 l 1
 58 25 l 1
60 25 m 1
 59 25 l 1
 59 26 l 1
 58 26 l 1
 58 27 l 1
 60 27 l 1
 60 25 l 1
63 25 m 1
 61 25 l 1
 61 27 l 1
 63 27 l 1
 63 25 l 1
63 29 m 1
 61 29 l 1
 61 31 l 1
 63 31 l 1
 63 29 l 1
63 33 m 1
 61 33 l 1
 61 35 l 1
 63 35 l 1
 63 33 l 1
63 37 m 1
 61 37 l 1
 61 39 l 1
 63 39 l 1
 63 37 l 1
17 41 m 1
 15 41 l 1
 15 43 l 1
 17 43 l 1
 17 41 l 1
23 41 m 1
 21 41 l 1
 21 43 l 1
 23 43 l 1
 23 41 l 1
26 41 m 1
 24 41 l 1
 24 43 l 1
 25 43 l 1
 25 42 l 1
 26 42 l 1
 26 41 l 1
28 41 m 1
 27 41 l 1
 27 42 l 1
 26 42 l 1
 26 43 l 1
 28 43 l 1
 28 41 l 1
31 41 m 1
 29 41 l 1
 29 43 l 1
 31 43 l 1
 31 41 l 1
41 41 m 1
 39 41 l 1
 39 43 l 1
 41 43 l 1
 41 41 l 1
44 41 m 1
 42 41 l 1
 42 43 l 1
 43 43 l 1
 43 42 l 1
 44 42 l 1
 44 41 l 1
46 41 m 1
 45 41 l 1
 45 42 l 1
 44 42 l 1
 44 43 l 1
 46 43 l 1
 46 41 l 1
49 41 m 1
 47 41 l 1
 47 43 l 1
 49 43 l 1
 49 41 l 1
55 41 m 1
 53 41 l 1
 53 43 l 1
 55 43 l 1
 55 41 l 1
58 41 m 1
 56 41 l 1
 56 43 l 1
 57 43 l 1
 57 42 l 1
 58 42 l 1
 58 41 l 1
60 41 m 1
 59 41 l 1
 59 42 l 1
 58 42 l 1
 58 43 l 1
 60 43 l 1
 60 41 l 1
63 41 m 1
 61 41 l 1
 61 43 l 1
 63 43 l 1
 63 41 l 1
EndSplineSet
Ligature2: "'liga' Standard Ligatures in Latin lookup 0-1" three zero zero four five
LCarets2: 1 0
EndChar

StartChar: custom_3_0_0_4_6
Encoding: 9302 -1 9057
Width: 70
Flags: H
LayerCount: 2
Fore
SplineSet
3 2 m 1
 2 2 l 1
 2 3 l 1
 3 3 l 1
 3 2 l 1
5 3 m 1
 3 3 l 1
 3 4 l 1
 2 4 l 1
 2 5 l 1
 4 5 l 1
 4 4 l 1
 5 4 l 1
 5 3 l 1
17 25 m 1
 15 25 l 1
 15 27 l 1
 17 27 l 1
 17 25 l 1
17 29 m 1
 15 29 l 1
 15 31 l 1
 17 31 l 1
 17 29 l 1
23 25 m 1
 21 25 l 1
 21 27 l 1
 23 27 l 1
 23 25 l 1
17 33 m 1
 15 33 l 1
 15 35 l 1
 17 35 l 1
 17 33 l 1
17 37 m 1
 15 37 l 1
 15 39 l 1
 17 39 l 1
 17 37 l 1
23 33 m 1
 21 33 l 1
 21 35 l 1
 23 35 l 1
 23 33 l 1
23 37 m 1
 21 37 l 1
 21 39 l 1
 23 39 l 1
 23 37 l 1
26 25 m 1
 24 25 l 1
 24 27 l 1
 25 27 l 1
 25 26 l 1
 26 26 l 1
 26 25 l 1
28 25 m 1
 27 25 l 1
 27 26 l 1
 26 26 l 1
 26 27 l 1
 28 27 l 1
 28 25 l 1
31 25 m 1
 29 25 l 1
 29 27 l 1
 31 27 l 1
 31 25 l 1
31 29 m 1
 29 29 l 1
 29 31 l 1
 31 31 l 1
 31 29 l 1
41 25 m 1
 39 25 l 1
 39 27 l 1
 41 27 l 1
 41 25 l 1
25 33 m 1
 24 33 l 1
 24 35 l 1
 26 35 l 1
 26 34 l 1
 25 34 l 1
 25 33 l 1
28 33 m 1
 26 33 l 1
 26 34 l 1
 27 34 l 1
 27 35 l 1
 28 35 l 1
 28 33 l 1
31 33 m 1
 29 33 l 1
 29 35 l 1
 31 35 l 1
 31 33 l 1
36 31 m 1
 34 31 l 1
 34 33 l 1
 36 33 l 1
 36 31 l 1
41 33 m 1
 39 33 l 1
 39 35 l 1
 41 35 l 1
 41 33 l 1
36 35 m 1
 34 35 l 1
 34 37 l 1
 36 37 l 1
 36 35 l 1
44 25 m 1
 42 25 l 1
 42 27 l 1
 43 27 l 1
 43 26 l 1
 44 26 l 1
 44 25 l 1
46 25 m 1
 45 25 l 1
 45 26 l 1
 44 26 l 1
 44 27 l 1
 46 27 l 1
 46 25 l 1
49 25 m 1
 47 25 l 1
 47 27 l 1
 49 27 l 1
 49 25 l 1
49 29 m 1
 47 29 l 1
 47 31 l 1
 49 31 l 1
 49 29 l 1
55 25 m 1
 53 25 l 1
 53 27 l 1
 55 27 l 1
 55 25 l 1
55 29 m 1
 53 29 l 1
 53 31 l 1
 55 31 l 1
 55 29 l 1
43 33 m 1
 42 33 l 1
 42 35 l 1
 44 35 l 1
 44 34 l 1
 43 34 l 1
 43 33 l 1
46 33 m 1
 44 33 l 1
 44 34 l 1
 45 34 l 1
 45 35 l 1
 46 35 l 1
 46 33 l 1
49 33 m 1
 47 33 l 1
 47 35 l 1
 49 35 l 1
 49 33 l 1
49 37 m 1
 47 37 l 1
 47 39 l 1
 49 39 l 1
 49 37 l 1
55 33 m 1
 53 33 l 1
 53 35 l 1
 55 35 l 1
 55 33 l 1
55 37 m 1
 53 37 l 1
 53 39 l 1
 55 39 l 1
 55 37 l 1
58 25 m 1
 56 25 l 1
 56 27 l 1
 57 27 l 1
 57 26 l 1
 58 26 l 1
 58 25 l 1
60 25 m 1
 59 25 l 1
 59 26 l 1
 58 26 l 1
 58 27 l 1
 60 27 l 1
 60 25 l 1
63 25 m 1
 61 25 l 1
 61 27 l 1
 63 27 l 1
 63 25 l 1
63 29 m 1
 61 29 l 1
 61 31 l 1
 63 31 l 1
 63 29 l 1
63 33 m 1
 61 33 l 1
 61 35 l 1
 63 35 l 1
 63 33 l 1
63 37 m 1
 61 37 l 1
 61 39 l 1
 63 39 l 1
 63 37 l 1
17 41 m 1
 15 41 l 1
 15 43 l 1
 17 43 l 1
 17 41 l 1
23 41 m 1
 21 41 l 1
 21 43 l 1
 23 43 l 1
 23 41 l 1
26 41 m 1
 24 41 l 1
 24 43 l 1
 25 43 l 1
 25 42 l 1
 26 42 l 1
 26 41 l 1
28 41 m 1
 27 41 l 1
 27 42 l 1
 26 42 l 1
 26 43 l 1
 28 43 l 1
 28 41 l 1
31 41 m 1
 29 41 l 1
 29 43 l 1
 31 43 l 1
 31 41 l 1
41 41 m 1
 39 41 l 1
 39 43 l 1
 41 43 l 1
 41 41 l 1
44 41 m 1
 42 41 l 1
 42 43 l 1
 43 43 l 1
 43 42 l 1
 44 42 l 1
 44 41 l 1
46 41 m 1
 45 41 l 1
 45 42 l 1
 44 42 l 1
 44 43 l 1
 46 43 l 1
 46 41 l 1
49 41 m 1
 47 41 l 1
 47 43 l 1
 49 43 l 1
 49 41 l 1
55 41 m 1
 53 41 l 1
 53 43 l 1
 55 43 l 1
 55 41 l 1
58 41 m 1
 56 41 l 1
 56 43 l 1
 57 43 l 1
 57 42 l 1
 58 42 l 1
 58 41 l 1
60 41 m 1
 59 41 l 1
 59 42 l 1
 58 42 l 1
 58 43 l 1
 60 43 l 1
 60 41 l 1
63 41 m 1
 61 41 l 1
 61 43 l 1
 63 43 l 1
 63 41 l 1
EndSplineSet
Ligature2: "'liga' Standard Ligatures in Latin lookup 0-1" three zero zero four six
LCarets2: 1 0
EndChar

StartChar: custom_3_0_0_4_7
Encoding: 9303 -1 9058
Width: 70
Flags: H
LayerCount: 2
Fore
SplineSet
4 2 m 1
 3 2 l 1
 3 3 l 1
 4 3 l 1
 4 2 l 1
4 4 m 1
 2 4 l 1
 2 5 l 1
 5 5 l 1
 5 3 l 1
 4 3 l 1
 4 4 l 1
17 25 m 1
 15 25 l 1
 15 27 l 1
 17 27 l 1
 17 25 l 1
17 29 m 1
 15 29 l 1
 15 31 l 1
 17 31 l 1
 17 29 l 1
23 25 m 1
 21 25 l 1
 21 27 l 1
 23 27 l 1
 23 25 l 1
17 33 m 1
 15 33 l 1
 15 35 l 1
 17 35 l 1
 17 33 l 1
17 37 m 1
 15 37 l 1
 15 39 l 1
 17 39 l 1
 17 37 l 1
23 33 m 1
 21 33 l 1
 21 35 l 1
 23 35 l 1
 23 33 l 1
23 37 m 1
 21 37 l 1
 21 39 l 1
 23 39 l 1
 23 37 l 1
26 25 m 1
 24 25 l 1
 24 27 l 1
 25 27 l 1
 25 26 l 1
 26 26 l 1
 26 25 l 1
28 25 m 1
 27 25 l 1
 27 26 l 1
 26 26 l 1
 26 27 l 1
 28 27 l 1
 28 25 l 1
31 25 m 1
 29 25 l 1
 29 27 l 1
 31 27 l 1
 31 25 l 1
31 29 m 1
 29 29 l 1
 29 31 l 1
 31 31 l 1
 31 29 l 1
41 25 m 1
 39 25 l 1
 39 27 l 1
 41 27 l 1
 41 25 l 1
25 33 m 1
 24 33 l 1
 24 35 l 1
 26 35 l 1
 26 34 l 1
 25 34 l 1
 25 33 l 1
28 33 m 1
 26 33 l 1
 26 34 l 1
 27 34 l 1
 27 35 l 1
 28 35 l 1
 28 33 l 1
31 33 m 1
 29 33 l 1
 29 35 l 1
 31 35 l 1
 31 33 l 1
36 31 m 1
 34 31 l 1
 34 33 l 1
 36 33 l 1
 36 31 l 1
41 33 m 1
 39 33 l 1
 39 35 l 1
 41 35 l 1
 41 33 l 1
36 35 m 1
 34 35 l 1
 34 37 l 1
 36 37 l 1
 36 35 l 1
44 25 m 1
 42 25 l 1
 42 27 l 1
 43 27 l 1
 43 26 l 1
 44 26 l 1
 44 25 l 1
46 25 m 1
 45 25 l 1
 45 26 l 1
 44 26 l 1
 44 27 l 1
 46 27 l 1
 46 25 l 1
49 25 m 1
 47 25 l 1
 47 27 l 1
 49 27 l 1
 49 25 l 1
49 29 m 1
 47 29 l 1
 47 31 l 1
 49 31 l 1
 49 29 l 1
55 25 m 1
 53 25 l 1
 53 27 l 1
 55 27 l 1
 55 25 l 1
55 29 m 1
 53 29 l 1
 53 31 l 1
 55 31 l 1
 55 29 l 1
43 33 m 1
 42 33 l 1
 42 35 l 1
 44 35 l 1
 44 34 l 1
 43 34 l 1
 43 33 l 1
46 33 m 1
 44 33 l 1
 44 34 l 1
 45 34 l 1
 45 35 l 1
 46 35 l 1
 46 33 l 1
49 33 m 1
 47 33 l 1
 47 35 l 1
 49 35 l 1
 49 33 l 1
49 37 m 1
 47 37 l 1
 47 39 l 1
 49 39 l 1
 49 37 l 1
55 33 m 1
 53 33 l 1
 53 35 l 1
 55 35 l 1
 55 33 l 1
55 37 m 1
 53 37 l 1
 53 39 l 1
 55 39 l 1
 55 37 l 1
58 25 m 1
 56 25 l 1
 56 27 l 1
 57 27 l 1
 57 26 l 1
 58 26 l 1
 58 25 l 1
60 25 m 1
 59 25 l 1
 59 26 l 1
 58 26 l 1
 58 27 l 1
 60 27 l 1
 60 25 l 1
63 25 m 1
 61 25 l 1
 61 27 l 1
 63 27 l 1
 63 25 l 1
63 29 m 1
 61 29 l 1
 61 31 l 1
 63 31 l 1
 63 29 l 1
63 33 m 1
 61 33 l 1
 61 35 l 1
 63 35 l 1
 63 33 l 1
63 37 m 1
 61 37 l 1
 61 39 l 1
 63 39 l 1
 63 37 l 1
17 41 m 1
 15 41 l 1
 15 43 l 1
 17 43 l 1
 17 41 l 1
23 41 m 1
 21 41 l 1
 21 43 l 1
 23 43 l 1
 23 41 l 1
26 41 m 1
 24 41 l 1
 24 43 l 1
 25 43 l 1
 25 42 l 1
 26 42 l 1
 26 41 l 1
28 41 m 1
 27 41 l 1
 27 42 l 1
 26 42 l 1
 26 43 l 1
 28 43 l 1
 28 41 l 1
31 41 m 1
 29 41 l 1
 29 43 l 1
 31 43 l 1
 31 41 l 1
41 41 m 1
 39 41 l 1
 39 43 l 1
 41 43 l 1
 41 41 l 1
44 41 m 1
 42 41 l 1
 42 43 l 1
 43 43 l 1
 43 42 l 1
 44 42 l 1
 44 41 l 1
46 41 m 1
 45 41 l 1
 45 42 l 1
 44 42 l 1
 44 43 l 1
 46 43 l 1
 46 41 l 1
49 41 m 1
 47 41 l 1
 47 43 l 1
 49 43 l 1
 49 41 l 1
55 41 m 1
 53 41 l 1
 53 43 l 1
 55 43 l 1
 55 41 l 1
58 41 m 1
 56 41 l 1
 56 43 l 1
 57 43 l 1
 57 42 l 1
 58 42 l 1
 58 41 l 1
60 41 m 1
 59 41 l 1
 59 42 l 1
 58 42 l 1
 58 43 l 1
 60 43 l 1
 60 41 l 1
63 41 m 1
 61 41 l 1
 61 43 l 1
 63 43 l 1
 63 41 l 1
EndSplineSet
Ligature2: "'liga' Standard Ligatures in Latin lookup 0-1" three zero zero four seven
LCarets2: 1 0
EndChar

StartChar: custom_3_0_0_4_8
Encoding: 9304 -1 9059
Width: 70
Flags: H
LayerCount: 2
Fore
SplineSet
3 3 m 1
 2 3 l 1
 2 4 l 1
 3 4 l 1
 3 3 l 1
4 4 m 1
 3 4 l 1
 3 6 l 1
 4 6 l 1
 4 5 l 1
 5 5 l 1
 5 3 l 1
 4 3 l 1
 4 4 l 1
17 25 m 1
 15 25 l 1
 15 27 l 1
 17 27 l 1
 17 25 l 1
17 29 m 1
 15 29 l 1
 15 31 l 1
 17 31 l 1
 17 29 l 1
23 25 m 1
 21 25 l 1
 21 27 l 1
 23 27 l 1
 23 25 l 1
17 33 m 1
 15 33 l 1
 15 35 l 1
 17 35 l 1
 17 33 l 1
17 37 m 1
 15 37 l 1
 15 39 l 1
 17 39 l 1
 17 37 l 1
23 33 m 1
 21 33 l 1
 21 35 l 1
 23 35 l 1
 23 33 l 1
23 37 m 1
 21 37 l 1
 21 39 l 1
 23 39 l 1
 23 37 l 1
26 25 m 1
 24 25 l 1
 24 27 l 1
 25 27 l 1
 25 26 l 1
 26 26 l 1
 26 25 l 1
28 25 m 1
 27 25 l 1
 27 26 l 1
 26 26 l 1
 26 27 l 1
 28 27 l 1
 28 25 l 1
31 25 m 1
 29 25 l 1
 29 27 l 1
 31 27 l 1
 31 25 l 1
31 29 m 1
 29 29 l 1
 29 31 l 1
 31 31 l 1
 31 29 l 1
41 25 m 1
 39 25 l 1
 39 27 l 1
 41 27 l 1
 41 25 l 1
25 33 m 1
 24 33 l 1
 24 35 l 1
 26 35 l 1
 26 34 l 1
 25 34 l 1
 25 33 l 1
28 33 m 1
 26 33 l 1
 26 34 l 1
 27 34 l 1
 27 35 l 1
 28 35 l 1
 28 33 l 1
31 33 m 1
 29 33 l 1
 29 35 l 1
 31 35 l 1
 31 33 l 1
36 31 m 1
 34 31 l 1
 34 33 l 1
 36 33 l 1
 36 31 l 1
41 33 m 1
 39 33 l 1
 39 35 l 1
 41 35 l 1
 41 33 l 1
36 35 m 1
 34 35 l 1
 34 37 l 1
 36 37 l 1
 36 35 l 1
44 25 m 1
 42 25 l 1
 42 27 l 1
 43 27 l 1
 43 26 l 1
 44 26 l 1
 44 25 l 1
46 25 m 1
 45 25 l 1
 45 26 l 1
 44 26 l 1
 44 27 l 1
 46 27 l 1
 46 25 l 1
49 25 m 1
 47 25 l 1
 47 27 l 1
 49 27 l 1
 49 25 l 1
49 29 m 1
 47 29 l 1
 47 31 l 1
 49 31 l 1
 49 29 l 1
55 25 m 1
 53 25 l 1
 53 27 l 1
 55 27 l 1
 55 25 l 1
55 29 m 1
 53 29 l 1
 53 31 l 1
 55 31 l 1
 55 29 l 1
43 33 m 1
 42 33 l 1
 42 35 l 1
 44 35 l 1
 44 34 l 1
 43 34 l 1
 43 33 l 1
46 33 m 1
 44 33 l 1
 44 34 l 1
 45 34 l 1
 45 35 l 1
 46 35 l 1
 46 33 l 1
49 33 m 1
 47 33 l 1
 47 35 l 1
 49 35 l 1
 49 33 l 1
49 37 m 1
 47 37 l 1
 47 39 l 1
 49 39 l 1
 49 37 l 1
55 33 m 1
 53 33 l 1
 53 35 l 1
 55 35 l 1
 55 33 l 1
55 37 m 1
 53 37 l 1
 53 39 l 1
 55 39 l 1
 55 37 l 1
58 25 m 1
 56 25 l 1
 56 27 l 1
 57 27 l 1
 57 26 l 1
 58 26 l 1
 58 25 l 1
60 25 m 1
 59 25 l 1
 59 26 l 1
 58 26 l 1
 58 27 l 1
 60 27 l 1
 60 25 l 1
63 25 m 1
 61 25 l 1
 61 27 l 1
 63 27 l 1
 63 25 l 1
63 29 m 1
 61 29 l 1
 61 31 l 1
 63 31 l 1
 63 29 l 1
63 33 m 1
 61 33 l 1
 61 35 l 1
 63 35 l 1
 63 33 l 1
63 37 m 1
 61 37 l 1
 61 39 l 1
 63 39 l 1
 63 37 l 1
17 41 m 1
 15 41 l 1
 15 43 l 1
 17 43 l 1
 17 41 l 1
23 41 m 1
 21 41 l 1
 21 43 l 1
 23 43 l 1
 23 41 l 1
26 41 m 1
 24 41 l 1
 24 43 l 1
 25 43 l 1
 25 42 l 1
 26 42 l 1
 26 41 l 1
28 41 m 1
 27 41 l 1
 27 42 l 1
 26 42 l 1
 26 43 l 1
 28 43 l 1
 28 41 l 1
31 41 m 1
 29 41 l 1
 29 43 l 1
 31 43 l 1
 31 41 l 1
41 41 m 1
 39 41 l 1
 39 43 l 1
 41 43 l 1
 41 41 l 1
44 41 m 1
 42 41 l 1
 42 43 l 1
 43 43 l 1
 43 42 l 1
 44 42 l 1
 44 41 l 1
46 41 m 1
 45 41 l 1
 45 42 l 1
 44 42 l 1
 44 43 l 1
 46 43 l 1
 46 41 l 1
49 41 m 1
 47 41 l 1
 47 43 l 1
 49 43 l 1
 49 41 l 1
55 41 m 1
 53 41 l 1
 53 43 l 1
 55 43 l 1
 55 41 l 1
58 41 m 1
 56 41 l 1
 56 43 l 1
 57 43 l 1
 57 42 l 1
 58 42 l 1
 58 41 l 1
60 41 m 1
 59 41 l 1
 59 42 l 1
 58 42 l 1
 58 43 l 1
 60 43 l 1
 60 41 l 1
63 41 m 1
 61 41 l 1
 61 43 l 1
 63 43 l 1
 63 41 l 1
EndSplineSet
Ligature2: "'liga' Standard Ligatures in Latin lookup 0-1" three zero zero four eight
LCarets2: 1 0
EndChar

StartChar: custom_3_0_0_4_9
Encoding: 9305 -1 9060
Width: 70
Flags: H
LayerCount: 2
Fore
SplineSet
3 4 m 1
 2 4 l 1
 2 5 l 1
 3 5 l 1
 3 4 l 1
4 5 m 1
 3 5 l 1
 3 6 l 1
 5 6 l 1
 5 3 l 1
 4 3 l 1
 4 5 l 1
17 25 m 1
 15 25 l 1
 15 27 l 1
 17 27 l 1
 17 25 l 1
17 29 m 1
 15 29 l 1
 15 31 l 1
 17 31 l 1
 17 29 l 1
23 25 m 1
 21 25 l 1
 21 27 l 1
 23 27 l 1
 23 25 l 1
17 33 m 1
 15 33 l 1
 15 35 l 1
 17 35 l 1
 17 33 l 1
17 37 m 1
 15 37 l 1
 15 39 l 1
 17 39 l 1
 17 37 l 1
23 33 m 1
 21 33 l 1
 21 35 l 1
 23 35 l 1
 23 33 l 1
23 37 m 1
 21 37 l 1
 21 39 l 1
 23 39 l 1
 23 37 l 1
26 25 m 1
 24 25 l 1
 24 27 l 1
 25 27 l 1
 25 26 l 1
 26 26 l 1
 26 25 l 1
28 25 m 1
 27 25 l 1
 27 26 l 1
 26 26 l 1
 26 27 l 1
 28 27 l 1
 28 25 l 1
31 25 m 1
 29 25 l 1
 29 27 l 1
 31 27 l 1
 31 25 l 1
31 29 m 1
 29 29 l 1
 29 31 l 1
 31 31 l 1
 31 29 l 1
41 25 m 1
 39 25 l 1
 39 27 l 1
 41 27 l 1
 41 25 l 1
25 33 m 1
 24 33 l 1
 24 35 l 1
 26 35 l 1
 26 34 l 1
 25 34 l 1
 25 33 l 1
28 33 m 1
 26 33 l 1
 26 34 l 1
 27 34 l 1
 27 35 l 1
 28 35 l 1
 28 33 l 1
31 33 m 1
 29 33 l 1
 29 35 l 1
 31 35 l 1
 31 33 l 1
36 31 m 1
 34 31 l 1
 34 33 l 1
 36 33 l 1
 36 31 l 1
41 33 m 1
 39 33 l 1
 39 35 l 1
 41 35 l 1
 41 33 l 1
36 35 m 1
 34 35 l 1
 34 37 l 1
 36 37 l 1
 36 35 l 1
44 25 m 1
 42 25 l 1
 42 27 l 1
 43 27 l 1
 43 26 l 1
 44 26 l 1
 44 25 l 1
46 25 m 1
 45 25 l 1
 45 26 l 1
 44 26 l 1
 44 27 l 1
 46 27 l 1
 46 25 l 1
49 25 m 1
 47 25 l 1
 47 27 l 1
 49 27 l 1
 49 25 l 1
49 29 m 1
 47 29 l 1
 47 31 l 1
 49 31 l 1
 49 29 l 1
55 25 m 1
 53 25 l 1
 53 27 l 1
 55 27 l 1
 55 25 l 1
55 29 m 1
 53 29 l 1
 53 31 l 1
 55 31 l 1
 55 29 l 1
43 33 m 1
 42 33 l 1
 42 35 l 1
 44 35 l 1
 44 34 l 1
 43 34 l 1
 43 33 l 1
46 33 m 1
 44 33 l 1
 44 34 l 1
 45 34 l 1
 45 35 l 1
 46 35 l 1
 46 33 l 1
49 33 m 1
 47 33 l 1
 47 35 l 1
 49 35 l 1
 49 33 l 1
49 37 m 1
 47 37 l 1
 47 39 l 1
 49 39 l 1
 49 37 l 1
55 33 m 1
 53 33 l 1
 53 35 l 1
 55 35 l 1
 55 33 l 1
55 37 m 1
 53 37 l 1
 53 39 l 1
 55 39 l 1
 55 37 l 1
58 25 m 1
 56 25 l 1
 56 27 l 1
 57 27 l 1
 57 26 l 1
 58 26 l 1
 58 25 l 1
60 25 m 1
 59 25 l 1
 59 26 l 1
 58 26 l 1
 58 27 l 1
 60 27 l 1
 60 25 l 1
63 25 m 1
 61 25 l 1
 61 27 l 1
 63 27 l 1
 63 25 l 1
63 29 m 1
 61 29 l 1
 61 31 l 1
 63 31 l 1
 63 29 l 1
63 33 m 1
 61 33 l 1
 61 35 l 1
 63 35 l 1
 63 33 l 1
63 37 m 1
 61 37 l 1
 61 39 l 1
 63 39 l 1
 63 37 l 1
17 41 m 1
 15 41 l 1
 15 43 l 1
 17 43 l 1
 17 41 l 1
23 41 m 1
 21 41 l 1
 21 43 l 1
 23 43 l 1
 23 41 l 1
26 41 m 1
 24 41 l 1
 24 43 l 1
 25 43 l 1
 25 42 l 1
 26 42 l 1
 26 41 l 1
28 41 m 1
 27 41 l 1
 27 42 l 1
 26 42 l 1
 26 43 l 1
 28 43 l 1
 28 41 l 1
31 41 m 1
 29 41 l 1
 29 43 l 1
 31 43 l 1
 31 41 l 1
41 41 m 1
 39 41 l 1
 39 43 l 1
 41 43 l 1
 41 41 l 1
44 41 m 1
 42 41 l 1
 42 43 l 1
 43 43 l 1
 43 42 l 1
 44 42 l 1
 44 41 l 1
46 41 m 1
 45 41 l 1
 45 42 l 1
 44 42 l 1
 44 43 l 1
 46 43 l 1
 46 41 l 1
49 41 m 1
 47 41 l 1
 47 43 l 1
 49 43 l 1
 49 41 l 1
55 41 m 1
 53 41 l 1
 53 43 l 1
 55 43 l 1
 55 41 l 1
58 41 m 1
 56 41 l 1
 56 43 l 1
 57 43 l 1
 57 42 l 1
 58 42 l 1
 58 41 l 1
60 41 m 1
 59 41 l 1
 59 42 l 1
 58 42 l 1
 58 43 l 1
 60 43 l 1
 60 41 l 1
63 41 m 1
 61 41 l 1
 61 43 l 1
 63 43 l 1
 63 41 l 1
EndSplineSet
Ligature2: "'liga' Standard Ligatures in Latin lookup 0-1" three zero zero four nine
LCarets2: 1 0
EndChar

StartChar: custom_3_0_0_5_0
Encoding: 9306 -1 9061
Width: 70
Flags: H
LayerCount: 2
Fore
SplineSet
4 3 m 1
 3 3 l 1
 3 4 l 1
 4 4 l 1
 4 3 l 1
4 5 m 1
 3 5 l 1
 3 6 l 1
 5 6 l 1
 5 5 l 1
 6 5 l 1
 6 4 l 1
 4 4 l 1
 4 5 l 1
17 25 m 1
 15 25 l 1
 15 27 l 1
 17 27 l 1
 17 25 l 1
17 29 m 1
 15 29 l 1
 15 31 l 1
 17 31 l 1
 17 29 l 1
23 25 m 1
 21 25 l 1
 21 27 l 1
 23 27 l 1
 23 25 l 1
17 33 m 1
 15 33 l 1
 15 35 l 1
 17 35 l 1
 17 33 l 1
17 37 m 1
 15 37 l 1
 15 39 l 1
 17 39 l 1
 17 37 l 1
23 33 m 1
 21 33 l 1
 21 35 l 1
 23 35 l 1
 23 33 l 1
23 37 m 1
 21 37 l 1
 21 39 l 1
 23 39 l 1
 23 37 l 1
26 25 m 1
 24 25 l 1
 24 27 l 1
 25 27 l 1
 25 26 l 1
 26 26 l 1
 26 25 l 1
28 25 m 1
 27 25 l 1
 27 26 l 1
 26 26 l 1
 26 27 l 1
 28 27 l 1
 28 25 l 1
31 25 m 1
 29 25 l 1
 29 27 l 1
 31 27 l 1
 31 25 l 1
31 29 m 1
 29 29 l 1
 29 31 l 1
 31 31 l 1
 31 29 l 1
41 25 m 1
 39 25 l 1
 39 27 l 1
 41 27 l 1
 41 25 l 1
25 33 m 1
 24 33 l 1
 24 35 l 1
 26 35 l 1
 26 34 l 1
 25 34 l 1
 25 33 l 1
28 33 m 1
 26 33 l 1
 26 34 l 1
 27 34 l 1
 27 35 l 1
 28 35 l 1
 28 33 l 1
31 33 m 1
 29 33 l 1
 29 35 l 1
 31 35 l 1
 31 33 l 1
36 31 m 1
 34 31 l 1
 34 33 l 1
 36 33 l 1
 36 31 l 1
41 33 m 1
 39 33 l 1
 39 35 l 1
 41 35 l 1
 41 33 l 1
36 35 m 1
 34 35 l 1
 34 37 l 1
 36 37 l 1
 36 35 l 1
44 25 m 1
 42 25 l 1
 42 27 l 1
 43 27 l 1
 43 26 l 1
 44 26 l 1
 44 25 l 1
46 25 m 1
 45 25 l 1
 45 26 l 1
 44 26 l 1
 44 27 l 1
 46 27 l 1
 46 25 l 1
49 25 m 1
 47 25 l 1
 47 27 l 1
 49 27 l 1
 49 25 l 1
49 29 m 1
 47 29 l 1
 47 31 l 1
 49 31 l 1
 49 29 l 1
55 25 m 1
 53 25 l 1
 53 27 l 1
 55 27 l 1
 55 25 l 1
55 29 m 1
 53 29 l 1
 53 31 l 1
 55 31 l 1
 55 29 l 1
43 33 m 1
 42 33 l 1
 42 35 l 1
 44 35 l 1
 44 34 l 1
 43 34 l 1
 43 33 l 1
46 33 m 1
 44 33 l 1
 44 34 l 1
 45 34 l 1
 45 35 l 1
 46 35 l 1
 46 33 l 1
49 33 m 1
 47 33 l 1
 47 35 l 1
 49 35 l 1
 49 33 l 1
49 37 m 1
 47 37 l 1
 47 39 l 1
 49 39 l 1
 49 37 l 1
55 33 m 1
 53 33 l 1
 53 35 l 1
 55 35 l 1
 55 33 l 1
55 37 m 1
 53 37 l 1
 53 39 l 1
 55 39 l 1
 55 37 l 1
58 25 m 1
 56 25 l 1
 56 27 l 1
 57 27 l 1
 57 26 l 1
 58 26 l 1
 58 25 l 1
60 25 m 1
 59 25 l 1
 59 26 l 1
 58 26 l 1
 58 27 l 1
 60 27 l 1
 60 25 l 1
63 25 m 1
 61 25 l 1
 61 27 l 1
 63 27 l 1
 63 25 l 1
63 29 m 1
 61 29 l 1
 61 31 l 1
 63 31 l 1
 63 29 l 1
63 33 m 1
 61 33 l 1
 61 35 l 1
 63 35 l 1
 63 33 l 1
63 37 m 1
 61 37 l 1
 61 39 l 1
 63 39 l 1
 63 37 l 1
17 41 m 1
 15 41 l 1
 15 43 l 1
 17 43 l 1
 17 41 l 1
23 41 m 1
 21 41 l 1
 21 43 l 1
 23 43 l 1
 23 41 l 1
26 41 m 1
 24 41 l 1
 24 43 l 1
 25 43 l 1
 25 42 l 1
 26 42 l 1
 26 41 l 1
28 41 m 1
 27 41 l 1
 27 42 l 1
 26 42 l 1
 26 43 l 1
 28 43 l 1
 28 41 l 1
31 41 m 1
 29 41 l 1
 29 43 l 1
 31 43 l 1
 31 41 l 1
41 41 m 1
 39 41 l 1
 39 43 l 1
 41 43 l 1
 41 41 l 1
44 41 m 1
 42 41 l 1
 42 43 l 1
 43 43 l 1
 43 42 l 1
 44 42 l 1
 44 41 l 1
46 41 m 1
 45 41 l 1
 45 42 l 1
 44 42 l 1
 44 43 l 1
 46 43 l 1
 46 41 l 1
49 41 m 1
 47 41 l 1
 47 43 l 1
 49 43 l 1
 49 41 l 1
55 41 m 1
 53 41 l 1
 53 43 l 1
 55 43 l 1
 55 41 l 1
58 41 m 1
 56 41 l 1
 56 43 l 1
 57 43 l 1
 57 42 l 1
 58 42 l 1
 58 41 l 1
60 41 m 1
 59 41 l 1
 59 42 l 1
 58 42 l 1
 58 43 l 1
 60 43 l 1
 60 41 l 1
63 41 m 1
 61 41 l 1
 61 43 l 1
 63 43 l 1
 63 41 l 1
EndSplineSet
Ligature2: "'liga' Standard Ligatures in Latin lookup 0-1" three zero zero five zero
LCarets2: 1 0
EndChar

StartChar: custom_3_0_0_5_1
Encoding: 9307 -1 9062
Width: 70
Flags: H
LayerCount: 2
Fore
SplineSet
5 5 m 1
 3 5 l 1
 3 6 l 1
 6 6 l 1
 6 4 l 1
 5 4 l 1
 5 5 l 1
5 3 m 1
 4 3 l 1
 4 4 l 1
 5 4 l 1
 5 3 l 1
17 25 m 1
 15 25 l 1
 15 27 l 1
 17 27 l 1
 17 25 l 1
17 29 m 1
 15 29 l 1
 15 31 l 1
 17 31 l 1
 17 29 l 1
23 25 m 1
 21 25 l 1
 21 27 l 1
 23 27 l 1
 23 25 l 1
17 33 m 1
 15 33 l 1
 15 35 l 1
 17 35 l 1
 17 33 l 1
17 37 m 1
 15 37 l 1
 15 39 l 1
 17 39 l 1
 17 37 l 1
23 33 m 1
 21 33 l 1
 21 35 l 1
 23 35 l 1
 23 33 l 1
23 37 m 1
 21 37 l 1
 21 39 l 1
 23 39 l 1
 23 37 l 1
26 25 m 1
 24 25 l 1
 24 27 l 1
 25 27 l 1
 25 26 l 1
 26 26 l 1
 26 25 l 1
28 25 m 1
 27 25 l 1
 27 26 l 1
 26 26 l 1
 26 27 l 1
 28 27 l 1
 28 25 l 1
31 25 m 1
 29 25 l 1
 29 27 l 1
 31 27 l 1
 31 25 l 1
31 29 m 1
 29 29 l 1
 29 31 l 1
 31 31 l 1
 31 29 l 1
41 25 m 1
 39 25 l 1
 39 27 l 1
 41 27 l 1
 41 25 l 1
25 33 m 1
 24 33 l 1
 24 35 l 1
 26 35 l 1
 26 34 l 1
 25 34 l 1
 25 33 l 1
28 33 m 1
 26 33 l 1
 26 34 l 1
 27 34 l 1
 27 35 l 1
 28 35 l 1
 28 33 l 1
31 33 m 1
 29 33 l 1
 29 35 l 1
 31 35 l 1
 31 33 l 1
36 31 m 1
 34 31 l 1
 34 33 l 1
 36 33 l 1
 36 31 l 1
41 33 m 1
 39 33 l 1
 39 35 l 1
 41 35 l 1
 41 33 l 1
36 35 m 1
 34 35 l 1
 34 37 l 1
 36 37 l 1
 36 35 l 1
44 25 m 1
 42 25 l 1
 42 27 l 1
 43 27 l 1
 43 26 l 1
 44 26 l 1
 44 25 l 1
46 25 m 1
 45 25 l 1
 45 26 l 1
 44 26 l 1
 44 27 l 1
 46 27 l 1
 46 25 l 1
49 25 m 1
 47 25 l 1
 47 27 l 1
 49 27 l 1
 49 25 l 1
49 29 m 1
 47 29 l 1
 47 31 l 1
 49 31 l 1
 49 29 l 1
55 25 m 1
 53 25 l 1
 53 27 l 1
 55 27 l 1
 55 25 l 1
55 29 m 1
 53 29 l 1
 53 31 l 1
 55 31 l 1
 55 29 l 1
43 33 m 1
 42 33 l 1
 42 35 l 1
 44 35 l 1
 44 34 l 1
 43 34 l 1
 43 33 l 1
46 33 m 1
 44 33 l 1
 44 34 l 1
 45 34 l 1
 45 35 l 1
 46 35 l 1
 46 33 l 1
49 33 m 1
 47 33 l 1
 47 35 l 1
 49 35 l 1
 49 33 l 1
49 37 m 1
 47 37 l 1
 47 39 l 1
 49 39 l 1
 49 37 l 1
55 33 m 1
 53 33 l 1
 53 35 l 1
 55 35 l 1
 55 33 l 1
55 37 m 1
 53 37 l 1
 53 39 l 1
 55 39 l 1
 55 37 l 1
58 25 m 1
 56 25 l 1
 56 27 l 1
 57 27 l 1
 57 26 l 1
 58 26 l 1
 58 25 l 1
60 25 m 1
 59 25 l 1
 59 26 l 1
 58 26 l 1
 58 27 l 1
 60 27 l 1
 60 25 l 1
63 25 m 1
 61 25 l 1
 61 27 l 1
 63 27 l 1
 63 25 l 1
63 29 m 1
 61 29 l 1
 61 31 l 1
 63 31 l 1
 63 29 l 1
63 33 m 1
 61 33 l 1
 61 35 l 1
 63 35 l 1
 63 33 l 1
63 37 m 1
 61 37 l 1
 61 39 l 1
 63 39 l 1
 63 37 l 1
17 41 m 1
 15 41 l 1
 15 43 l 1
 17 43 l 1
 17 41 l 1
23 41 m 1
 21 41 l 1
 21 43 l 1
 23 43 l 1
 23 41 l 1
26 41 m 1
 24 41 l 1
 24 43 l 1
 25 43 l 1
 25 42 l 1
 26 42 l 1
 26 41 l 1
28 41 m 1
 27 41 l 1
 27 42 l 1
 26 42 l 1
 26 43 l 1
 28 43 l 1
 28 41 l 1
31 41 m 1
 29 41 l 1
 29 43 l 1
 31 43 l 1
 31 41 l 1
41 41 m 1
 39 41 l 1
 39 43 l 1
 41 43 l 1
 41 41 l 1
44 41 m 1
 42 41 l 1
 42 43 l 1
 43 43 l 1
 43 42 l 1
 44 42 l 1
 44 41 l 1
46 41 m 1
 45 41 l 1
 45 42 l 1
 44 42 l 1
 44 43 l 1
 46 43 l 1
 46 41 l 1
49 41 m 1
 47 41 l 1
 47 43 l 1
 49 43 l 1
 49 41 l 1
55 41 m 1
 53 41 l 1
 53 43 l 1
 55 43 l 1
 55 41 l 1
58 41 m 1
 56 41 l 1
 56 43 l 1
 57 43 l 1
 57 42 l 1
 58 42 l 1
 58 41 l 1
60 41 m 1
 59 41 l 1
 59 42 l 1
 58 42 l 1
 58 43 l 1
 60 43 l 1
 60 41 l 1
63 41 m 1
 61 41 l 1
 61 43 l 1
 63 43 l 1
 63 41 l 1
EndSplineSet
Ligature2: "'liga' Standard Ligatures in Latin lookup 0-1" three zero zero five one
LCarets2: 1 0
EndChar

StartChar: custom_3_0_0_5_2
Encoding: 9308 -1 9063
Width: 70
Flags: H
LayerCount: 2
Fore
SplineSet
4 4 m 1
 3 4 l 1
 3 5 l 1
 4 5 l 1
 4 4 l 1
6 4 m 1
 5 4 l 1
 5 5 l 1
 4 5 l 1
 4 7 l 1
 5 7 l 1
 5 6 l 1
 6 6 l 1
 6 4 l 1
17 25 m 1
 15 25 l 1
 15 27 l 1
 17 27 l 1
 17 25 l 1
17 29 m 1
 15 29 l 1
 15 31 l 1
 17 31 l 1
 17 29 l 1
23 25 m 1
 21 25 l 1
 21 27 l 1
 23 27 l 1
 23 25 l 1
17 33 m 1
 15 33 l 1
 15 35 l 1
 17 35 l 1
 17 33 l 1
17 37 m 1
 15 37 l 1
 15 39 l 1
 17 39 l 1
 17 37 l 1
23 33 m 1
 21 33 l 1
 21 35 l 1
 23 35 l 1
 23 33 l 1
23 37 m 1
 21 37 l 1
 21 39 l 1
 23 39 l 1
 23 37 l 1
26 25 m 1
 24 25 l 1
 24 27 l 1
 25 27 l 1
 25 26 l 1
 26 26 l 1
 26 25 l 1
28 25 m 1
 27 25 l 1
 27 26 l 1
 26 26 l 1
 26 27 l 1
 28 27 l 1
 28 25 l 1
31 25 m 1
 29 25 l 1
 29 27 l 1
 31 27 l 1
 31 25 l 1
31 29 m 1
 29 29 l 1
 29 31 l 1
 31 31 l 1
 31 29 l 1
41 25 m 1
 39 25 l 1
 39 27 l 1
 41 27 l 1
 41 25 l 1
25 33 m 1
 24 33 l 1
 24 35 l 1
 26 35 l 1
 26 34 l 1
 25 34 l 1
 25 33 l 1
28 33 m 1
 26 33 l 1
 26 34 l 1
 27 34 l 1
 27 35 l 1
 28 35 l 1
 28 33 l 1
31 33 m 1
 29 33 l 1
 29 35 l 1
 31 35 l 1
 31 33 l 1
36 31 m 1
 34 31 l 1
 34 33 l 1
 36 33 l 1
 36 31 l 1
41 33 m 1
 39 33 l 1
 39 35 l 1
 41 35 l 1
 41 33 l 1
36 35 m 1
 34 35 l 1
 34 37 l 1
 36 37 l 1
 36 35 l 1
44 25 m 1
 42 25 l 1
 42 27 l 1
 43 27 l 1
 43 26 l 1
 44 26 l 1
 44 25 l 1
46 25 m 1
 45 25 l 1
 45 26 l 1
 44 26 l 1
 44 27 l 1
 46 27 l 1
 46 25 l 1
49 25 m 1
 47 25 l 1
 47 27 l 1
 49 27 l 1
 49 25 l 1
49 29 m 1
 47 29 l 1
 47 31 l 1
 49 31 l 1
 49 29 l 1
55 25 m 1
 53 25 l 1
 53 27 l 1
 55 27 l 1
 55 25 l 1
55 29 m 1
 53 29 l 1
 53 31 l 1
 55 31 l 1
 55 29 l 1
43 33 m 1
 42 33 l 1
 42 35 l 1
 44 35 l 1
 44 34 l 1
 43 34 l 1
 43 33 l 1
46 33 m 1
 44 33 l 1
 44 34 l 1
 45 34 l 1
 45 35 l 1
 46 35 l 1
 46 33 l 1
49 33 m 1
 47 33 l 1
 47 35 l 1
 49 35 l 1
 49 33 l 1
49 37 m 1
 47 37 l 1
 47 39 l 1
 49 39 l 1
 49 37 l 1
55 33 m 1
 53 33 l 1
 53 35 l 1
 55 35 l 1
 55 33 l 1
55 37 m 1
 53 37 l 1
 53 39 l 1
 55 39 l 1
 55 37 l 1
58 25 m 1
 56 25 l 1
 56 27 l 1
 57 27 l 1
 57 26 l 1
 58 26 l 1
 58 25 l 1
60 25 m 1
 59 25 l 1
 59 26 l 1
 58 26 l 1
 58 27 l 1
 60 27 l 1
 60 25 l 1
63 25 m 1
 61 25 l 1
 61 27 l 1
 63 27 l 1
 63 25 l 1
63 29 m 1
 61 29 l 1
 61 31 l 1
 63 31 l 1
 63 29 l 1
63 33 m 1
 61 33 l 1
 61 35 l 1
 63 35 l 1
 63 33 l 1
63 37 m 1
 61 37 l 1
 61 39 l 1
 63 39 l 1
 63 37 l 1
17 41 m 1
 15 41 l 1
 15 43 l 1
 17 43 l 1
 17 41 l 1
23 41 m 1
 21 41 l 1
 21 43 l 1
 23 43 l 1
 23 41 l 1
26 41 m 1
 24 41 l 1
 24 43 l 1
 25 43 l 1
 25 42 l 1
 26 42 l 1
 26 41 l 1
28 41 m 1
 27 41 l 1
 27 42 l 1
 26 42 l 1
 26 43 l 1
 28 43 l 1
 28 41 l 1
31 41 m 1
 29 41 l 1
 29 43 l 1
 31 43 l 1
 31 41 l 1
41 41 m 1
 39 41 l 1
 39 43 l 1
 41 43 l 1
 41 41 l 1
44 41 m 1
 42 41 l 1
 42 43 l 1
 43 43 l 1
 43 42 l 1
 44 42 l 1
 44 41 l 1
46 41 m 1
 45 41 l 1
 45 42 l 1
 44 42 l 1
 44 43 l 1
 46 43 l 1
 46 41 l 1
49 41 m 1
 47 41 l 1
 47 43 l 1
 49 43 l 1
 49 41 l 1
55 41 m 1
 53 41 l 1
 53 43 l 1
 55 43 l 1
 55 41 l 1
58 41 m 1
 56 41 l 1
 56 43 l 1
 57 43 l 1
 57 42 l 1
 58 42 l 1
 58 41 l 1
60 41 m 1
 59 41 l 1
 59 42 l 1
 58 42 l 1
 58 43 l 1
 60 43 l 1
 60 41 l 1
63 41 m 1
 61 41 l 1
 61 43 l 1
 63 43 l 1
 63 41 l 1
EndSplineSet
Ligature2: "'liga' Standard Ligatures in Latin lookup 0-1" three zero zero five two
LCarets2: 1 0
EndChar

StartChar: custom_3_0_0_5_3
Encoding: 9309 -1 9064
Width: 70
Flags: H
LayerCount: 2
Fore
SplineSet
4 5 m 1
 3 5 l 1
 3 6 l 1
 4 6 l 1
 4 5 l 1
6 4 m 1
 5 4 l 1
 5 6 l 1
 4 6 l 1
 4 7 l 1
 6 7 l 1
 6 4 l 1
17 25 m 1
 15 25 l 1
 15 27 l 1
 17 27 l 1
 17 25 l 1
17 29 m 1
 15 29 l 1
 15 31 l 1
 17 31 l 1
 17 29 l 1
23 25 m 1
 21 25 l 1
 21 27 l 1
 23 27 l 1
 23 25 l 1
17 33 m 1
 15 33 l 1
 15 35 l 1
 17 35 l 1
 17 33 l 1
17 37 m 1
 15 37 l 1
 15 39 l 1
 17 39 l 1
 17 37 l 1
23 33 m 1
 21 33 l 1
 21 35 l 1
 23 35 l 1
 23 33 l 1
23 37 m 1
 21 37 l 1
 21 39 l 1
 23 39 l 1
 23 37 l 1
26 25 m 1
 24 25 l 1
 24 27 l 1
 25 27 l 1
 25 26 l 1
 26 26 l 1
 26 25 l 1
28 25 m 1
 27 25 l 1
 27 26 l 1
 26 26 l 1
 26 27 l 1
 28 27 l 1
 28 25 l 1
31 25 m 1
 29 25 l 1
 29 27 l 1
 31 27 l 1
 31 25 l 1
31 29 m 1
 29 29 l 1
 29 31 l 1
 31 31 l 1
 31 29 l 1
41 25 m 1
 39 25 l 1
 39 27 l 1
 41 27 l 1
 41 25 l 1
25 33 m 1
 24 33 l 1
 24 35 l 1
 26 35 l 1
 26 34 l 1
 25 34 l 1
 25 33 l 1
28 33 m 1
 26 33 l 1
 26 34 l 1
 27 34 l 1
 27 35 l 1
 28 35 l 1
 28 33 l 1
31 33 m 1
 29 33 l 1
 29 35 l 1
 31 35 l 1
 31 33 l 1
36 31 m 1
 34 31 l 1
 34 33 l 1
 36 33 l 1
 36 31 l 1
41 33 m 1
 39 33 l 1
 39 35 l 1
 41 35 l 1
 41 33 l 1
36 35 m 1
 34 35 l 1
 34 37 l 1
 36 37 l 1
 36 35 l 1
44 25 m 1
 42 25 l 1
 42 27 l 1
 43 27 l 1
 43 26 l 1
 44 26 l 1
 44 25 l 1
46 25 m 1
 45 25 l 1
 45 26 l 1
 44 26 l 1
 44 27 l 1
 46 27 l 1
 46 25 l 1
49 25 m 1
 47 25 l 1
 47 27 l 1
 49 27 l 1
 49 25 l 1
49 29 m 1
 47 29 l 1
 47 31 l 1
 49 31 l 1
 49 29 l 1
55 25 m 1
 53 25 l 1
 53 27 l 1
 55 27 l 1
 55 25 l 1
55 29 m 1
 53 29 l 1
 53 31 l 1
 55 31 l 1
 55 29 l 1
43 33 m 1
 42 33 l 1
 42 35 l 1
 44 35 l 1
 44 34 l 1
 43 34 l 1
 43 33 l 1
46 33 m 1
 44 33 l 1
 44 34 l 1
 45 34 l 1
 45 35 l 1
 46 35 l 1
 46 33 l 1
49 33 m 1
 47 33 l 1
 47 35 l 1
 49 35 l 1
 49 33 l 1
49 37 m 1
 47 37 l 1
 47 39 l 1
 49 39 l 1
 49 37 l 1
55 33 m 1
 53 33 l 1
 53 35 l 1
 55 35 l 1
 55 33 l 1
55 37 m 1
 53 37 l 1
 53 39 l 1
 55 39 l 1
 55 37 l 1
58 25 m 1
 56 25 l 1
 56 27 l 1
 57 27 l 1
 57 26 l 1
 58 26 l 1
 58 25 l 1
60 25 m 1
 59 25 l 1
 59 26 l 1
 58 26 l 1
 58 27 l 1
 60 27 l 1
 60 25 l 1
63 25 m 1
 61 25 l 1
 61 27 l 1
 63 27 l 1
 63 25 l 1
63 29 m 1
 61 29 l 1
 61 31 l 1
 63 31 l 1
 63 29 l 1
63 33 m 1
 61 33 l 1
 61 35 l 1
 63 35 l 1
 63 33 l 1
63 37 m 1
 61 37 l 1
 61 39 l 1
 63 39 l 1
 63 37 l 1
17 41 m 1
 15 41 l 1
 15 43 l 1
 17 43 l 1
 17 41 l 1
23 41 m 1
 21 41 l 1
 21 43 l 1
 23 43 l 1
 23 41 l 1
26 41 m 1
 24 41 l 1
 24 43 l 1
 25 43 l 1
 25 42 l 1
 26 42 l 1
 26 41 l 1
28 41 m 1
 27 41 l 1
 27 42 l 1
 26 42 l 1
 26 43 l 1
 28 43 l 1
 28 41 l 1
31 41 m 1
 29 41 l 1
 29 43 l 1
 31 43 l 1
 31 41 l 1
41 41 m 1
 39 41 l 1
 39 43 l 1
 41 43 l 1
 41 41 l 1
44 41 m 1
 42 41 l 1
 42 43 l 1
 43 43 l 1
 43 42 l 1
 44 42 l 1
 44 41 l 1
46 41 m 1
 45 41 l 1
 45 42 l 1
 44 42 l 1
 44 43 l 1
 46 43 l 1
 46 41 l 1
49 41 m 1
 47 41 l 1
 47 43 l 1
 49 43 l 1
 49 41 l 1
55 41 m 1
 53 41 l 1
 53 43 l 1
 55 43 l 1
 55 41 l 1
58 41 m 1
 56 41 l 1
 56 43 l 1
 57 43 l 1
 57 42 l 1
 58 42 l 1
 58 41 l 1
60 41 m 1
 59 41 l 1
 59 42 l 1
 58 42 l 1
 58 43 l 1
 60 43 l 1
 60 41 l 1
63 41 m 1
 61 41 l 1
 61 43 l 1
 63 43 l 1
 63 41 l 1
EndSplineSet
Ligature2: "'liga' Standard Ligatures in Latin lookup 0-1" three zero zero five three
LCarets2: 1 0
EndChar

StartChar: custom_3_0_0_5_4
Encoding: 9310 -1 9065
Width: 70
Flags: H
LayerCount: 2
Fore
SplineSet
5 4 m 1
 4 4 l 1
 4 5 l 1
 5 5 l 1
 5 4 l 1
7 5 m 1
 5 5 l 1
 5 6 l 1
 4 6 l 1
 4 7 l 1
 6 7 l 1
 6 6 l 1
 7 6 l 1
 7 5 l 1
17 25 m 1
 15 25 l 1
 15 27 l 1
 17 27 l 1
 17 25 l 1
17 29 m 1
 15 29 l 1
 15 31 l 1
 17 31 l 1
 17 29 l 1
23 25 m 1
 21 25 l 1
 21 27 l 1
 23 27 l 1
 23 25 l 1
17 33 m 1
 15 33 l 1
 15 35 l 1
 17 35 l 1
 17 33 l 1
17 37 m 1
 15 37 l 1
 15 39 l 1
 17 39 l 1
 17 37 l 1
23 33 m 1
 21 33 l 1
 21 35 l 1
 23 35 l 1
 23 33 l 1
23 37 m 1
 21 37 l 1
 21 39 l 1
 23 39 l 1
 23 37 l 1
26 25 m 1
 24 25 l 1
 24 27 l 1
 25 27 l 1
 25 26 l 1
 26 26 l 1
 26 25 l 1
28 25 m 1
 27 25 l 1
 27 26 l 1
 26 26 l 1
 26 27 l 1
 28 27 l 1
 28 25 l 1
31 25 m 1
 29 25 l 1
 29 27 l 1
 31 27 l 1
 31 25 l 1
31 29 m 1
 29 29 l 1
 29 31 l 1
 31 31 l 1
 31 29 l 1
41 25 m 1
 39 25 l 1
 39 27 l 1
 41 27 l 1
 41 25 l 1
25 33 m 1
 24 33 l 1
 24 35 l 1
 26 35 l 1
 26 34 l 1
 25 34 l 1
 25 33 l 1
28 33 m 1
 26 33 l 1
 26 34 l 1
 27 34 l 1
 27 35 l 1
 28 35 l 1
 28 33 l 1
31 33 m 1
 29 33 l 1
 29 35 l 1
 31 35 l 1
 31 33 l 1
36 31 m 1
 34 31 l 1
 34 33 l 1
 36 33 l 1
 36 31 l 1
41 33 m 1
 39 33 l 1
 39 35 l 1
 41 35 l 1
 41 33 l 1
36 35 m 1
 34 35 l 1
 34 37 l 1
 36 37 l 1
 36 35 l 1
44 25 m 1
 42 25 l 1
 42 27 l 1
 43 27 l 1
 43 26 l 1
 44 26 l 1
 44 25 l 1
46 25 m 1
 45 25 l 1
 45 26 l 1
 44 26 l 1
 44 27 l 1
 46 27 l 1
 46 25 l 1
49 25 m 1
 47 25 l 1
 47 27 l 1
 49 27 l 1
 49 25 l 1
49 29 m 1
 47 29 l 1
 47 31 l 1
 49 31 l 1
 49 29 l 1
55 25 m 1
 53 25 l 1
 53 27 l 1
 55 27 l 1
 55 25 l 1
55 29 m 1
 53 29 l 1
 53 31 l 1
 55 31 l 1
 55 29 l 1
43 33 m 1
 42 33 l 1
 42 35 l 1
 44 35 l 1
 44 34 l 1
 43 34 l 1
 43 33 l 1
46 33 m 1
 44 33 l 1
 44 34 l 1
 45 34 l 1
 45 35 l 1
 46 35 l 1
 46 33 l 1
49 33 m 1
 47 33 l 1
 47 35 l 1
 49 35 l 1
 49 33 l 1
49 37 m 1
 47 37 l 1
 47 39 l 1
 49 39 l 1
 49 37 l 1
55 33 m 1
 53 33 l 1
 53 35 l 1
 55 35 l 1
 55 33 l 1
55 37 m 1
 53 37 l 1
 53 39 l 1
 55 39 l 1
 55 37 l 1
58 25 m 1
 56 25 l 1
 56 27 l 1
 57 27 l 1
 57 26 l 1
 58 26 l 1
 58 25 l 1
60 25 m 1
 59 25 l 1
 59 26 l 1
 58 26 l 1
 58 27 l 1
 60 27 l 1
 60 25 l 1
63 25 m 1
 61 25 l 1
 61 27 l 1
 63 27 l 1
 63 25 l 1
63 29 m 1
 61 29 l 1
 61 31 l 1
 63 31 l 1
 63 29 l 1
63 33 m 1
 61 33 l 1
 61 35 l 1
 63 35 l 1
 63 33 l 1
63 37 m 1
 61 37 l 1
 61 39 l 1
 63 39 l 1
 63 37 l 1
17 41 m 1
 15 41 l 1
 15 43 l 1
 17 43 l 1
 17 41 l 1
23 41 m 1
 21 41 l 1
 21 43 l 1
 23 43 l 1
 23 41 l 1
26 41 m 1
 24 41 l 1
 24 43 l 1
 25 43 l 1
 25 42 l 1
 26 42 l 1
 26 41 l 1
28 41 m 1
 27 41 l 1
 27 42 l 1
 26 42 l 1
 26 43 l 1
 28 43 l 1
 28 41 l 1
31 41 m 1
 29 41 l 1
 29 43 l 1
 31 43 l 1
 31 41 l 1
41 41 m 1
 39 41 l 1
 39 43 l 1
 41 43 l 1
 41 41 l 1
44 41 m 1
 42 41 l 1
 42 43 l 1
 43 43 l 1
 43 42 l 1
 44 42 l 1
 44 41 l 1
46 41 m 1
 45 41 l 1
 45 42 l 1
 44 42 l 1
 44 43 l 1
 46 43 l 1
 46 41 l 1
49 41 m 1
 47 41 l 1
 47 43 l 1
 49 43 l 1
 49 41 l 1
55 41 m 1
 53 41 l 1
 53 43 l 1
 55 43 l 1
 55 41 l 1
58 41 m 1
 56 41 l 1
 56 43 l 1
 57 43 l 1
 57 42 l 1
 58 42 l 1
 58 41 l 1
60 41 m 1
 59 41 l 1
 59 42 l 1
 58 42 l 1
 58 43 l 1
 60 43 l 1
 60 41 l 1
63 41 m 1
 61 41 l 1
 61 43 l 1
 63 43 l 1
 63 41 l 1
EndSplineSet
Ligature2: "'liga' Standard Ligatures in Latin lookup 0-1" three zero zero five four
LCarets2: 1 0
EndChar

StartChar: custom_3_0_0_5_5
Encoding: 9311 -1 9066
Width: 70
Flags: H
LayerCount: 2
Fore
SplineSet
6 4 m 1
 5 4 l 1
 5 5 l 1
 6 5 l 1
 6 4 l 1
7 5 m 1
 6 5 l 1
 6 6 l 1
 4 6 l 1
 4 7 l 1
 7 7 l 1
 7 5 l 1
17 25 m 1
 15 25 l 1
 15 27 l 1
 17 27 l 1
 17 25 l 1
17 29 m 1
 15 29 l 1
 15 31 l 1
 17 31 l 1
 17 29 l 1
23 25 m 1
 21 25 l 1
 21 27 l 1
 23 27 l 1
 23 25 l 1
17 33 m 1
 15 33 l 1
 15 35 l 1
 17 35 l 1
 17 33 l 1
17 37 m 1
 15 37 l 1
 15 39 l 1
 17 39 l 1
 17 37 l 1
23 33 m 1
 21 33 l 1
 21 35 l 1
 23 35 l 1
 23 33 l 1
23 37 m 1
 21 37 l 1
 21 39 l 1
 23 39 l 1
 23 37 l 1
26 25 m 1
 24 25 l 1
 24 27 l 1
 25 27 l 1
 25 26 l 1
 26 26 l 1
 26 25 l 1
28 25 m 1
 27 25 l 1
 27 26 l 1
 26 26 l 1
 26 27 l 1
 28 27 l 1
 28 25 l 1
31 25 m 1
 29 25 l 1
 29 27 l 1
 31 27 l 1
 31 25 l 1
31 29 m 1
 29 29 l 1
 29 31 l 1
 31 31 l 1
 31 29 l 1
41 25 m 1
 39 25 l 1
 39 27 l 1
 41 27 l 1
 41 25 l 1
25 33 m 1
 24 33 l 1
 24 35 l 1
 26 35 l 1
 26 34 l 1
 25 34 l 1
 25 33 l 1
28 33 m 1
 26 33 l 1
 26 34 l 1
 27 34 l 1
 27 35 l 1
 28 35 l 1
 28 33 l 1
31 33 m 1
 29 33 l 1
 29 35 l 1
 31 35 l 1
 31 33 l 1
36 31 m 1
 34 31 l 1
 34 33 l 1
 36 33 l 1
 36 31 l 1
41 33 m 1
 39 33 l 1
 39 35 l 1
 41 35 l 1
 41 33 l 1
36 35 m 1
 34 35 l 1
 34 37 l 1
 36 37 l 1
 36 35 l 1
44 25 m 1
 42 25 l 1
 42 27 l 1
 43 27 l 1
 43 26 l 1
 44 26 l 1
 44 25 l 1
46 25 m 1
 45 25 l 1
 45 26 l 1
 44 26 l 1
 44 27 l 1
 46 27 l 1
 46 25 l 1
49 25 m 1
 47 25 l 1
 47 27 l 1
 49 27 l 1
 49 25 l 1
49 29 m 1
 47 29 l 1
 47 31 l 1
 49 31 l 1
 49 29 l 1
55 25 m 1
 53 25 l 1
 53 27 l 1
 55 27 l 1
 55 25 l 1
55 29 m 1
 53 29 l 1
 53 31 l 1
 55 31 l 1
 55 29 l 1
43 33 m 1
 42 33 l 1
 42 35 l 1
 44 35 l 1
 44 34 l 1
 43 34 l 1
 43 33 l 1
46 33 m 1
 44 33 l 1
 44 34 l 1
 45 34 l 1
 45 35 l 1
 46 35 l 1
 46 33 l 1
49 33 m 1
 47 33 l 1
 47 35 l 1
 49 35 l 1
 49 33 l 1
49 37 m 1
 47 37 l 1
 47 39 l 1
 49 39 l 1
 49 37 l 1
55 33 m 1
 53 33 l 1
 53 35 l 1
 55 35 l 1
 55 33 l 1
55 37 m 1
 53 37 l 1
 53 39 l 1
 55 39 l 1
 55 37 l 1
58 25 m 1
 56 25 l 1
 56 27 l 1
 57 27 l 1
 57 26 l 1
 58 26 l 1
 58 25 l 1
60 25 m 1
 59 25 l 1
 59 26 l 1
 58 26 l 1
 58 27 l 1
 60 27 l 1
 60 25 l 1
63 25 m 1
 61 25 l 1
 61 27 l 1
 63 27 l 1
 63 25 l 1
63 29 m 1
 61 29 l 1
 61 31 l 1
 63 31 l 1
 63 29 l 1
63 33 m 1
 61 33 l 1
 61 35 l 1
 63 35 l 1
 63 33 l 1
63 37 m 1
 61 37 l 1
 61 39 l 1
 63 39 l 1
 63 37 l 1
17 41 m 1
 15 41 l 1
 15 43 l 1
 17 43 l 1
 17 41 l 1
23 41 m 1
 21 41 l 1
 21 43 l 1
 23 43 l 1
 23 41 l 1
26 41 m 1
 24 41 l 1
 24 43 l 1
 25 43 l 1
 25 42 l 1
 26 42 l 1
 26 41 l 1
28 41 m 1
 27 41 l 1
 27 42 l 1
 26 42 l 1
 26 43 l 1
 28 43 l 1
 28 41 l 1
31 41 m 1
 29 41 l 1
 29 43 l 1
 31 43 l 1
 31 41 l 1
41 41 m 1
 39 41 l 1
 39 43 l 1
 41 43 l 1
 41 41 l 1
44 41 m 1
 42 41 l 1
 42 43 l 1
 43 43 l 1
 43 42 l 1
 44 42 l 1
 44 41 l 1
46 41 m 1
 45 41 l 1
 45 42 l 1
 44 42 l 1
 44 43 l 1
 46 43 l 1
 46 41 l 1
49 41 m 1
 47 41 l 1
 47 43 l 1
 49 43 l 1
 49 41 l 1
55 41 m 1
 53 41 l 1
 53 43 l 1
 55 43 l 1
 55 41 l 1
58 41 m 1
 56 41 l 1
 56 43 l 1
 57 43 l 1
 57 42 l 1
 58 42 l 1
 58 41 l 1
60 41 m 1
 59 41 l 1
 59 42 l 1
 58 42 l 1
 58 43 l 1
 60 43 l 1
 60 41 l 1
63 41 m 1
 61 41 l 1
 61 43 l 1
 63 43 l 1
 63 41 l 1
EndSplineSet
Ligature2: "'liga' Standard Ligatures in Latin lookup 0-1" three zero zero five five
LCarets2: 1 0
EndChar

StartChar: custom_3_0_0_5_6
Encoding: 9312 -1 9067
Width: 70
Flags: H
LayerCount: 2
Fore
SplineSet
5 5 m 1
 4 5 l 1
 4 6 l 1
 5 6 l 1
 5 5 l 1
7 5 m 1
 6 5 l 1
 6 6 l 1
 5 6 l 1
 5 8 l 1
 6 8 l 1
 6 7 l 1
 7 7 l 1
 7 5 l 1
17 25 m 1
 15 25 l 1
 15 27 l 1
 17 27 l 1
 17 25 l 1
17 29 m 1
 15 29 l 1
 15 31 l 1
 17 31 l 1
 17 29 l 1
23 25 m 1
 21 25 l 1
 21 27 l 1
 23 27 l 1
 23 25 l 1
17 33 m 1
 15 33 l 1
 15 35 l 1
 17 35 l 1
 17 33 l 1
17 37 m 1
 15 37 l 1
 15 39 l 1
 17 39 l 1
 17 37 l 1
23 33 m 1
 21 33 l 1
 21 35 l 1
 23 35 l 1
 23 33 l 1
23 37 m 1
 21 37 l 1
 21 39 l 1
 23 39 l 1
 23 37 l 1
26 25 m 1
 24 25 l 1
 24 27 l 1
 25 27 l 1
 25 26 l 1
 26 26 l 1
 26 25 l 1
28 25 m 1
 27 25 l 1
 27 26 l 1
 26 26 l 1
 26 27 l 1
 28 27 l 1
 28 25 l 1
31 25 m 1
 29 25 l 1
 29 27 l 1
 31 27 l 1
 31 25 l 1
31 29 m 1
 29 29 l 1
 29 31 l 1
 31 31 l 1
 31 29 l 1
41 25 m 1
 39 25 l 1
 39 27 l 1
 41 27 l 1
 41 25 l 1
25 33 m 1
 24 33 l 1
 24 35 l 1
 26 35 l 1
 26 34 l 1
 25 34 l 1
 25 33 l 1
28 33 m 1
 26 33 l 1
 26 34 l 1
 27 34 l 1
 27 35 l 1
 28 35 l 1
 28 33 l 1
31 33 m 1
 29 33 l 1
 29 35 l 1
 31 35 l 1
 31 33 l 1
36 31 m 1
 34 31 l 1
 34 33 l 1
 36 33 l 1
 36 31 l 1
41 33 m 1
 39 33 l 1
 39 35 l 1
 41 35 l 1
 41 33 l 1
36 35 m 1
 34 35 l 1
 34 37 l 1
 36 37 l 1
 36 35 l 1
44 25 m 1
 42 25 l 1
 42 27 l 1
 43 27 l 1
 43 26 l 1
 44 26 l 1
 44 25 l 1
46 25 m 1
 45 25 l 1
 45 26 l 1
 44 26 l 1
 44 27 l 1
 46 27 l 1
 46 25 l 1
49 25 m 1
 47 25 l 1
 47 27 l 1
 49 27 l 1
 49 25 l 1
49 29 m 1
 47 29 l 1
 47 31 l 1
 49 31 l 1
 49 29 l 1
55 25 m 1
 53 25 l 1
 53 27 l 1
 55 27 l 1
 55 25 l 1
55 29 m 1
 53 29 l 1
 53 31 l 1
 55 31 l 1
 55 29 l 1
43 33 m 1
 42 33 l 1
 42 35 l 1
 44 35 l 1
 44 34 l 1
 43 34 l 1
 43 33 l 1
46 33 m 1
 44 33 l 1
 44 34 l 1
 45 34 l 1
 45 35 l 1
 46 35 l 1
 46 33 l 1
49 33 m 1
 47 33 l 1
 47 35 l 1
 49 35 l 1
 49 33 l 1
49 37 m 1
 47 37 l 1
 47 39 l 1
 49 39 l 1
 49 37 l 1
55 33 m 1
 53 33 l 1
 53 35 l 1
 55 35 l 1
 55 33 l 1
55 37 m 1
 53 37 l 1
 53 39 l 1
 55 39 l 1
 55 37 l 1
58 25 m 1
 56 25 l 1
 56 27 l 1
 57 27 l 1
 57 26 l 1
 58 26 l 1
 58 25 l 1
60 25 m 1
 59 25 l 1
 59 26 l 1
 58 26 l 1
 58 27 l 1
 60 27 l 1
 60 25 l 1
63 25 m 1
 61 25 l 1
 61 27 l 1
 63 27 l 1
 63 25 l 1
63 29 m 1
 61 29 l 1
 61 31 l 1
 63 31 l 1
 63 29 l 1
63 33 m 1
 61 33 l 1
 61 35 l 1
 63 35 l 1
 63 33 l 1
63 37 m 1
 61 37 l 1
 61 39 l 1
 63 39 l 1
 63 37 l 1
17 41 m 1
 15 41 l 1
 15 43 l 1
 17 43 l 1
 17 41 l 1
23 41 m 1
 21 41 l 1
 21 43 l 1
 23 43 l 1
 23 41 l 1
26 41 m 1
 24 41 l 1
 24 43 l 1
 25 43 l 1
 25 42 l 1
 26 42 l 1
 26 41 l 1
28 41 m 1
 27 41 l 1
 27 42 l 1
 26 42 l 1
 26 43 l 1
 28 43 l 1
 28 41 l 1
31 41 m 1
 29 41 l 1
 29 43 l 1
 31 43 l 1
 31 41 l 1
41 41 m 1
 39 41 l 1
 39 43 l 1
 41 43 l 1
 41 41 l 1
44 41 m 1
 42 41 l 1
 42 43 l 1
 43 43 l 1
 43 42 l 1
 44 42 l 1
 44 41 l 1
46 41 m 1
 45 41 l 1
 45 42 l 1
 44 42 l 1
 44 43 l 1
 46 43 l 1
 46 41 l 1
49 41 m 1
 47 41 l 1
 47 43 l 1
 49 43 l 1
 49 41 l 1
55 41 m 1
 53 41 l 1
 53 43 l 1
 55 43 l 1
 55 41 l 1
58 41 m 1
 56 41 l 1
 56 43 l 1
 57 43 l 1
 57 42 l 1
 58 42 l 1
 58 41 l 1
60 41 m 1
 59 41 l 1
 59 42 l 1
 58 42 l 1
 58 43 l 1
 60 43 l 1
 60 41 l 1
63 41 m 1
 61 41 l 1
 61 43 l 1
 63 43 l 1
 63 41 l 1
EndSplineSet
Ligature2: "'liga' Standard Ligatures in Latin lookup 0-1" three zero zero five six
LCarets2: 1 0
EndChar

StartChar: custom_3_0_0_5_7
Encoding: 9313 -1 9068
Width: 70
Flags: H
LayerCount: 2
Fore
SplineSet
7 5 m 1
 6 5 l 1
 6 7 l 1
 5 7 l 1
 5 8 l 1
 7 8 l 1
 7 5 l 1
5 6 m 1
 4 6 l 1
 4 7 l 1
 5 7 l 1
 5 6 l 1
17 25 m 1
 15 25 l 1
 15 27 l 1
 17 27 l 1
 17 25 l 1
17 29 m 1
 15 29 l 1
 15 31 l 1
 17 31 l 1
 17 29 l 1
23 25 m 1
 21 25 l 1
 21 27 l 1
 23 27 l 1
 23 25 l 1
17 33 m 1
 15 33 l 1
 15 35 l 1
 17 35 l 1
 17 33 l 1
17 37 m 1
 15 37 l 1
 15 39 l 1
 17 39 l 1
 17 37 l 1
23 33 m 1
 21 33 l 1
 21 35 l 1
 23 35 l 1
 23 33 l 1
23 37 m 1
 21 37 l 1
 21 39 l 1
 23 39 l 1
 23 37 l 1
26 25 m 1
 24 25 l 1
 24 27 l 1
 25 27 l 1
 25 26 l 1
 26 26 l 1
 26 25 l 1
28 25 m 1
 27 25 l 1
 27 26 l 1
 26 26 l 1
 26 27 l 1
 28 27 l 1
 28 25 l 1
31 25 m 1
 29 25 l 1
 29 27 l 1
 31 27 l 1
 31 25 l 1
31 29 m 1
 29 29 l 1
 29 31 l 1
 31 31 l 1
 31 29 l 1
41 25 m 1
 39 25 l 1
 39 27 l 1
 41 27 l 1
 41 25 l 1
25 33 m 1
 24 33 l 1
 24 35 l 1
 26 35 l 1
 26 34 l 1
 25 34 l 1
 25 33 l 1
28 33 m 1
 26 33 l 1
 26 34 l 1
 27 34 l 1
 27 35 l 1
 28 35 l 1
 28 33 l 1
31 33 m 1
 29 33 l 1
 29 35 l 1
 31 35 l 1
 31 33 l 1
36 31 m 1
 34 31 l 1
 34 33 l 1
 36 33 l 1
 36 31 l 1
41 33 m 1
 39 33 l 1
 39 35 l 1
 41 35 l 1
 41 33 l 1
36 35 m 1
 34 35 l 1
 34 37 l 1
 36 37 l 1
 36 35 l 1
44 25 m 1
 42 25 l 1
 42 27 l 1
 43 27 l 1
 43 26 l 1
 44 26 l 1
 44 25 l 1
46 25 m 1
 45 25 l 1
 45 26 l 1
 44 26 l 1
 44 27 l 1
 46 27 l 1
 46 25 l 1
49 25 m 1
 47 25 l 1
 47 27 l 1
 49 27 l 1
 49 25 l 1
49 29 m 1
 47 29 l 1
 47 31 l 1
 49 31 l 1
 49 29 l 1
55 25 m 1
 53 25 l 1
 53 27 l 1
 55 27 l 1
 55 25 l 1
55 29 m 1
 53 29 l 1
 53 31 l 1
 55 31 l 1
 55 29 l 1
43 33 m 1
 42 33 l 1
 42 35 l 1
 44 35 l 1
 44 34 l 1
 43 34 l 1
 43 33 l 1
46 33 m 1
 44 33 l 1
 44 34 l 1
 45 34 l 1
 45 35 l 1
 46 35 l 1
 46 33 l 1
49 33 m 1
 47 33 l 1
 47 35 l 1
 49 35 l 1
 49 33 l 1
49 37 m 1
 47 37 l 1
 47 39 l 1
 49 39 l 1
 49 37 l 1
55 33 m 1
 53 33 l 1
 53 35 l 1
 55 35 l 1
 55 33 l 1
55 37 m 1
 53 37 l 1
 53 39 l 1
 55 39 l 1
 55 37 l 1
58 25 m 1
 56 25 l 1
 56 27 l 1
 57 27 l 1
 57 26 l 1
 58 26 l 1
 58 25 l 1
60 25 m 1
 59 25 l 1
 59 26 l 1
 58 26 l 1
 58 27 l 1
 60 27 l 1
 60 25 l 1
63 25 m 1
 61 25 l 1
 61 27 l 1
 63 27 l 1
 63 25 l 1
63 29 m 1
 61 29 l 1
 61 31 l 1
 63 31 l 1
 63 29 l 1
63 33 m 1
 61 33 l 1
 61 35 l 1
 63 35 l 1
 63 33 l 1
63 37 m 1
 61 37 l 1
 61 39 l 1
 63 39 l 1
 63 37 l 1
17 41 m 1
 15 41 l 1
 15 43 l 1
 17 43 l 1
 17 41 l 1
23 41 m 1
 21 41 l 1
 21 43 l 1
 23 43 l 1
 23 41 l 1
26 41 m 1
 24 41 l 1
 24 43 l 1
 25 43 l 1
 25 42 l 1
 26 42 l 1
 26 41 l 1
28 41 m 1
 27 41 l 1
 27 42 l 1
 26 42 l 1
 26 43 l 1
 28 43 l 1
 28 41 l 1
31 41 m 1
 29 41 l 1
 29 43 l 1
 31 43 l 1
 31 41 l 1
41 41 m 1
 39 41 l 1
 39 43 l 1
 41 43 l 1
 41 41 l 1
44 41 m 1
 42 41 l 1
 42 43 l 1
 43 43 l 1
 43 42 l 1
 44 42 l 1
 44 41 l 1
46 41 m 1
 45 41 l 1
 45 42 l 1
 44 42 l 1
 44 43 l 1
 46 43 l 1
 46 41 l 1
49 41 m 1
 47 41 l 1
 47 43 l 1
 49 43 l 1
 49 41 l 1
55 41 m 1
 53 41 l 1
 53 43 l 1
 55 43 l 1
 55 41 l 1
58 41 m 1
 56 41 l 1
 56 43 l 1
 57 43 l 1
 57 42 l 1
 58 42 l 1
 58 41 l 1
60 41 m 1
 59 41 l 1
 59 42 l 1
 58 42 l 1
 58 43 l 1
 60 43 l 1
 60 41 l 1
63 41 m 1
 61 41 l 1
 61 43 l 1
 63 43 l 1
 63 41 l 1
EndSplineSet
Ligature2: "'liga' Standard Ligatures in Latin lookup 0-1" three zero zero five seven
LCarets2: 1 0
EndChar

StartChar: custom_3_0_0_5_8
Encoding: 9314 -1 9069
Width: 70
Flags: H
LayerCount: 2
Fore
SplineSet
6 5 m 1
 5 5 l 1
 5 6 l 1
 6 6 l 1
 6 5 l 1
6 7 m 1
 5 7 l 1
 5 8 l 1
 7 8 l 1
 7 7 l 1
 8 7 l 1
 8 6 l 1
 6 6 l 1
 6 7 l 1
17 25 m 1
 15 25 l 1
 15 27 l 1
 17 27 l 1
 17 25 l 1
17 29 m 1
 15 29 l 1
 15 31 l 1
 17 31 l 1
 17 29 l 1
23 25 m 1
 21 25 l 1
 21 27 l 1
 23 27 l 1
 23 25 l 1
17 33 m 1
 15 33 l 1
 15 35 l 1
 17 35 l 1
 17 33 l 1
17 37 m 1
 15 37 l 1
 15 39 l 1
 17 39 l 1
 17 37 l 1
23 33 m 1
 21 33 l 1
 21 35 l 1
 23 35 l 1
 23 33 l 1
23 37 m 1
 21 37 l 1
 21 39 l 1
 23 39 l 1
 23 37 l 1
26 25 m 1
 24 25 l 1
 24 27 l 1
 25 27 l 1
 25 26 l 1
 26 26 l 1
 26 25 l 1
28 25 m 1
 27 25 l 1
 27 26 l 1
 26 26 l 1
 26 27 l 1
 28 27 l 1
 28 25 l 1
31 25 m 1
 29 25 l 1
 29 27 l 1
 31 27 l 1
 31 25 l 1
31 29 m 1
 29 29 l 1
 29 31 l 1
 31 31 l 1
 31 29 l 1
41 25 m 1
 39 25 l 1
 39 27 l 1
 41 27 l 1
 41 25 l 1
25 33 m 1
 24 33 l 1
 24 35 l 1
 26 35 l 1
 26 34 l 1
 25 34 l 1
 25 33 l 1
28 33 m 1
 26 33 l 1
 26 34 l 1
 27 34 l 1
 27 35 l 1
 28 35 l 1
 28 33 l 1
31 33 m 1
 29 33 l 1
 29 35 l 1
 31 35 l 1
 31 33 l 1
36 31 m 1
 34 31 l 1
 34 33 l 1
 36 33 l 1
 36 31 l 1
41 33 m 1
 39 33 l 1
 39 35 l 1
 41 35 l 1
 41 33 l 1
36 35 m 1
 34 35 l 1
 34 37 l 1
 36 37 l 1
 36 35 l 1
44 25 m 1
 42 25 l 1
 42 27 l 1
 43 27 l 1
 43 26 l 1
 44 26 l 1
 44 25 l 1
46 25 m 1
 45 25 l 1
 45 26 l 1
 44 26 l 1
 44 27 l 1
 46 27 l 1
 46 25 l 1
49 25 m 1
 47 25 l 1
 47 27 l 1
 49 27 l 1
 49 25 l 1
49 29 m 1
 47 29 l 1
 47 31 l 1
 49 31 l 1
 49 29 l 1
55 25 m 1
 53 25 l 1
 53 27 l 1
 55 27 l 1
 55 25 l 1
55 29 m 1
 53 29 l 1
 53 31 l 1
 55 31 l 1
 55 29 l 1
43 33 m 1
 42 33 l 1
 42 35 l 1
 44 35 l 1
 44 34 l 1
 43 34 l 1
 43 33 l 1
46 33 m 1
 44 33 l 1
 44 34 l 1
 45 34 l 1
 45 35 l 1
 46 35 l 1
 46 33 l 1
49 33 m 1
 47 33 l 1
 47 35 l 1
 49 35 l 1
 49 33 l 1
49 37 m 1
 47 37 l 1
 47 39 l 1
 49 39 l 1
 49 37 l 1
55 33 m 1
 53 33 l 1
 53 35 l 1
 55 35 l 1
 55 33 l 1
55 37 m 1
 53 37 l 1
 53 39 l 1
 55 39 l 1
 55 37 l 1
58 25 m 1
 56 25 l 1
 56 27 l 1
 57 27 l 1
 57 26 l 1
 58 26 l 1
 58 25 l 1
60 25 m 1
 59 25 l 1
 59 26 l 1
 58 26 l 1
 58 27 l 1
 60 27 l 1
 60 25 l 1
63 25 m 1
 61 25 l 1
 61 27 l 1
 63 27 l 1
 63 25 l 1
63 29 m 1
 61 29 l 1
 61 31 l 1
 63 31 l 1
 63 29 l 1
63 33 m 1
 61 33 l 1
 61 35 l 1
 63 35 l 1
 63 33 l 1
63 37 m 1
 61 37 l 1
 61 39 l 1
 63 39 l 1
 63 37 l 1
17 41 m 1
 15 41 l 1
 15 43 l 1
 17 43 l 1
 17 41 l 1
23 41 m 1
 21 41 l 1
 21 43 l 1
 23 43 l 1
 23 41 l 1
26 41 m 1
 24 41 l 1
 24 43 l 1
 25 43 l 1
 25 42 l 1
 26 42 l 1
 26 41 l 1
28 41 m 1
 27 41 l 1
 27 42 l 1
 26 42 l 1
 26 43 l 1
 28 43 l 1
 28 41 l 1
31 41 m 1
 29 41 l 1
 29 43 l 1
 31 43 l 1
 31 41 l 1
41 41 m 1
 39 41 l 1
 39 43 l 1
 41 43 l 1
 41 41 l 1
44 41 m 1
 42 41 l 1
 42 43 l 1
 43 43 l 1
 43 42 l 1
 44 42 l 1
 44 41 l 1
46 41 m 1
 45 41 l 1
 45 42 l 1
 44 42 l 1
 44 43 l 1
 46 43 l 1
 46 41 l 1
49 41 m 1
 47 41 l 1
 47 43 l 1
 49 43 l 1
 49 41 l 1
55 41 m 1
 53 41 l 1
 53 43 l 1
 55 43 l 1
 55 41 l 1
58 41 m 1
 56 41 l 1
 56 43 l 1
 57 43 l 1
 57 42 l 1
 58 42 l 1
 58 41 l 1
60 41 m 1
 59 41 l 1
 59 42 l 1
 58 42 l 1
 58 43 l 1
 60 43 l 1
 60 41 l 1
63 41 m 1
 61 41 l 1
 61 43 l 1
 63 43 l 1
 63 41 l 1
EndSplineSet
Ligature2: "'liga' Standard Ligatures in Latin lookup 0-1" three zero zero five eight
LCarets2: 1 0
EndChar

StartChar: custom_3_0_0_5_9
Encoding: 9315 -1 9070
Width: 70
Flags: H
LayerCount: 2
Fore
SplineSet
7 5 m 1
 6 5 l 1
 6 6 l 1
 7 6 l 1
 7 5 l 1
7 7 m 1
 5 7 l 1
 5 8 l 1
 8 8 l 1
 8 6 l 1
 7 6 l 1
 7 7 l 1
17 25 m 1
 15 25 l 1
 15 27 l 1
 17 27 l 1
 17 25 l 1
17 29 m 1
 15 29 l 1
 15 31 l 1
 17 31 l 1
 17 29 l 1
23 25 m 1
 21 25 l 1
 21 27 l 1
 23 27 l 1
 23 25 l 1
17 33 m 1
 15 33 l 1
 15 35 l 1
 17 35 l 1
 17 33 l 1
17 37 m 1
 15 37 l 1
 15 39 l 1
 17 39 l 1
 17 37 l 1
23 33 m 1
 21 33 l 1
 21 35 l 1
 23 35 l 1
 23 33 l 1
23 37 m 1
 21 37 l 1
 21 39 l 1
 23 39 l 1
 23 37 l 1
26 25 m 1
 24 25 l 1
 24 27 l 1
 25 27 l 1
 25 26 l 1
 26 26 l 1
 26 25 l 1
28 25 m 1
 27 25 l 1
 27 26 l 1
 26 26 l 1
 26 27 l 1
 28 27 l 1
 28 25 l 1
31 25 m 1
 29 25 l 1
 29 27 l 1
 31 27 l 1
 31 25 l 1
31 29 m 1
 29 29 l 1
 29 31 l 1
 31 31 l 1
 31 29 l 1
41 25 m 1
 39 25 l 1
 39 27 l 1
 41 27 l 1
 41 25 l 1
25 33 m 1
 24 33 l 1
 24 35 l 1
 26 35 l 1
 26 34 l 1
 25 34 l 1
 25 33 l 1
28 33 m 1
 26 33 l 1
 26 34 l 1
 27 34 l 1
 27 35 l 1
 28 35 l 1
 28 33 l 1
31 33 m 1
 29 33 l 1
 29 35 l 1
 31 35 l 1
 31 33 l 1
36 31 m 1
 34 31 l 1
 34 33 l 1
 36 33 l 1
 36 31 l 1
41 33 m 1
 39 33 l 1
 39 35 l 1
 41 35 l 1
 41 33 l 1
36 35 m 1
 34 35 l 1
 34 37 l 1
 36 37 l 1
 36 35 l 1
44 25 m 1
 42 25 l 1
 42 27 l 1
 43 27 l 1
 43 26 l 1
 44 26 l 1
 44 25 l 1
46 25 m 1
 45 25 l 1
 45 26 l 1
 44 26 l 1
 44 27 l 1
 46 27 l 1
 46 25 l 1
49 25 m 1
 47 25 l 1
 47 27 l 1
 49 27 l 1
 49 25 l 1
49 29 m 1
 47 29 l 1
 47 31 l 1
 49 31 l 1
 49 29 l 1
55 25 m 1
 53 25 l 1
 53 27 l 1
 55 27 l 1
 55 25 l 1
55 29 m 1
 53 29 l 1
 53 31 l 1
 55 31 l 1
 55 29 l 1
43 33 m 1
 42 33 l 1
 42 35 l 1
 44 35 l 1
 44 34 l 1
 43 34 l 1
 43 33 l 1
46 33 m 1
 44 33 l 1
 44 34 l 1
 45 34 l 1
 45 35 l 1
 46 35 l 1
 46 33 l 1
49 33 m 1
 47 33 l 1
 47 35 l 1
 49 35 l 1
 49 33 l 1
49 37 m 1
 47 37 l 1
 47 39 l 1
 49 39 l 1
 49 37 l 1
55 33 m 1
 53 33 l 1
 53 35 l 1
 55 35 l 1
 55 33 l 1
55 37 m 1
 53 37 l 1
 53 39 l 1
 55 39 l 1
 55 37 l 1
58 25 m 1
 56 25 l 1
 56 27 l 1
 57 27 l 1
 57 26 l 1
 58 26 l 1
 58 25 l 1
60 25 m 1
 59 25 l 1
 59 26 l 1
 58 26 l 1
 58 27 l 1
 60 27 l 1
 60 25 l 1
63 25 m 1
 61 25 l 1
 61 27 l 1
 63 27 l 1
 63 25 l 1
63 29 m 1
 61 29 l 1
 61 31 l 1
 63 31 l 1
 63 29 l 1
63 33 m 1
 61 33 l 1
 61 35 l 1
 63 35 l 1
 63 33 l 1
63 37 m 1
 61 37 l 1
 61 39 l 1
 63 39 l 1
 63 37 l 1
17 41 m 1
 15 41 l 1
 15 43 l 1
 17 43 l 1
 17 41 l 1
23 41 m 1
 21 41 l 1
 21 43 l 1
 23 43 l 1
 23 41 l 1
26 41 m 1
 24 41 l 1
 24 43 l 1
 25 43 l 1
 25 42 l 1
 26 42 l 1
 26 41 l 1
28 41 m 1
 27 41 l 1
 27 42 l 1
 26 42 l 1
 26 43 l 1
 28 43 l 1
 28 41 l 1
31 41 m 1
 29 41 l 1
 29 43 l 1
 31 43 l 1
 31 41 l 1
41 41 m 1
 39 41 l 1
 39 43 l 1
 41 43 l 1
 41 41 l 1
44 41 m 1
 42 41 l 1
 42 43 l 1
 43 43 l 1
 43 42 l 1
 44 42 l 1
 44 41 l 1
46 41 m 1
 45 41 l 1
 45 42 l 1
 44 42 l 1
 44 43 l 1
 46 43 l 1
 46 41 l 1
49 41 m 1
 47 41 l 1
 47 43 l 1
 49 43 l 1
 49 41 l 1
55 41 m 1
 53 41 l 1
 53 43 l 1
 55 43 l 1
 55 41 l 1
58 41 m 1
 56 41 l 1
 56 43 l 1
 57 43 l 1
 57 42 l 1
 58 42 l 1
 58 41 l 1
60 41 m 1
 59 41 l 1
 59 42 l 1
 58 42 l 1
 58 43 l 1
 60 43 l 1
 60 41 l 1
63 41 m 1
 61 41 l 1
 61 43 l 1
 63 43 l 1
 63 41 l 1
EndSplineSet
Ligature2: "'liga' Standard Ligatures in Latin lookup 0-1" three zero zero five nine
LCarets2: 1 0
EndChar

StartChar: custom_3_0_0_6_0
Encoding: 9316 -1 9071
Width: 70
Flags: H
LayerCount: 2
Fore
SplineSet
6 6 m 1
 5 6 l 1
 5 7 l 1
 6 7 l 1
 6 6 l 1
8 6 m 1
 7 6 l 1
 7 7 l 1
 6 7 l 1
 6 9 l 1
 7 9 l 1
 7 8 l 1
 8 8 l 1
 8 6 l 1
17 25 m 1
 15 25 l 1
 15 27 l 1
 17 27 l 1
 17 25 l 1
17 29 m 1
 15 29 l 1
 15 31 l 1
 17 31 l 1
 17 29 l 1
23 25 m 1
 21 25 l 1
 21 27 l 1
 23 27 l 1
 23 25 l 1
17 33 m 1
 15 33 l 1
 15 35 l 1
 17 35 l 1
 17 33 l 1
17 37 m 1
 15 37 l 1
 15 39 l 1
 17 39 l 1
 17 37 l 1
23 33 m 1
 21 33 l 1
 21 35 l 1
 23 35 l 1
 23 33 l 1
23 37 m 1
 21 37 l 1
 21 39 l 1
 23 39 l 1
 23 37 l 1
26 25 m 1
 24 25 l 1
 24 27 l 1
 25 27 l 1
 25 26 l 1
 26 26 l 1
 26 25 l 1
28 25 m 1
 27 25 l 1
 27 26 l 1
 26 26 l 1
 26 27 l 1
 28 27 l 1
 28 25 l 1
31 25 m 1
 29 25 l 1
 29 27 l 1
 31 27 l 1
 31 25 l 1
31 29 m 1
 29 29 l 1
 29 31 l 1
 31 31 l 1
 31 29 l 1
41 25 m 1
 39 25 l 1
 39 27 l 1
 41 27 l 1
 41 25 l 1
25 33 m 1
 24 33 l 1
 24 35 l 1
 26 35 l 1
 26 34 l 1
 25 34 l 1
 25 33 l 1
28 33 m 1
 26 33 l 1
 26 34 l 1
 27 34 l 1
 27 35 l 1
 28 35 l 1
 28 33 l 1
31 33 m 1
 29 33 l 1
 29 35 l 1
 31 35 l 1
 31 33 l 1
36 31 m 1
 34 31 l 1
 34 33 l 1
 36 33 l 1
 36 31 l 1
41 33 m 1
 39 33 l 1
 39 35 l 1
 41 35 l 1
 41 33 l 1
36 35 m 1
 34 35 l 1
 34 37 l 1
 36 37 l 1
 36 35 l 1
44 25 m 1
 42 25 l 1
 42 27 l 1
 43 27 l 1
 43 26 l 1
 44 26 l 1
 44 25 l 1
46 25 m 1
 45 25 l 1
 45 26 l 1
 44 26 l 1
 44 27 l 1
 46 27 l 1
 46 25 l 1
49 25 m 1
 47 25 l 1
 47 27 l 1
 49 27 l 1
 49 25 l 1
49 29 m 1
 47 29 l 1
 47 31 l 1
 49 31 l 1
 49 29 l 1
55 25 m 1
 53 25 l 1
 53 27 l 1
 55 27 l 1
 55 25 l 1
55 29 m 1
 53 29 l 1
 53 31 l 1
 55 31 l 1
 55 29 l 1
43 33 m 1
 42 33 l 1
 42 35 l 1
 44 35 l 1
 44 34 l 1
 43 34 l 1
 43 33 l 1
46 33 m 1
 44 33 l 1
 44 34 l 1
 45 34 l 1
 45 35 l 1
 46 35 l 1
 46 33 l 1
49 33 m 1
 47 33 l 1
 47 35 l 1
 49 35 l 1
 49 33 l 1
49 37 m 1
 47 37 l 1
 47 39 l 1
 49 39 l 1
 49 37 l 1
55 33 m 1
 53 33 l 1
 53 35 l 1
 55 35 l 1
 55 33 l 1
55 37 m 1
 53 37 l 1
 53 39 l 1
 55 39 l 1
 55 37 l 1
58 25 m 1
 56 25 l 1
 56 27 l 1
 57 27 l 1
 57 26 l 1
 58 26 l 1
 58 25 l 1
60 25 m 1
 59 25 l 1
 59 26 l 1
 58 26 l 1
 58 27 l 1
 60 27 l 1
 60 25 l 1
63 25 m 1
 61 25 l 1
 61 27 l 1
 63 27 l 1
 63 25 l 1
63 29 m 1
 61 29 l 1
 61 31 l 1
 63 31 l 1
 63 29 l 1
63 33 m 1
 61 33 l 1
 61 35 l 1
 63 35 l 1
 63 33 l 1
63 37 m 1
 61 37 l 1
 61 39 l 1
 63 39 l 1
 63 37 l 1
17 41 m 1
 15 41 l 1
 15 43 l 1
 17 43 l 1
 17 41 l 1
23 41 m 1
 21 41 l 1
 21 43 l 1
 23 43 l 1
 23 41 l 1
26 41 m 1
 24 41 l 1
 24 43 l 1
 25 43 l 1
 25 42 l 1
 26 42 l 1
 26 41 l 1
28 41 m 1
 27 41 l 1
 27 42 l 1
 26 42 l 1
 26 43 l 1
 28 43 l 1
 28 41 l 1
31 41 m 1
 29 41 l 1
 29 43 l 1
 31 43 l 1
 31 41 l 1
41 41 m 1
 39 41 l 1
 39 43 l 1
 41 43 l 1
 41 41 l 1
44 41 m 1
 42 41 l 1
 42 43 l 1
 43 43 l 1
 43 42 l 1
 44 42 l 1
 44 41 l 1
46 41 m 1
 45 41 l 1
 45 42 l 1
 44 42 l 1
 44 43 l 1
 46 43 l 1
 46 41 l 1
49 41 m 1
 47 41 l 1
 47 43 l 1
 49 43 l 1
 49 41 l 1
55 41 m 1
 53 41 l 1
 53 43 l 1
 55 43 l 1
 55 41 l 1
58 41 m 1
 56 41 l 1
 56 43 l 1
 57 43 l 1
 57 42 l 1
 58 42 l 1
 58 41 l 1
60 41 m 1
 59 41 l 1
 59 42 l 1
 58 42 l 1
 58 43 l 1
 60 43 l 1
 60 41 l 1
63 41 m 1
 61 41 l 1
 61 43 l 1
 63 43 l 1
 63 41 l 1
EndSplineSet
Ligature2: "'liga' Standard Ligatures in Latin lookup 0-1" three zero zero six zero
LCarets2: 1 0
EndChar

